<svg width="16" height="16" viewBox="0 0 16 16" fill="none" xmlns="http://www.w3.org/2000/svg">
<mask id="mask0_193_3030" style="mask-type:alpha" maskUnits="userSpaceOnUse" x="0" y="0" width="16" height="16">
<rect width="16" height="16" fill="#B3B3B3"/>
</mask>
<g mask="url(#mask0_193_3030)">
<path d="M10.6333 11.2333L11.4833 10.3833L9 7.9V4.4H7.8V8.4L10.6333 11.2333ZM8.4 14.8C7.51804 14.8 6.68922 14.6333 5.91353 14.3C5.13784 13.9667 4.45833 13.5083 3.875 12.925C3.29167 12.3417 2.83333 11.6613 2.5 10.884C2.16667 10.1067 2 9.27616 2 8.39237C2 7.50857 2.16667 6.67778 2.5 5.9C2.83333 5.12222 3.29167 4.44444 3.875 3.86667C4.45833 3.28889 5.13866 2.83333 5.91597 2.5C6.69329 2.16667 7.52385 2 8.40763 2C9.29143 2 10.1223 2.168 10.9001 2.504C11.678 2.84 12.3546 3.296 12.93 3.872C13.5054 4.448 13.9609 5.12533 14.2965 5.904C14.6322 6.68267 14.8 7.51467 14.8 8.4C14.8 9.28196 14.6333 10.1108 14.3 10.8865C13.9667 11.6622 13.5111 12.3417 12.9333 12.925C12.3556 13.5083 11.6771 13.9667 10.8978 14.3C10.1186 14.6333 9.28598 14.8 8.4 14.8ZM8.40795 13.6C9.84658 13.6 11.0716 13.0917 12.0829 12.075C13.0943 11.0583 13.6 9.83068 13.6 8.39205C13.6 6.95342 13.0943 5.72842 12.0829 4.71705C11.0716 3.70568 9.84658 3.2 8.40795 3.2C6.96932 3.2 5.74167 3.70568 4.725 4.71705C3.70833 5.72842 3.2 6.95342 3.2 8.39205C3.2 9.83068 3.70833 11.0583 4.725 12.075C5.74167 13.0917 6.96932 13.6 8.40795 13.6Z" fill="#B3B3B3"/>
</g>
</svg>
