<svg width="39" height="60" viewBox="0 0 39 60" fill="none" xmlns="http://www.w3.org/2000/svg">
<path d="M27.0299 12.2199L31.2945 3.17859L30.4747 2.79601L30.0276 3.65681L29.6191 3.43916L30.0396 2.55649L29.3243 2.19696L28.8869 3.06679L28.5572 2.90757L28.9525 1.98437L28.1254 1.64706L26.3059 6.12052C26.004 5.99143 25.6966 5.86882 25.39 5.75544L26.6299 0.970061L25.6532 0.726617L25.4106 1.60944L25.0454 1.51773L25.2407 0.609513L24.3556 0.44005L24.166 1.34786L23.7457 1.27939L23.8648 0.317031L22.9025 0.191098L22.2469 4.89658C21.9965 4.85208 21.7444 4.81333 21.4952 4.78089L21.7014 0.0527344H20.6821L20.6507 0.87636L20.1974 0.862391L20.1705 0.0527344H18.8296L18.8029 0.862391L18.3495 0.87636L18.3183 0.0527344H17.2987L17.5052 4.78223C17.2588 4.81568 17.0069 4.85585 16.754 4.90209L16.0976 0.19118L15.1353 0.317113L15.2544 1.27947L14.8341 1.34794L14.6445 0.440129L13.7594 0.609592L13.9546 1.51781L13.5894 1.60953L13.347 0.726698L12.3701 0.970143L13.6196 5.77698C13.3101 5.8923 12.9989 6.0169 12.6921 6.14834L10.8747 1.64714L10.0475 1.98445L10.4428 2.90765L10.1131 3.06687L9.67566 2.19704L8.96034 2.55658L9.38087 3.43924L8.97256 3.65689L8.52524 2.79609L7.70534 3.17867L11.9702 12.22H0.0537109V55.4144C0.0537109 57.099 1.39008 58.4695 3.03266 58.4695H16.5485C17.4057 58.4695 18.1523 59.056 18.6278 59.548C19.1503 60.0886 19.4695 60.6376 19.4727 60.6431L19.5588 60.7923L19.6413 60.641C19.6531 60.6194 20.845 58.4695 22.4514 58.4695H35.9673C37.6098 58.4695 38.9461 57.099 38.9461 55.4145V12.2199H27.0299ZM12.3896 12.2199C12.7057 12.0529 13.3244 11.7514 14.1816 11.4514C15.3607 11.0389 17.2403 10.5471 19.4999 10.5471C21.3896 10.5471 23.2862 11.0433 24.5444 11.4593C25.4291 11.752 26.1306 12.0471 26.5176 12.2199L12.3896 12.2199Z" fill="black"/>
<path d="M33.3335 25.8444C33.5069 26.0953 33.5573 26.3667 33.4678 26.5731C33.393 26.745 33.2324 26.854 33.0146 26.8802C32.4959 26.9457 32.1929 26.4352 31.8388 25.8485C31.8379 25.8469 31.8369 25.8454 31.8359 25.844C32.3558 25.5349 32.833 25.5351 33.3335 25.8444Z" fill="#ED1C24"/>
<path d="M38.5097 12.6628V55.4143C38.5097 56.8548 37.3692 58.0267 35.9673 58.0267H22.4515C21.6704 58.0267 20.8678 58.4477 20.1304 59.2439C19.8919 59.5013 19.6955 59.7597 19.55 59.969C19.3969 59.7579 19.19 59.4968 18.9399 59.238C18.4058 58.6854 17.5574 58.0267 16.5487 58.0267H3.03281C1.63096 58.0267 0.490479 56.8548 0.490479 55.4143V12.6628H38.5097ZM34.0605 27.838C35.2759 26.8932 34.7622 25.5933 34.647 25.3422C34.6346 25.3156 34.6229 25.2905 34.6089 25.2709L34.6096 25.2705C33.7518 24.0108 32.2407 24.2021 31.0814 24.8141C30.6396 24.3952 30.0409 24.16 29.1239 24.4695C28.1717 24.7913 28.3076 26.0845 28.3089 26.0975L28.3408 26.3736L28.4685 26.1276C28.4818 26.1018 28.8008 25.5033 29.7809 25.5799C29.8532 25.6092 29.9231 25.6432 29.9904 25.6815C28.6431 27.4883 28.9874 30.583 29.0601 31.0669L29.0586 31.0659C29.0444 31.0877 28.7073 31.6006 28.6697 31.9236C28.6449 32.1361 28.7126 32.2658 28.836 32.5016C28.9588 32.7363 29.1444 33.0914 29.366 33.7748C29.4595 34.0631 29.4384 34.3885 29.4141 34.7649C29.4048 34.9045 29.3952 35.0519 29.3906 35.2085L29.384 35.4193L29.534 35.2731C29.607 35.2022 29.6895 35.1274 29.7762 35.0487C30 34.8453 30.2506 34.6179 30.4334 34.371C30.8603 36.7947 29.8282 37.63 28.6859 38.2353C28.6828 38.0799 28.6791 37.9366 28.6745 37.8095C28.5338 37.1279 27.606 36.5993 26.7091 36.0882C25.8444 35.5956 24.9506 35.0861 24.9363 34.514L24.9365 32.7464C25.0111 32.8684 25.1058 32.9707 25.2269 33.0461C25.3479 33.1216 25.5653 33.1585 25.8908 33.1585C26.1604 33.1585 26.4011 33.1323 26.4114 33.1311L26.6417 33.1055L26.4494 32.9742C26.2557 32.8416 25.728 32.4478 25.6146 32.2215C25.3615 31.7162 25.3457 31.2664 25.5727 30.6241C25.6076 30.7677 25.628 30.9185 25.6476 31.0661C25.705 31.4947 25.7644 31.9377 26.1876 32.177C26.3825 32.2872 26.5924 32.3892 26.808 32.3892C27.0919 32.3889 27.33 32.21 27.5158 31.857L27.6171 31.664L27.4135 31.735C27.3305 31.7639 27.2505 31.7784 27.1758 31.7784C26.9241 31.7784 26.7661 31.6112 26.7456 31.4539C26.6348 30.6037 26.6915 29.5802 26.7516 28.4964C26.8426 26.8488 26.9369 25.1453 26.4913 23.6805C25.679 21.0077 24.2009 20.6087 23.3923 20.6087C23.1924 20.6087 23.0383 20.6334 22.951 20.652C22.8765 20.4382 22.6616 19.8742 22.4228 19.7162C22.2576 19.6069 22.082 19.5516 21.9006 19.5516C21.6297 19.5516 21.3601 19.6823 21.1969 19.8923C20.8649 20.3199 20.7485 20.6324 20.7278 20.8023C20.7257 20.8023 20.7234 20.8023 20.7213 20.8023L20.2994 20.8007C19.5451 20.8007 19.1518 20.8285 19.0247 20.8907C18.8329 20.9842 18.7035 21.3592 18.6558 21.52C18.552 21.5143 18.342 21.5049 18.0987 21.5049C16.7672 21.5049 16.6619 21.7747 16.6273 21.8636C16.5456 22.0726 16.5299 22.2067 16.5761 22.2981C16.6202 22.3857 16.7052 22.4076 16.7672 22.4233C16.7913 22.4296 16.8101 22.4347 16.8229 22.4404C16.6605 22.871 16.5543 23.7204 16.672 23.9814C16.737 24.1257 16.9252 24.1445 17.082 24.1445C17.2099 24.1445 17.3644 24.1304 17.5286 24.1154C17.7232 24.0977 17.9443 24.0774 18.1604 24.0774C18.427 24.0774 18.643 24.1081 18.8204 24.1712C18.9625 24.222 19.1084 24.3388 19.1771 24.4773C18.506 24.3775 16.1185 24.3195 15.5604 24.3833C15.3206 24.4104 14.8686 24.5952 14.8756 25.1016L14.8768 25.1968L14.9703 25.1858C15.1704 25.1618 15.293 25.0902 15.4013 25.0266C15.4974 24.9705 15.588 24.9172 15.732 24.8973C16.5632 24.7824 18.1416 24.9447 18.8156 25.0142C18.8849 25.0213 18.9408 25.0268 18.9858 25.0313C18.9295 25.077 18.8701 25.1113 18.8154 25.1268C18.5975 25.1885 18.2297 25.2238 17.8059 25.2238C17.4322 25.2238 17.0568 25.1957 16.8269 25.1508L16.7215 25.1301L16.726 25.2389C16.7572 26.01 16.8197 26.5268 16.9227 26.8657C16.9805 27.0556 17.2969 27.1174 17.5311 27.1371C17.4007 27.2593 17.2685 27.3856 17.1356 27.5163L12.4811 23.6632L14.0274 22.0516L14.6388 22.5784L15.3375 21.8703L14.7514 21.3075L15.8546 20.0283L16.7923 20.948L18.7253 18.8635L18.6969 16.354L16.1981 16.3462L14.2071 18.3654L15.1545 19.295L13.8683 20.5427L13.3146 20.012L12.681 20.6922L13.2275 21.2849L11.6283 22.9573L11.4738 22.8294L11.4416 22.8129C11.3585 22.7911 10.625 22.6045 10.3828 22.8334C10.2254 22.9813 10.1697 23.3415 10.1513 23.5206C9.9902 23.4919 9.67892 23.4616 9.52468 23.6119C9.35822 23.7747 9.43464 24.1767 9.48491 24.3718C9.32152 24.408 9.01551 24.4848 8.91673 24.5688C8.7737 24.691 8.78728 25.0586 8.79486 25.1683L8.80205 25.2694L8.85755 25.2558C8.92703 25.3155 9.03571 25.4046 9.18357 25.5146L4.53105 30.3803L3.91491 29.7868L3.25377 30.5688L5.30223 32.5807L6.02781 31.7711L5.35657 31.0905L9.98114 26.2695C10.0027 26.2992 10.0242 26.3252 10.0448 26.3461C10.1259 26.4285 10.188 26.4969 10.239 26.5531C10.5123 26.8528 10.54 26.8548 11.2528 26.905L11.7013 26.9372L11.5265 26.7711C11.3465 26.6005 11.2216 26.488 11.1302 26.4055C11.0617 26.3439 11.0132 26.3 10.9744 26.261C11.2886 26.2916 11.4948 26.3624 11.7948 26.5297C11.9827 26.6411 12.1951 26.8188 12.4189 27.0381C12.4224 27.0441 12.4266 27.0498 12.4319 27.0549C12.469 27.0922 12.5064 27.1284 12.5441 27.1638C13.5797 28.2277 14.798 30.0549 14.9389 30.2884C14.8582 30.4297 14.7798 30.5749 14.7041 30.7237C14.6486 30.8801 14.6312 31.0419 14.6143 31.1986C14.5918 31.4084 14.5705 31.6067 14.4649 31.8006C14.345 32.021 13.892 32.2172 13.7277 32.2742L13.4439 32.3727L13.7364 32.4396C13.7572 32.4443 14.2462 32.5553 14.5743 32.5553C14.7009 32.5553 14.7866 32.5395 14.8443 32.5051C15.1569 32.3201 15.2766 31.9686 15.4425 31.4826C15.4779 31.3792 15.5155 31.2688 15.5578 31.1513C15.7057 31.6666 15.8283 32.0885 16.1594 32.4303C15.322 32.5407 13.7333 32.8436 13.2186 33.1158C13.0929 33.1819 13.0758 33.3163 13.0595 33.4464C13.0523 33.5027 13.0454 33.5599 13.0298 33.616C12.9692 33.5989 12.9064 33.5778 12.8431 33.557C12.6041 33.4776 12.357 33.3956 12.182 33.4991C11.9225 33.6733 11.7679 33.8621 11.6438 34.0137C11.5589 34.1174 11.4975 34.1899 11.4368 34.2283L11.4313 34.2212L11.3956 34.2491C11.3792 34.2552 11.3621 34.259 11.3444 34.2601C11.0949 34.1255 10.9901 34.0071 10.9763 33.9455C10.973 33.9305 10.9752 33.9201 10.9841 33.9082C11.7991 32.8383 11.9014 31.6789 11.2647 30.7268C10.5734 29.6932 9.14887 29.1398 8.02161 29.4671C6.93296 29.7834 5.78688 30.7 6.50991 33.2738L6.58541 33.5422L6.67194 33.2776C7.54171 30.6199 8.18268 30.6834 8.74875 30.7406L8.79123 30.7436C9.46598 30.9303 9.88863 31.2407 10.047 31.6664C10.3324 32.4329 9.74385 33.4785 9.27656 34.1982L9.23623 34.2603L10.2331 35.1571C10.0831 35.2601 9.78058 35.4777 9.50771 35.7346C9.23468 35.9914 8.99151 36.2874 8.96009 36.5471C8.91892 36.8897 9.4423 37.4601 9.50228 37.5241L9.52867 37.5432C9.71633 37.6292 9.90923 37.6949 10.0955 37.7583C10.2507 37.8112 10.4029 37.8632 10.551 37.9252C10.5512 37.9254 10.5513 37.9254 10.5515 37.9256C10.5717 37.9365 10.5911 37.9449 10.6099 37.9507C10.8341 38.05 11.0491 38.1765 11.2526 38.3709L11.4424 38.5526L11.3108 37.8433H11.659C11.7824 37.8787 11.8849 37.936 11.979 38.0048C12.0599 38.0639 12.1344 38.1314 12.2111 38.2009C12.2691 38.2534 12.3273 38.3056 12.3882 38.3552L12.5256 38.4656L12.5258 38.2877C12.526 38.238 12.546 37.8687 12.6074 37.5968C12.6285 37.5027 12.6547 37.4202 12.6865 37.3667C12.7424 37.2734 12.8573 37.1801 12.9681 37.0898C13.0981 36.9841 13.2326 36.8748 13.303 36.7454C13.3813 36.6017 13.3795 36.4147 13.3781 36.2337C13.3766 36.0646 13.3752 35.8899 13.4437 35.7857C13.5827 35.574 14.1451 35.3166 14.3537 35.2339C14.4895 35.2194 15.6624 35.2329 16.9517 35.2507C17.5892 37.699 19.2608 38.1582 22.0999 38.1306C22.2817 38.3069 22.4474 38.5299 22.4602 38.6446C17.4664 38.915 17.2851 38.9806 15.9176 39.4751C15.756 39.5336 15.5773 39.5984 15.3717 39.67C15.2786 39.7027 15.1742 39.7202 15.0636 39.7385C14.7728 39.7868 14.4436 39.8416 14.1971 40.1989C13.878 40.6614 14.2396 41.29 14.2551 41.3164L14.9611 41.7639C14.9652 41.7763 14.9703 41.7922 14.9762 41.8111C15.1008 42.1949 15.6531 43.8468 16.1272 44.4902C16.3556 44.7999 16.7519 45.032 17.1353 45.2561C17.6208 45.5401 18.1227 45.8337 18.2818 46.279C18.1985 46.8873 17.5869 47.5266 17.078 47.897C16.798 47.9599 16.5194 47.9794 16.25 47.9985C15.8947 48.0233 15.5271 48.0491 15.1581 48.1748C15.07 48.2056 14.8984 48.1089 14.7465 48.0249C14.5767 47.931 14.4012 47.8338 14.2386 47.8291C14.2353 47.8289 14.232 47.8289 14.2283 47.8289C13.9745 47.8289 13.5123 48.0896 13.4599 48.1196L13.4316 48.1456C12.8455 49.0046 12.53 49.7111 12.652 50.7807L12.6701 50.9391L12.7908 50.8368C12.9334 50.7158 13.0268 50.5637 13.1093 50.4293C13.2115 50.2628 13.2921 50.1317 13.4229 50.1108C13.4599 50.1096 13.5312 50.1457 13.6078 50.1978C13.6664 50.2377 13.7281 50.2872 13.7799 50.3368L14.007 50.4613L14.2325 50.5849C14.2963 50.7223 14.5996 51.3485 15.088 51.973L15.2218 52.1438L15.2391 51.9266C15.2981 51.1913 15.3194 51.1053 15.39 50.8207L15.4056 50.7585C15.4488 50.7548 15.4909 50.7504 15.5319 50.7463C15.7298 50.7262 15.9004 50.7087 16.0454 50.7593C16.1682 50.802 16.2889 50.9317 16.4059 51.0567C16.5171 51.1763 16.6316 51.2989 16.7634 51.3684L16.7647 51.3774L16.7769 51.3753C16.81 51.3916 16.8439 51.4046 16.8792 51.4133C17.2167 51.4975 17.6822 51.187 17.9038 50.9909C18.1064 50.8116 18.1749 50.5393 18.2351 50.2994C18.2743 50.1429 18.3116 49.9951 18.3789 49.8851C18.9632 48.9346 20.746 47.0072 20.9763 46.759C21.1609 46.7552 21.8597 46.7224 22.0769 46.4482C22.2098 46.2803 22.2226 45.9639 22.1512 45.7737C21.9821 45.3219 21.498 45.031 21.0295 44.7496C20.7549 44.5845 20.4955 44.4286 20.3266 44.2541C20.28 44.2059 20.2404 44.1817 20.2119 44.1639C20.2024 44.1579 20.1906 44.1508 20.1894 44.1508C20.1747 44.1108 20.2199 43.8967 20.3024 43.5078L20.3119 43.4633C20.8699 43.0402 22.5291 42.3363 22.704 42.3721C22.9219 42.4949 23.0795 42.8235 23.2617 43.2042C23.5807 43.8694 24.0174 44.7807 25.1092 45.2678C25.1705 45.2952 25.1718 45.3558 25.1449 45.5512C25.1122 45.7893 25.0668 46.1154 25.3459 46.4214L25.3746 46.4421C25.7851 46.6214 26.2254 46.5972 26.6145 46.5771C26.9265 46.56 27.2211 46.5442 27.4438 46.6222C27.765 46.8286 28.1669 46.9577 28.5556 47.0825C28.9218 47.1999 29.2684 47.3111 29.5011 47.4739L29.5255 47.5373C29.7858 48.2133 30.1095 49.055 29.8921 49.8105C29.8679 49.8233 29.768 49.8005 29.7084 49.7865C29.5758 49.756 29.4254 49.7212 29.3311 49.8064C29.2407 49.8875 29.2498 50.0215 29.2575 50.1399C29.2626 50.2112 29.269 50.3086 29.241 50.3324C29.1611 50.401 28.9969 50.3366 28.8384 50.2743C28.6439 50.1984 28.4427 50.1196 28.294 50.2375C28.2089 50.3056 28.2182 50.4528 28.2302 50.5875C27.7774 50.2525 27.0068 49.9112 26.8768 49.9727L26.8694 49.9768C25.9781 50.1459 25.5256 50.6329 25.4462 51.5223L25.5382 52.7947L25.6201 52.8066L25.7021 52.8185C25.8518 52.4108 26.0629 52.0371 26.1341 52.0247C26.1877 52.0881 26.2261 52.169 26.2666 52.2544C26.3786 52.4901 26.516 52.7796 27.0425 52.6854L28.0084 54.1478L27.9825 53.8187C27.9667 53.6205 27.9486 53.0619 28.0524 52.8591C28.1362 52.6954 28.6031 52.4341 28.7855 52.4602C28.9417 52.4793 28.9726 52.6131 29.0181 52.8674C29.0546 53.0724 29.0995 53.323 29.2688 53.53C29.2684 53.5327 29.2679 53.5351 29.2675 53.5375L29.1778 53.6597L29.3982 53.6615L29.4166 53.6245C29.4226 53.618 29.4286 53.6115 29.4347 53.605C29.58 53.5177 29.74 53.4708 29.8949 53.4252C30.1198 53.3592 30.3319 53.2971 30.4647 53.1202C30.5223 53.0436 30.5449 52.9324 30.5687 52.8145C30.5907 52.7049 30.6184 52.5683 30.6726 52.54C30.8076 52.469 30.9394 52.491 31.1053 52.5187C31.34 52.5585 31.6314 52.6069 32.0121 52.3765L32.0434 52.3576L32.0515 52.3215C32.1805 51.7443 32.1183 51.0843 32.0523 50.3851C32.0065 49.9014 31.9596 49.4013 31.9675 48.8801C31.9755 48.3679 31.9968 47.8694 32.0172 47.3876C32.0768 45.9814 32.1202 44.9656 31.8133 44.6546C31.7574 44.598 31.6912 44.5653 31.6164 44.5572C31.6034 44.5419 31.5866 44.5273 31.5662 44.5147C31.2644 44.3236 29.9249 44.3422 29.4742 44.4374C28.8759 43.844 28.6937 43.2267 28.671 43.1426C28.6734 42.9915 28.6961 41.4452 28.698 39.9669C32.2523 39.003 32.0867 35.496 31.8757 34.1268C32.1446 34.264 32.4815 34.4069 32.9027 34.5492C32.9436 34.5629 32.9855 34.5769 33.0281 34.5907L33.271 34.6698L33.123 34.459C32.7082 33.8684 32.4286 33.1355 32.3554 32.448C32.3432 32.332 32.3329 32.2145 32.323 32.0976C32.2668 31.4486 32.2085 30.7771 31.7764 30.4593C31.4174 30.1952 30.875 30.3514 30.6194 30.4495C30.4796 30.0832 29.9161 28.4053 30.696 27.031C30.7795 26.8856 30.8682 26.748 30.9609 26.6203C31.5093 27.3225 32.1885 28.1758 32.9806 28.2498C33.3489 28.2832 33.7146 28.1446 34.0605 27.838Z" fill="#ED1C24"/>
<path d="M24.1081 3.6232L23.7867 5.2419C23.3366 5.1197 22.8864 5.01599 22.4385 4.93157L22.6684 3.28043L24.1081 3.6232Z" fill="#FED700"/>
<path d="M25.6472 3.98972L25.2072 5.68869C24.798 5.5421 24.3865 5.41042 23.9744 5.29392L24.2971 3.66817L25.6472 3.98972Z" fill="#FED700"/>
<path d="M26.3928 1.11312L25.6971 3.79906L22.6963 3.08448L23.0687 0.411133L23.649 0.486894L23.5305 1.44334L24.3184 1.57166L24.507 0.668952L25.0094 0.765162L24.8165 1.66261L25.5477 1.84641L25.7904 0.96297L26.3928 1.11312Z" fill="#FED700"/>
<path d="M31.0347 3.27368L29.8354 5.81611L27.2109 4.41193L28.2317 1.90234L28.6951 2.09145L28.3047 3.00343L28.9741 3.32636L29.4102 2.45949L29.7814 2.64608L29.3629 3.52477L30.109 3.92209L30.5607 3.05267L31.0347 3.27368Z" fill="#FED700"/>
<path d="M28.4259 5.28468L27.6794 6.77349C27.3342 6.59204 26.9333 6.39545 26.4844 6.19804L27.1364 4.59473L28.4259 5.28468Z" fill="#FED700"/>
<path d="M28.5977 5.37646L29.7513 5.99382L29.0151 7.55486C28.8424 7.4397 28.4396 7.18115 27.8516 6.86446L28.5977 5.37646Z" fill="#FED700"/>
<path d="M27.7252 10.2912L26.8464 12.1542C26.6766 12.0741 26.2709 11.8889 25.7021 11.6671L26.5443 9.62842C27.151 9.93701 27.5667 10.1911 27.7252 10.2912Z" fill="#FED700"/>
<path d="M26.37 9.54124L25.5204 11.5974C25.2465 11.4931 24.9401 11.3831 24.6084 11.2733C24.1484 11.1211 23.6041 10.9584 23.0059 10.8124L23.62 8.44603C24.2668 8.64319 24.8461 8.86185 25.3324 9.0665C25.7156 9.22775 26.0638 9.38972 26.37 9.54124Z" fill="#FED700"/>
<path d="M28.9309 7.73426L27.8088 10.1128C27.5306 9.93805 26.6509 9.40905 25.4109 8.88673C25.2293 8.81036 25.035 8.73189 24.8291 8.65353L25.6257 6.05518C25.859 6.14568 26.0914 6.24136 26.3203 6.34073L26.3515 6.3543C27.7437 6.96125 28.6792 7.56524 28.9309 7.73426Z" fill="#FED700"/>
<path d="M25.4441 5.98526L24.6469 8.58499C23.7808 8.26522 22.7295 7.95229 21.5798 7.76829L21.9389 5.0442C22.0634 5.06405 22.188 5.08551 22.312 5.10814L22.3283 5.11106L22.3336 5.11207C23.2924 5.28895 24.2635 5.55486 25.22 5.90221L25.2283 5.90516L25.2411 5.90987C25.3087 5.93448 25.3764 5.95967 25.4441 5.98526Z" fill="#FED700"/>
<path d="M23.4337 8.39074L22.8168 10.7675C21.8227 10.5356 20.6938 10.357 19.5635 10.3504V7.79837C20.9599 7.79918 22.294 8.05753 23.4337 8.39074Z" fill="#FED700"/>
<path d="M21.3705 3.19406L21.3022 4.75709C20.7198 4.68776 20.1358 4.6512 19.5635 4.64743V3.19406H21.3705Z" fill="#FED700"/>
<path d="M19.369 3.19385V4.64722C18.8257 4.65119 18.2644 4.688 17.6982 4.75704L17.6299 3.19385H19.369Z" fill="#FED700"/>
<path d="M21.4989 0.249512L21.379 2.99724H17.6216L17.5017 0.249512H18.1316L18.1634 1.07901L18.9909 1.05366L19.0175 0.249512H19.9831L20.0097 1.05366L20.8373 1.07901L20.869 0.249512H21.4989Z" fill="#FED700"/>
<path d="M15.9326 0.411285L16.3215 3.2021L13.3218 3.85748L12.6084 1.11327L13.2108 0.963123L13.4535 1.84656L14.1847 1.66276L13.9918 0.765315L14.4943 0.669104L14.683 1.57181L15.4707 1.44349L15.3522 0.487047L15.9326 0.411285Z" fill="#FED700"/>
<path d="M14.665 3.76514L15.0499 5.30488C14.6356 5.42393 14.2191 5.55914 13.8028 5.70949L13.3711 4.0481L14.665 3.76514Z" fill="#FED700"/>
<path d="M16.3487 3.39731L16.5633 4.93827C16.1253 5.02387 15.6824 5.12858 15.2371 5.25196L14.8552 3.72384L16.3487 3.39731Z" fill="#FED700"/>
<path d="M21.7468 5.01463L21.3876 7.73891C20.7975 7.6527 20.1832 7.60152 19.5565 7.60152C18.8885 7.60152 18.2155 7.6651 17.5609 7.76961L17.1328 5.03642C17.2964 5.00985 17.4584 4.98624 17.6182 4.96559C18.2455 4.88469 18.8673 4.84375 19.466 4.84375C20.082 4.84375 20.713 4.88274 21.3415 4.95964L21.3823 4.96478C21.5033 4.97997 21.625 4.99653 21.7468 5.01463Z" fill="#FED700"/>
<path d="M16.9418 5.06836L17.3697 7.80131C16.2706 7.99066 15.2306 8.28961 14.3636 8.58736L13.5076 6.02934C13.5949 5.99589 13.6823 5.96301 13.7693 5.93094L13.7777 5.92799C14.7538 5.56979 15.7318 5.29625 16.6846 5.11521V5.11501L16.6901 5.11404C16.7741 5.09808 16.858 5.08294 16.9418 5.06836Z" fill="#FED700"/>
<path d="M19.369 7.80029V10.351C18.1726 10.3608 17.0848 10.5057 16.1527 10.7013L15.54 8.42393C16.703 8.0933 18.043 7.8237 19.369 7.80029Z" fill="#FED700"/>
<path d="M12.4478 9.55499L13.3016 11.5773C12.709 11.8235 12.3127 12.0349 12.1433 12.1301L11.2107 10.1529C11.3833 10.0612 11.8233 9.83346 12.4478 9.55499Z" fill="#FED700"/>
<path d="M15.3538 8.47772L15.9631 10.7421C15.2403 10.9023 14.6175 11.091 14.1188 11.2654C13.8887 11.3459 13.6762 11.4262 13.482 11.5039L12.626 9.47632C12.9736 9.32459 13.3706 9.16084 13.8045 8.99749C14.2584 8.82669 14.7827 8.64581 15.3538 8.47772Z" fill="#FED700"/>
<path d="M10.7686 1.90244L11.7954 4.44567L9.15266 5.7898L7.96582 3.27377L8.43973 3.05276L8.89144 3.92218L9.63779 3.52486L9.21902 2.64617L9.59047 2.45958L10.0263 3.32645L10.696 3.00352L10.3054 2.09154L10.7686 1.90244Z" fill="#FED700"/>
<path d="M11.8686 4.62842L12.5137 6.22583C12.0635 6.424 11.6588 6.62079 11.3101 6.80127L10.5781 5.28473L11.8686 4.62842Z" fill="#FED700"/>
<path d="M10.4051 5.37283L11.1381 6.89172C10.56 7.19813 10.1583 7.44672 9.98615 7.5569L9.23633 5.96735L10.4051 5.37283Z" fill="#FED700"/>
<path d="M13.3264 6.09998L14.18 8.65112C14.026 8.70566 13.8781 8.75976 13.7368 8.81289C12.4073 9.31314 11.4211 9.8193 11.1269 9.9756L10.0703 7.73561C10.2397 7.6266 10.7074 7.33477 11.3961 6.97794C11.7448 6.79726 12.1502 6.5999 12.6022 6.40132C12.6274 6.39031 12.6527 6.3793 12.678 6.36828C12.8923 6.27535 13.1092 6.18562 13.3264 6.09998Z" fill="#FED700"/>
<path d="M34.4705 25.3695C34.5049 25.4357 35.1583 26.7675 33.9529 27.705C33.6348 27.9863 33.3208 28.109 32.9957 28.0783C32.2631 28.0102 31.6003 27.1622 31.0672 26.4797C31.0701 26.4763 31.0726 26.473 31.0756 26.4694L31.0296 26.4316C31.0243 26.4249 31.019 26.4185 31.0138 26.4117C30.694 26.0065 30.3278 25.6108 29.8307 25.415L29.8066 25.4095C29.0784 25.3477 28.67 25.633 28.4714 25.842C28.4829 25.4862 28.5869 24.8322 29.1772 24.6329C30.1432 24.3064 30.7075 24.6109 31.1351 25.1129C31.3437 25.3577 31.5197 25.6495 31.6937 25.9382C32.0624 26.5493 32.4113 27.124 33.0343 27.051C33.3103 27.0179 33.5246 26.8691 33.6228 26.6422C33.7385 26.3757 33.678 26.0345 33.4614 25.7298L33.4373 25.7072C32.878 25.3557 32.3248 25.3524 31.7471 25.6973C31.5891 25.4389 31.416 25.1715 31.2066 24.9422C32.2951 24.3843 33.6864 24.2178 34.4695 25.3683L34.4705 25.3695Z" fill="#FFD700"/>
<path d="M31.6872 34.0256C31.8963 35.2425 32.187 38.8116 28.698 39.7885C28.698 39.3036 28.6957 38.8325 28.6895 38.4277C29.8913 37.8021 31.1071 36.8929 30.5685 34.1701C30.5684 34.1687 30.568 34.1672 30.5677 34.1658C30.7449 33.8664 30.8518 33.5776 30.911 33.3847C31.0205 33.5455 31.2413 33.773 31.6872 34.0256Z" fill="#FFD700"/>
<path d="M31.5337 31.996C31.5805 31.986 31.6248 32.0145 31.6353 32.0606C31.8023 32.7964 32.0424 33.6195 32.7652 34.2151C32.452 33.6718 32.2497 33.0633 32.1862 32.4662C32.1736 32.3493 32.1635 32.2308 32.1532 32.1128C32.0977 31.4738 32.0454 30.8703 31.676 30.5984C31.2852 30.3111 30.5583 30.6614 30.5507 30.665L30.5468 30.6569L29.1913 31.1568L29.1991 31.1621C29.196 31.167 28.8705 31.662 28.8378 31.9438C28.8189 32.1033 28.8711 32.2028 28.9852 32.4211C29.1106 32.6612 29.3005 33.0238 29.5265 33.7213C29.6303 34.0413 29.6084 34.3819 29.5828 34.7763C29.5776 34.8505 29.573 34.9271 29.5683 35.0062C29.5992 34.9781 29.6304 34.9497 29.6625 34.9206C29.9079 34.6982 30.186 34.4456 30.3582 34.1796C30.3683 34.1639 30.3784 34.1484 30.3879 34.1326C30.4111 34.0952 30.4333 34.0578 30.454 34.0208C30.4771 33.9797 30.4988 33.939 30.5192 33.8988C30.7094 33.5251 30.7882 33.1962 30.803 33.1291L30.8016 33.0803L31.0026 32.9967L30.9741 33.1401C30.9848 33.1825 31.0738 33.4519 31.6434 33.8022C31.6748 33.8217 31.7078 33.8412 31.7423 33.8613C31.7734 33.879 31.8057 33.8969 31.8392 33.9152C32.024 34.0152 32.2477 34.1202 32.519 34.2271C31.8628 33.6127 31.6327 32.8158 31.4701 32.0993C31.4594 32.0529 31.488 32.0067 31.5337 31.996Z" fill="#FFD700"/>
<path d="M30.0928 25.7446L30.2756 25.8785C30.4902 26.052 30.6776 26.2638 30.8508 26.4809C30.7443 26.6241 30.6429 26.7796 30.5483 26.9447C29.7251 28.3957 30.3019 30.1047 30.4575 30.5066L29.2117 30.9662C29.1414 30.3811 28.8672 27.4599 30.1321 25.7762L30.0809 25.7368C30.085 25.7393 30.089 25.7421 30.0928 25.7446Z" fill="#FFD700"/>
<path d="M29.9949 51.8848C30.1594 52.3589 29.8534 52.8574 29.4717 53.3049C29.5144 52.9573 29.562 52.3831 29.5362 51.9292C29.5346 51.9064 29.5504 51.8556 29.589 51.8141C29.6275 51.773 29.676 51.7519 29.7381 51.7519C29.7385 51.7519 29.7385 51.7519 29.7385 51.7519C29.8129 51.7537 29.9283 51.8293 29.9949 51.8848Z" fill="#FFD700"/>
<path d="M27.942 52.718C27.9255 52.7391 27.9117 52.7597 27.9014 52.7799C27.8131 52.9528 27.7973 53.2782 27.8 53.5231L27.2112 52.632C27.2323 52.5891 27.2521 52.5431 27.2727 52.4954C27.3472 52.3232 27.4241 52.1453 27.5603 52.118C27.7041 52.1597 27.7862 52.4323 27.8468 52.6328C27.8581 52.67 27.8687 52.7058 27.8793 52.7389L27.942 52.718Z" fill="#FFD700"/>
<path d="M26.0854 50.4931C26.5492 50.9447 26.4793 51.4954 26.3197 51.9923C26.3 51.962 26.2781 51.9319 26.2523 51.902C26.2074 51.8652 26.1525 51.8536 26.098 51.8687C25.9476 51.9102 25.792 52.182 25.681 52.4235L25.6152 51.5238C25.6571 51.0623 25.8077 50.7251 26.0854 50.4931Z" fill="#FFD700"/>
<path d="M21.16 33.4517C20.8017 33.0219 20.7475 32.3386 20.7743 31.7974C20.7816 31.6472 20.7952 31.5081 20.8103 31.3882C20.6009 31.577 20.4383 31.8193 20.268 32.0727C20.1573 32.2372 20.0429 32.4075 19.9103 32.5698C19.7438 32.7737 19.5487 32.9654 19.2961 33.1189C18.9497 33.3294 18.4957 33.4682 17.8594 33.4682C17.8594 33.4682 17.8594 33.4682 17.8592 33.4682C17.7315 33.4682 17.5964 33.4627 17.4575 33.4515L17.1695 33.4285L17.4241 33.2899C18.4014 32.7582 18.9892 32.1435 19.1716 31.4632C19.3208 30.9053 19.2009 30.2848 18.8145 29.6181C18.1798 29.8849 17.5852 30.1933 17.4342 30.628C17.3665 30.8228 17.3929 31.0299 17.5149 31.2609C17.8565 31.5113 18.2649 31.3503 18.7429 30.7945L18.865 30.6526L18.8908 30.8391C18.9257 31.092 18.7551 31.6182 18.4541 31.9694C18.2653 32.1896 18.0569 32.2985 17.851 32.2806C17.1338 32.2648 16.8536 31.6331 16.5827 31.022C16.5157 30.8705 16.447 30.716 16.3713 30.5678C16.3717 30.5953 16.3721 30.6231 16.3725 30.6504C16.3812 31.3752 16.3888 32.001 16.989 32.7729L17.1918 33.0339L16.8897 32.9056C16.6603 32.8083 16.4769 32.7007 16.3277 32.5824C15.5289 32.6751 13.8043 32.9998 13.2967 33.2683C13.2519 33.2919 13.2418 33.3564 13.2276 33.4682C13.2168 33.5552 13.2042 33.6538 13.162 33.7528L13.1341 33.8183L13.0654 33.8028C12.9784 33.7827 12.8847 33.7518 12.7902 33.7203C12.5965 33.6559 12.3761 33.5833 12.2713 33.6453C12.0369 33.8028 11.8913 33.9806 11.7741 34.1237C11.6695 34.2516 11.5826 34.3642 11.4664 34.4104L10.498 35.1658L10.5122 35.1785L10.4175 35.2397C10.2541 35.3454 9.963 35.5542 9.69847 35.7916L9.70526 35.7937C9.61542 36.0807 9.61698 36.3162 9.70898 36.4937C9.79338 36.6571 9.95833 36.7795 10.1989 36.858C10.2915 36.819 10.3994 36.8013 10.5003 36.811C10.5921 36.8192 10.6721 36.8491 10.7333 36.8967C10.6753 35.833 11.2307 35.639 11.6452 35.4941C11.6976 35.4759 11.7488 35.4581 11.7976 35.4392C11.8408 35.4219 11.8903 35.4442 11.9072 35.4884C11.9241 35.5327 11.9023 35.5825 11.8587 35.5995C11.808 35.6195 11.7549 35.638 11.7007 35.6569C11.2433 35.8165 10.7706 35.9816 10.928 37.1498C11.0097 37.2754 11.0933 37.4157 11.1611 37.5292C11.1917 37.5804 11.2251 37.6364 11.2474 37.6719L11.6922 37.6741C11.7233 37.6826 11.7534 37.6922 11.7821 37.703C11.6901 37.5192 11.4712 37.0241 11.6334 36.7574C11.7532 36.5612 11.8841 36.4618 12.0235 36.4618H12.0269C12.1129 36.4629 12.2389 36.5045 12.3501 36.6968C12.4498 36.8685 12.5127 37.0815 12.5517 37.261C12.6244 37.1487 12.7452 37.0504 12.8618 36.9554C12.9788 36.8603 13.1001 36.7619 13.1543 36.6622C13.2111 36.5578 13.2096 36.3937 13.2082 36.2351C13.2066 36.0401 13.2049 35.8381 13.3025 35.69C13.4968 35.3944 14.213 35.1045 14.2943 35.0724L14.2947 35.074C14.3861 35.0476 14.7822 35.0488 17.1019 35.0804C17.2621 35.0826 17.4314 35.0849 17.6106 35.0875C18.6804 35.1023 19.7807 35.1178 20.5882 35.1232C20.7552 35.1242 20.9097 35.1249 21.0488 35.1251C21.0493 35.1251 21.0493 35.1251 21.0493 35.1251C21.1649 35.1251 21.308 34.9374 21.4317 34.6231C21.4491 34.5681 21.4785 34.2427 21.5157 33.7313C21.3795 33.6658 21.2608 33.5726 21.16 33.4517ZM11.1366 35.2715C10.7371 35.3829 10.5531 35.7146 10.3538 36.1363C10.3395 36.167 10.3088 36.1848 10.2774 36.1848C10.2651 36.1848 10.2525 36.1823 10.2407 36.1766C10.1985 36.1561 10.1805 36.1048 10.2009 36.0619C10.3722 35.6985 10.5857 35.2465 11.0916 35.1054C11.1376 35.093 11.1836 35.1198 11.196 35.1656C11.2084 35.2115 11.1818 35.2587 11.1366 35.2715ZM15.733 34.206C15.2772 34.1751 14.8061 34.1423 14.3554 34.2379C14.2869 34.2476 14.1175 34.3826 13.9961 34.5026C13.9798 34.5189 13.9582 34.5268 13.9369 34.5268C13.9148 34.5268 13.8928 34.5182 13.876 34.5008C13.8434 34.467 13.8441 34.4125 13.8777 34.3792C13.946 34.3115 14.1813 34.0883 14.3268 34.0684C14.7943 33.9689 15.2775 34.0023 15.7445 34.0342C16.228 34.0677 16.6838 34.0987 17.1356 33.9964C17.2662 33.9549 17.5151 33.7486 17.5995 33.6731C17.6347 33.6412 17.6882 33.6446 17.7193 33.6804C17.7506 33.716 17.7472 33.7703 17.7121 33.8017C17.6783 33.8323 17.3758 34.1003 17.1792 34.1625C16.6969 34.2722 16.2071 34.2383 15.733 34.206Z" fill="#FFD700"/>
<path d="M15.5793 24.5541C16.4732 24.4512 18.8767 24.6061 19.2181 24.6504C19.2154 24.721 19.1827 24.7981 19.1341 24.8698C19.0898 24.8639 18.9713 24.857 18.8329 24.8429C18.1527 24.7726 16.5603 24.6089 15.7092 24.7267C15.532 24.7512 15.4224 24.8155 15.3165 24.8775C15.2367 24.9243 15.1602 24.9692 15.0527 24.9962C15.1177 24.611 15.5743 24.5547 15.5793 24.5541Z" fill="#FFD700"/>
<path d="M18.5287 16.5256L18.5543 18.7962L16.7861 20.7032L15.9677 19.9005L16.8953 18.2218L15.2743 19.1743L14.4482 18.3635L16.2675 16.5185L18.5287 16.5256Z" fill="#FFD700"/>
<path d="M17.3705 49.889C17.4994 50.1818 17.1004 50.8216 16.8964 51.0877C16.8516 50.7065 16.8011 50.0565 16.8952 49.8229C16.9218 49.7566 16.9775 49.7229 17.061 49.7229C17.1962 49.723 17.3359 49.8105 17.3705 49.889Z" fill="#FFD700"/>
<path d="M16.4447 18.6855L15.8346 19.7889L14.516 21.3187L15.0933 21.8737L14.6287 22.3446L14.0159 21.8162L12.3486 23.5541L11.7598 23.0665L13.4613 21.2872L12.9135 20.6925L13.3206 20.2554L13.8686 20.7798L15.3879 19.3064L16.4447 18.6855Z" fill="#FFD700"/>
<path d="M27.176 31.9504C26.8277 31.9504 26.6079 31.7064 26.5778 31.4765C26.4648 30.6106 26.5219 29.5792 26.5822 28.4869C26.6724 26.8545 26.766 25.1665 26.3298 23.7315C25.5493 21.1644 24.1544 20.7811 23.3925 20.7811C23.1076 20.7811 22.9223 20.8359 22.9204 20.8365L22.8414 20.8606L22.8156 20.7811C22.7467 20.5685 22.5251 19.9893 22.3303 19.8605C22.1932 19.77 22.0489 19.7241 21.9008 19.7241C21.6378 19.7241 21.4337 19.8662 21.3307 19.9992C20.9387 20.5038 20.8851 20.8086 20.8923 20.8627L20.8265 20.8779L20.8923 20.9285L20.8678 20.9719L20.7672 20.9768L20.7656 20.9743C20.7528 20.9745 20.7381 20.9745 20.7215 20.9745L20.2996 20.9731C19.4303 20.9731 19.1665 21.0127 19.0985 21.0457C18.9828 21.1023 18.8547 21.4226 18.8009 21.6318L18.7833 21.7011L18.7129 21.6962C18.7103 21.696 18.4379 21.6773 18.0989 21.6773C17.2022 21.6773 16.8325 21.8062 16.7851 21.9272C16.7042 22.1347 16.7176 22.2012 16.7273 22.2201C16.7358 22.2368 16.764 22.2452 16.8092 22.2568C16.8736 22.2736 16.9621 22.2962 17.0001 22.3926L17.0131 22.4257L16.9992 22.4584C16.8348 22.8481 16.7331 23.7028 16.8264 23.9102C16.8369 23.9334 16.8843 23.9726 17.0822 23.9726C17.2022 23.9726 17.3535 23.9586 17.5132 23.9443C17.7119 23.9259 17.9366 23.9057 18.1606 23.9057C18.4468 23.9057 18.681 23.9396 18.877 24.0094C19.0893 24.085 19.3134 24.2806 19.3726 24.5187C19.3827 24.5577 19.388 24.598 19.388 24.639C19.3886 24.7744 19.3208 24.9165 19.2236 25.0346C19.1204 25.1595 18.9841 25.2578 18.8611 25.2928C18.5434 25.3827 18.0635 25.3963 17.806 25.3963C17.4742 25.3963 17.1397 25.3745 16.9002 25.3381C16.932 26.0356 16.991 26.5066 17.0851 26.8152C17.1138 26.9103 17.4461 26.9743 17.7379 26.9743H17.7447C17.7575 26.9691 17.7719 26.9672 17.7868 26.969C17.8012 26.9709 17.8153 26.9727 17.8297 26.9743H17.9568L17.9455 26.9849C18.8256 27.0449 19.7532 26.6401 20.3475 25.9265C20.8259 25.3522 20.9864 24.6971 20.7992 24.0817C20.7854 24.036 20.8106 23.988 20.8552 23.9738C20.901 23.9614 20.9476 23.9854 20.9615 24.0307C21.163 24.6945 20.9866 25.426 20.4771 26.0375C19.8896 26.743 18.993 27.1626 18.1169 27.1626C18.0033 27.1626 17.8904 27.1555 17.7784 27.1411C17.1737 27.7012 16.5225 28.3469 15.925 29.1195C15.6401 29.4883 15.3675 29.8859 15.1181 30.3167C15.0286 30.4708 14.9425 30.6292 14.8596 30.7921C14.815 30.9195 14.7997 31.0643 14.7831 31.2174C14.7597 31.4348 14.7354 31.6598 14.6135 31.8838C14.5099 32.0745 14.2499 32.2289 14.0479 32.326C14.2109 32.3543 14.416 32.3834 14.5743 32.3834C14.7003 32.3834 14.7451 32.365 14.7587 32.3569C15.017 32.2038 15.1225 31.8944 15.282 31.4263C15.341 31.254 15.4066 31.0622 15.4893 30.8498L15.5791 30.619L15.7171 31.0913C15.8766 31.6471 15.9923 32.0505 16.3373 32.3685C16.3588 32.3884 16.3812 32.4079 16.4046 32.427C16.4277 32.4461 16.4518 32.4646 16.4768 32.4831C16.496 32.4339 16.4976 32.3677 16.4838 32.282C16.3734 32.0476 16.3075 31.8216 16.2675 31.5993C16.2106 31.2816 16.2067 30.9711 16.2028 30.6529C16.2013 30.5169 16.1995 30.3789 16.1937 30.2378L16.1807 29.9279L16.3491 30.1868C16.504 30.4248 16.6228 30.6924 16.7376 30.9516C17.0095 31.5653 17.2447 32.0954 17.86 32.1093C17.8748 32.11 17.8845 32.1106 17.894 32.1106C17.894 32.1106 17.894 32.1106 17.8942 32.1106C18.0716 32.1106 18.227 31.9724 18.3264 31.8565C18.5144 31.6371 18.6539 31.3236 18.705 31.0877C18.2206 31.5737 17.7692 31.6722 17.398 31.3878L17.3751 31.3606C17.2231 31.0814 17.189 30.8159 17.2742 30.5712C17.4529 30.057 18.1216 29.7193 18.8177 29.431L18.8847 29.4032L18.9223 29.4658C19.3634 30.1985 19.5023 30.8857 19.3355 31.5088C19.1573 32.1734 18.6281 32.7736 17.7603 33.2956C17.7939 33.2963 17.8269 33.2967 17.8593 33.2967H17.8595C19.2402 33.2965 19.6913 32.6253 20.1278 31.9762C20.3493 31.6465 20.5586 31.3354 20.8779 31.1176L21.0417 31.0062L21.0089 31.2035C20.9933 31.297 20.9713 31.45 20.9561 31.6352C20.9147 32.1474 20.9281 32.9073 21.2898 33.341C21.3595 33.4246 21.4391 33.4927 21.5292 33.5453C21.5555 33.5606 21.5827 33.5747 21.611 33.5872C21.6374 33.5992 21.6646 33.6098 21.6928 33.6195C21.8472 33.6718 22.0262 33.6882 22.23 33.6677C22.709 33.5457 22.8329 32.9177 22.865 32.5977C22.5665 32.8276 22.3139 32.9441 22.1122 32.9441C21.9469 32.9441 21.8223 32.8654 21.754 32.7254C21.7199 32.6562 21.6997 32.5722 21.695 32.4751C21.6933 32.4408 21.6937 32.4054 21.6956 32.3691C21.704 32.2244 21.7418 32.0648 21.8062 31.9038C22.0245 31.3582 22.5492 30.7939 23.2773 30.7212L23.3756 30.7118L23.3703 30.8116C23.3697 30.8265 23.2944 32.2896 23.4537 33.1946C23.5943 33.4816 23.7639 33.6333 23.9449 33.6333C24.1118 33.6333 24.2896 33.4966 24.4092 33.2767C24.5149 33.0817 24.5886 32.7849 24.5007 32.5153C24.4913 32.5379 24.4821 32.5603 24.4728 32.5824C24.3585 32.8569 24.2506 33.1163 24.0078 33.1163C23.9083 33.1163 23.7988 33.0695 23.6733 32.9728L23.6492 32.9439C23.4831 32.6188 23.6467 32.2925 23.8735 31.8409C24.071 31.4467 24.342 30.9069 24.5145 30.1372L24.5638 29.9171L24.6715 30.1147C24.7174 30.199 24.7472 30.3084 24.7673 30.4369C24.7985 30.6343 24.8069 30.8764 24.816 31.1401C24.8236 31.3557 24.8314 31.5803 24.852 31.7958C24.8691 31.9738 24.8948 32.1459 24.9367 32.3015C25.0068 32.5635 25.122 32.7792 25.3159 32.9C25.3679 32.9322 25.5117 32.9866 25.8909 32.9866C25.988 32.9866 26.0822 32.983 26.1623 32.9783C25.9336 32.8073 25.5705 32.5131 25.4634 32.2995C25.1602 31.6946 25.1709 31.1437 25.5016 30.3353L25.5795 30.1446L25.6582 30.3346C25.7514 30.5602 25.7842 30.8058 25.816 31.0434C25.8725 31.4653 25.9214 31.8298 26.2704 32.027C26.4333 32.1192 26.6227 32.2174 26.8082 32.2174C26.9806 32.2174 27.1302 32.1281 27.2623 31.9459C27.2333 31.9491 27.2044 31.9504 27.176 31.9504ZM19.9366 25.2695C19.9138 25.4105 19.6866 25.5046 19.5898 25.5387C19.5805 25.5418 19.5713 25.5434 19.562 25.5434C19.5271 25.5434 19.4941 25.5211 19.4819 25.4853C19.4667 25.4404 19.49 25.3916 19.5343 25.3759C19.6426 25.3379 19.7568 25.2716 19.7697 25.2391C19.8256 24.8913 19.8502 24.3795 19.7709 24.0829C19.7553 24.0247 19.6249 23.9012 19.5128 23.82C19.4747 23.7924 19.4658 23.7387 19.4929 23.6999C19.5201 23.6616 19.5734 23.6525 19.6113 23.6798C19.6585 23.7141 19.8956 23.8918 19.9346 24.0378C20.0334 24.407 19.9822 24.9857 19.9366 25.2695ZM20.1388 21.9774C19.9515 22.0893 19.8222 22.1789 19.7187 22.2509C19.5343 22.3786 19.4328 22.4491 19.2721 22.4491C19.2483 22.4491 19.2231 22.4474 19.196 22.4442C19.113 22.4342 19.0422 22.3694 19.0012 22.2667C18.9469 22.1301 18.9469 21.9229 19.0523 21.7918L19.0695 21.7703L19.0955 21.7629C19.239 21.7235 19.3657 21.7355 19.6569 21.7693C19.7738 21.7831 19.9183 21.7998 20.1035 21.8174L20.3647 21.8421L20.1388 21.9774ZM21.4366 20.5901C21.4415 20.5431 21.4791 20.5055 21.53 20.5137C22.3508 20.6027 22.3743 21.1459 22.4015 21.7752C22.4036 21.8227 22.3673 21.8628 22.3205 21.865H22.3169C22.2716 21.865 22.234 21.8289 22.2321 21.7829C22.202 21.0908 22.1589 20.7548 21.5119 20.6848C21.4653 20.6797 21.4318 20.6376 21.4366 20.5901ZM21.9103 30.1625C21.8816 30.1865 21.8518 30.2099 21.821 30.2327C21.7923 30.2541 21.7628 30.275 21.7323 30.2953C21.4471 30.486 21.0824 30.6332 20.618 30.7139C20.4109 30.8245 20.1818 30.9269 19.9304 31.0205C19.8834 31.053 19.8527 31.0729 19.8465 31.0768C19.8325 31.0859 19.8168 31.0902 19.8011 31.0902C19.7732 31.0902 19.7458 31.0764 19.7297 31.0504C19.7042 31.0103 19.7161 30.9573 19.7557 30.9318C19.7562 30.9314 19.7603 30.9288 19.7673 30.9241C19.7764 30.904 19.7933 30.8875 19.8157 30.8793C19.8281 30.8747 19.8404 30.8702 19.8527 30.8659C20.0763 30.7088 20.6167 30.3021 20.7155 29.9698C20.7875 29.7272 20.4283 29.2409 20.1657 28.8855L20.1337 28.8424C19.9008 28.5263 19.914 28.3109 19.9247 28.1377C19.9294 28.0621 19.9335 27.9968 19.9144 27.9352C19.9008 27.8895 19.9259 27.8415 19.9707 27.8273C20.0169 27.8149 20.0629 27.8389 20.0768 27.8842C20.1045 27.9761 20.0993 28.0639 20.0941 28.1483C20.0842 28.3085 20.0742 28.4742 20.2696 28.7391L20.3015 28.7826C20.6171 29.2096 20.9747 29.6936 20.878 30.0197C20.8189 30.2184 20.6381 30.4298 20.4438 30.611C20.4671 30.5994 20.49 30.5876 20.5128 30.5756C20.5252 30.562 20.5419 30.5522 20.5613 30.549C20.5618 30.5488 20.5626 30.5488 20.5632 30.5486C21.146 30.2329 21.5355 29.8492 21.7247 29.4034C21.7531 29.3363 21.7765 29.2694 21.7953 29.2027C21.8293 29.0826 21.8483 28.9636 21.856 28.8475C21.8657 28.7036 21.8578 28.5641 21.8386 28.4318C21.7875 28.0723 21.6548 27.7669 21.5714 27.5748L21.5412 27.5046C21.5228 27.4607 21.5428 27.4101 21.5859 27.3916C21.629 27.3727 21.6786 27.393 21.6971 27.4366L21.7268 27.5053C21.7661 27.596 21.8193 27.7184 21.87 27.8649C21.8952 27.9375 21.9199 28.016 21.9418 28.0994C21.9695 28.2042 21.9932 28.3167 22.0085 28.4348C22.041 28.6808 22.038 28.9512 21.9639 29.2279C21.9424 29.3088 21.9148 29.3901 21.8802 29.4715C21.8744 29.4851 21.8686 29.4987 21.8624 29.5121C21.8342 29.5745 21.8024 29.6355 21.7671 29.6955C21.611 29.9602 21.3854 30.2013 21.0918 30.4176C21.3521 30.3282 21.5674 30.2117 21.7452 30.0757C21.7759 30.0521 21.8058 30.0279 21.8342 30.0031C21.8656 29.9762 21.8955 29.9484 21.9243 29.92C22.7325 29.1234 22.5451 27.8495 22.46 27.2727C22.4207 27.0051 22.4058 26.9047 22.51 26.8817C22.5563 26.8703 22.6007 26.9011 22.611 26.9472C22.6162 26.9708 22.6113 26.9942 22.5992 27.0129C22.5992 27.0533 22.614 27.1517 22.6279 27.2475C22.7131 27.8266 22.932 29.3129 21.9103 30.1625ZM23.7393 28.9267C23.7242 28.9559 23.6946 28.9722 23.6644 28.9722C23.651 28.9722 23.6372 28.9691 23.6244 28.962C23.583 28.9397 23.5675 28.8876 23.5897 28.8457C24.2303 27.6304 23.652 26.6474 23.646 26.6376C23.6217 26.5972 23.6341 26.5441 23.674 26.5191C23.7135 26.4947 23.7662 26.5067 23.7909 26.5476C23.8169 26.591 24.4253 27.6253 23.7393 28.9267Z" fill="#FFD700"/>
<path d="M15.2606 50.6327L15.2251 50.7786C15.1595 51.0416 15.1347 51.1408 15.0876 51.6901C14.818 51.3198 14.6154 50.9612 14.4961 50.7335C14.5964 50.3604 14.7625 50.0207 14.8467 50.0175C14.9523 50.0155 15.1382 50.3221 15.2606 50.6327Z" fill="#FFD700"/>
<path d="M31.8827 50.4013C31.8368 49.913 31.7887 49.4079 31.7975 48.8771C31.8055 48.3627 31.8266 47.8632 31.8472 47.38C31.9006 46.1209 31.9468 45.0336 31.6927 44.7764C31.6576 44.7409 31.6175 44.7246 31.5699 44.7276L31.4973 44.7309L31.4832 44.6587C31.372 44.529 29.9387 44.4903 29.4696 44.615L29.4238 44.627L29.3894 44.5941C28.6833 43.912 28.5102 43.203 28.5031 43.1728C28.5019 43.1344 28.5258 41.539 28.5285 40.0108V39.9223C28.5287 39.8925 28.5287 39.863 28.5287 39.8335C28.5289 39.3663 28.5272 38.9113 28.5217 38.5157C28.5212 38.483 28.5209 38.451 28.5203 38.4191C28.5198 38.3864 28.5194 38.3541 28.5188 38.3225C28.5155 38.1407 28.5114 37.9747 28.5063 37.8301C28.3834 37.2395 27.4899 36.7306 26.6256 36.2382C25.6782 35.698 24.7831 35.1882 24.7667 34.5162L24.7668 32.3254C24.6745 31.9664 24.6597 31.5417 24.646 31.1456C24.6376 30.9033 24.6295 30.6693 24.6024 30.4834C24.4288 31.1121 24.1985 31.5708 24.0242 31.9184C23.8105 32.3444 23.6794 32.6054 23.791 32.8472C23.8777 32.9112 23.9507 32.9439 24.0073 32.9439C24.1373 32.9439 24.2202 32.7452 24.316 32.5148C24.349 32.4354 24.3836 32.3531 24.422 32.273L24.4889 32.1344L24.57 32.2645C24.7589 32.5672 24.7539 32.997 24.5573 33.3589C24.4056 33.6381 24.1767 33.8048 23.9444 33.8048C23.7682 33.8051 23.5128 33.7102 23.2955 33.2589L23.2881 33.2365C23.1458 32.4426 23.181 31.2612 23.1957 30.9052C22.2915 31.0564 21.8414 31.9992 21.864 32.4662C21.8707 32.6053 21.9192 32.7716 22.1117 32.7716C22.2448 32.7716 22.4906 32.6971 22.9055 32.3432L23.0437 32.2254L23.0451 32.4084C23.0455 32.4586 23.0451 33.637 22.2584 33.8366C22.1839 33.8447 22.1239 33.8478 22.0666 33.8478C22.0666 33.8478 22.0666 33.8478 22.0665 33.8478C21.927 33.8478 21.7975 33.8301 21.6791 33.7947C21.6407 34.3046 21.6091 34.6361 21.5889 34.6871C21.4294 35.0917 21.2475 35.297 21.0488 35.297H21.0484C20.9368 35.2968 20.8156 35.2964 20.6857 35.2957C20.7211 35.4476 20.7699 35.5869 20.832 35.7161C20.9281 35.9171 21.0554 36.0929 21.2101 36.2506C21.3562 36.3995 21.5266 36.5322 21.7184 36.6547C21.949 36.8024 22.2105 36.9354 22.4971 37.0641C22.5398 37.0833 22.5592 37.1341 22.5403 37.1774C22.5262 37.2097 22.4951 37.2286 22.4628 37.2286C22.4511 37.2286 22.4394 37.2264 22.4284 37.2215C22.1769 37.1086 21.9285 36.9858 21.6971 36.8431L21.2272 37.3757C21.2105 37.3945 21.1872 37.4042 21.1642 37.4042C21.144 37.4042 21.1235 37.3971 21.1075 37.3823C21.0727 37.3507 21.0697 37.2963 21.1008 37.2609L21.5518 36.7494C21.4084 36.6524 21.2733 36.5461 21.1501 36.4279L20.5875 36.9712C20.5712 36.987 20.5501 36.9946 20.5291 36.9946C20.5066 36.9946 20.4843 36.9858 20.4676 36.9681C20.4354 36.9336 20.4366 36.8791 20.4708 36.8462L21.0306 36.3055C20.9163 36.1795 20.815 36.0408 20.7304 35.8869L20.1837 36.4148C20.1674 36.4306 20.1464 36.4385 20.1253 36.4385C20.1028 36.4385 20.0805 36.4296 20.0638 36.4117C20.0315 36.3775 20.0327 36.323 20.0666 36.2901L20.6508 35.7261C20.5995 35.6102 20.557 35.4861 20.5249 35.3531L19.7449 35.9811C19.7292 35.9935 19.7106 35.9996 19.6921 35.9996C19.6671 35.9996 19.6423 35.9884 19.6256 35.9671C19.5965 35.9299 19.6025 35.8756 19.6392 35.8461L20.3261 35.2933C19.5507 35.2868 18.5672 35.2731 17.6078 35.2597C17.4477 35.2575 17.287 35.2552 17.1275 35.253C17.7496 37.5746 19.3073 37.9859 22.1314 37.9584L22.1654 37.9578L22.1898 37.981C22.3183 38.1011 22.7276 38.5128 22.6067 38.7647L22.5847 38.8103L22.5348 38.8129C17.5008 39.0849 17.3562 39.1372 15.974 39.6371C15.8117 39.6959 15.6324 39.7607 15.4265 39.8326C15.3194 39.8701 15.203 39.8893 15.0905 39.9083C14.8077 39.9551 14.5409 39.9997 14.3358 40.2973C14.1046 40.6324 14.3385 41.1126 14.3907 41.2107L15.1025 41.6501L15.1108 41.6763C15.6858 41.3185 15.673 41.1888 15.6359 40.8231L15.6255 40.7136C15.6212 40.6663 15.6557 40.6244 15.7023 40.6201C15.7539 40.614 15.79 40.6512 15.7943 40.6982L15.8048 40.8057C15.8482 41.2368 15.8391 41.4305 15.1656 41.8441C15.3294 42.3374 15.8389 43.8121 16.2624 44.3868C16.47 44.6684 16.8341 44.8816 17.2195 45.1069C17.7387 45.4109 18.2759 45.7251 18.4482 46.2422L18.4544 46.2607L18.4521 46.2802C18.3722 46.9558 17.7071 47.654 17.162 48.047L17.1317 48.0608C16.8331 48.1299 16.5424 48.1503 16.261 48.17C15.9005 48.1954 15.5599 48.2192 15.2114 48.3381C15.0544 48.3914 14.8648 48.2869 14.6645 48.1757C14.5124 48.0917 14.355 48.0045 14.2331 48.001C14.069 48.0067 13.7059 48.1776 13.5594 48.2598C13.5485 48.2758 13.5378 48.2915 13.5273 48.3072L13.5287 48.3082L13.6774 48.2251C14.0024 48.8253 13.8675 49.7753 13.7938 50.1213C13.8334 50.1533 13.8662 50.1831 13.8877 50.2035L13.9953 50.2618C14.2831 49.2537 14.9826 48.7488 16.131 48.7188C16.1762 48.7147 16.2168 48.7549 16.218 48.8025C16.2192 48.8501 16.1823 48.8894 16.1353 48.8906C15.0432 48.9194 14.4104 49.3817 14.1484 50.3446L14.362 50.4602L14.3739 50.4868C14.3743 50.4875 14.378 50.4957 14.3852 50.5107C14.4719 50.2434 14.6338 49.8528 14.8412 49.8455C14.8433 49.8453 14.8456 49.8453 14.848 49.8453C15.11 49.8453 15.3376 50.3589 15.4245 50.5839C15.455 50.5809 15.4849 50.5779 15.5142 50.5748C15.7317 50.5525 15.9198 50.5334 16.0998 50.5962C16.2623 50.6527 16.3977 50.7979 16.5285 50.9382C16.5951 51.0097 16.6628 51.0825 16.7319 51.1398C16.6923 50.8143 16.6179 50.0556 16.7379 49.7577C16.7909 49.626 16.9084 49.5504 17.0608 49.5504C17.2518 49.5504 17.4603 49.6707 17.5252 49.8187C17.6121 50.0157 17.5537 50.3089 17.3522 50.6903C17.2707 50.8446 17.1063 51.1067 16.9798 51.2541C17.231 51.2664 17.5948 51.0349 17.7914 50.8609C17.9546 50.717 18.0132 50.4829 18.0701 50.2566C18.1108 50.0944 18.1529 49.9267 18.2344 49.7938C18.8653 48.7672 20.7952 46.7013 20.8771 46.614L20.9019 46.5872H20.9382C21.1645 46.5861 21.7859 46.5396 21.944 46.3401C22.0333 46.2273 22.0432 45.9713 21.9917 45.8347C21.8439 45.4391 21.3854 45.1638 20.9424 44.8973C20.658 44.7263 20.3892 44.5647 20.2049 44.3745C20.173 44.3416 20.1465 44.3252 20.1229 44.3105C19.9772 44.2208 19.9802 44.2066 20.1358 43.4715L20.1581 43.3651L20.1825 43.3459C20.6475 42.9788 22.5452 42.0847 22.7858 42.2214C23.0505 42.3706 23.2188 42.7217 23.4138 43.1285C23.7384 43.8057 24.1423 44.6483 25.1766 45.11C25.3648 45.1936 25.338 45.3876 25.3121 45.5747C25.2816 45.7973 25.2469 46.0488 25.458 46.291C25.8268 46.4467 26.2224 46.4251 26.6048 46.4048C26.9338 46.3867 27.2445 46.3706 27.5172 46.468C27.8365 46.6711 28.2278 46.7966 28.6062 46.918C28.9964 47.0434 29.3653 47.1615 29.6199 47.3487L29.6403 47.3634L29.683 47.4744C29.9526 48.175 30.2881 49.047 30.0496 49.8638C30.0006 50.0304 29.8093 49.9865 29.67 49.9541C29.596 49.9371 29.4726 49.9086 29.4428 49.9348C29.4151 49.9598 29.4216 50.057 29.4263 50.1279C29.4342 50.2479 29.4434 50.3841 29.3494 50.464C29.192 50.5975 28.9716 50.511 28.7765 50.4347C28.6261 50.3758 28.4699 50.3144 28.3985 50.3727C28.3826 50.399 28.3951 50.5333 28.4001 50.5906C28.4114 50.71 28.4183 50.7887 28.3502 50.8253C28.3321 50.8344 28.2856 50.8521 28.23 50.8057C27.8076 50.4471 27.1112 50.1659 26.9495 50.1366L26.9224 50.1415C26.6427 50.1923 26.4114 50.2743 26.225 50.3914C26.7731 50.9468 26.6276 51.6326 26.4379 52.1701L26.4096 52.1598C26.4127 52.1666 26.4158 52.1731 26.4189 52.1795C26.4807 52.3096 26.535 52.4243 26.644 52.4852C26.6392 52.4704 26.6384 52.4541 26.6423 52.4377C26.9154 51.3199 27.6005 51.195 28.3258 51.0629C28.4284 51.0442 28.5324 51.0253 28.6376 51.0033C28.6851 50.9942 28.7284 51.0236 28.7379 51.07C28.7474 51.1164 28.7182 51.1621 28.6722 51.1717C28.5654 51.194 28.4599 51.2134 28.3557 51.2321C27.6283 51.3648 27.0537 51.4693 26.8071 52.479C26.802 52.4991 26.7908 52.5156 26.7756 52.5273C26.8508 52.5375 26.9439 52.5316 27.0625 52.5052L27.0846 52.5003C27.0953 52.4765 27.1062 52.4515 27.1172 52.4261C27.204 52.2252 27.3124 51.9747 27.5526 51.9447L27.566 51.9429L27.579 51.9457C27.8311 51.9939 27.9295 52.32 28.0087 52.5821L28.0238 52.6311C28.2314 52.4426 28.6099 52.2637 28.8055 52.2889C29.0931 52.3247 29.1395 52.5847 29.1845 52.8362C29.2095 52.9773 29.237 53.1305 29.3044 53.2698C29.3434 52.9421 29.3915 52.3907 29.3659 51.939C29.3617 51.8607 29.4004 51.7652 29.4653 51.6959C29.5349 51.621 29.63 51.5799 29.7327 51.5799C29.9102 51.5836 30.1012 51.7503 30.1223 51.7692L30.1454 51.8031C30.3407 52.3228 30.0668 52.8412 29.6909 53.3072C29.7445 53.2897 29.7968 53.2743 29.8471 53.2596C30.0529 53.1994 30.2302 53.1473 30.3292 53.0157C30.3629 52.9703 30.3828 52.8732 30.4017 52.7798C30.4341 52.619 30.4679 52.4531 30.594 52.387C30.7791 52.2898 30.9509 52.3185 31.1323 52.3489C31.3534 52.3861 31.582 52.4237 31.8932 52.2467C32.0058 51.7049 31.9458 51.0712 31.8827 50.4013ZM17.807 49.2408C17.7952 49.2865 17.7492 49.3151 17.7032 49.3019C17.1352 49.1497 16.6972 49.154 16.4362 49.3148C16.3002 49.3989 16.2125 49.5262 16.1754 49.6932C16.1665 49.733 16.1313 49.7601 16.0925 49.7601C16.0865 49.7601 16.0803 49.7595 16.0739 49.7582C16.0281 49.7475 15.9996 49.7016 16.0097 49.6552C16.0572 49.4409 16.1711 49.2768 16.3483 49.1678C16.6542 48.9796 17.1245 48.9684 17.7468 49.1357C17.7921 49.1477 17.819 49.1948 17.807 49.2408ZM18.9663 45.3306C18.956 45.3687 18.9219 45.3938 18.8844 45.3938C18.8772 45.3938 18.8697 45.3928 18.8619 45.3908C18.1334 45.1884 17.6853 44.4976 17.2518 43.8298C17.1955 43.7432 17.1394 43.6565 17.0826 43.5708C17.0562 43.5312 17.0667 43.4777 17.1055 43.4514C17.1441 43.4245 17.1969 43.4351 17.2231 43.4746C17.2803 43.561 17.337 43.648 17.3936 43.7352C17.8287 44.4058 18.2399 45.0396 18.9069 45.2247C18.9521 45.2375 18.9787 45.2847 18.9663 45.3306ZM23.168 39.4715C21.9583 40.1579 20.5817 40.9831 19.5524 42.0893C19.5355 42.1072 19.513 42.1161 19.4905 42.1161C19.4697 42.1161 19.4485 42.1084 19.4323 42.0928C19.3981 42.0602 19.3965 42.0057 19.4287 41.9712C20.4745 40.8471 21.8646 40.0141 23.0852 39.3213C23.1253 39.2985 23.1774 39.3128 23.2006 39.3544C23.2234 39.3959 23.2089 39.4483 23.168 39.4715ZM28.5089 45.7035C28.4931 45.7301 28.465 45.745 28.4363 45.745C28.4213 45.745 28.4062 45.7411 28.3926 45.7328C28.3827 45.7268 28.3728 45.7209 28.3629 45.7145C28.3585 45.7153 28.354 45.7157 28.3496 45.7157C28.3271 45.7157 28.3043 45.7064 28.2879 45.6885C28.2729 45.6724 28.2579 45.6565 28.243 45.6403C26.2075 44.3676 25.3229 43.1076 25.6124 41.8929C25.6232 41.8466 25.6701 41.8187 25.7146 41.8296C25.7605 41.8405 25.7882 41.8872 25.7771 41.9333C25.539 42.9323 26.1775 43.9806 27.6762 45.0559C26.9764 44.3392 26.3069 43.6065 26.5085 42.9696C26.5229 42.9242 26.5691 42.899 26.6153 42.9142C26.6599 42.9285 26.6845 42.9771 26.67 43.0224C26.4876 43.599 27.22 44.3464 27.9283 45.0687C28.0714 45.2147 28.2146 45.3608 28.3509 45.5058C28.3934 45.5324 28.4363 45.5589 28.4798 45.5853C28.5201 45.6099 28.5331 45.6626 28.5089 45.7035ZM29.3793 45.2265C29.365 45.2582 29.3341 45.2769 29.3019 45.2769C29.2901 45.2769 29.2783 45.2745 29.2668 45.2694C28.3425 44.8451 27.8694 44.0606 27.8609 42.9381C27.8604 42.8901 27.8984 42.857 27.9457 42.8515C27.9922 42.8515 28.0303 42.8893 28.0304 42.9367C28.0386 44.0013 28.4659 44.7127 29.3369 45.1124C29.3796 45.132 29.3984 45.183 29.3793 45.2265ZM30.3776 51.429C30.3465 51.464 30.2926 51.4666 30.2579 51.4343C30.2051 51.3857 29.9167 51.2877 29.5994 51.3204C29.3865 51.3424 29.0881 51.4318 28.8736 51.7319C28.8572 51.7551 28.8313 51.7673 28.805 51.7673C28.7876 51.7673 28.7702 51.762 28.7553 51.751C28.7172 51.7232 28.7089 51.6693 28.7364 51.6309C28.9875 51.2791 29.3351 51.175 29.5821 51.1492C29.9419 51.113 30.2773 51.2191 30.3723 51.3076C30.4069 51.3395 30.4092 51.394 30.3776 51.429ZM30.485 46.6677C30.3949 46.5195 30.3211 46.4787 30.294 46.476C30.246 46.4833 30.2051 46.4492 30.1991 46.4018C30.1928 46.3547 30.2258 46.3116 30.2722 46.3055C30.4616 46.2782 30.6569 46.5338 30.8507 47.0581C30.9493 47.3243 31.2939 48.4347 31.0518 48.5986C31.0372 48.6085 31.0209 48.613 31.0046 48.613C30.9774 48.613 30.9505 48.5996 30.9341 48.5748C30.9079 48.5352 30.9184 48.4819 30.9574 48.4556C31.0341 48.3375 30.8095 47.2029 30.485 46.6677ZM31.8056 51.802C31.7742 51.8372 31.7203 51.8392 31.6859 51.8066C31.535 51.665 31.3249 51.5959 31.136 51.6264C30.9876 51.6504 30.8666 51.7344 30.7958 51.8634C30.7803 51.8915 30.7514 51.9072 30.7219 51.9072C30.7079 51.9072 30.6936 51.9039 30.6803 51.8966C30.6394 51.8732 30.625 51.8208 30.6477 51.7793C30.7446 51.6036 30.9083 51.4888 31.1092 51.4566C31.3523 51.4187 31.6097 51.5011 31.801 51.6805C31.8356 51.7126 31.8377 51.7671 31.8056 51.802Z" fill="#FFD700"/>
<path d="M13.5291 48.3083C13.8085 48.8244 13.7096 49.6637 13.6445 50.0152C13.5599 49.9642 13.4697 49.9282 13.3965 49.9408C13.1887 49.9737 13.08 50.1508 12.9649 50.3381C12.9153 50.4194 12.8644 50.5018 12.8035 50.5778C12.742 49.6845 13.0139 49.0709 13.5277 48.3074L13.5291 48.3083Z" fill="#FFD700"/>
<path d="M12.4343 37.5908C12.396 37.7703 12.3761 37.9707 12.3657 38.1104C12.3518 38.0977 12.3378 38.0852 12.3238 38.0724C12.2466 38.0025 12.1684 37.9319 12.0816 37.8681L12.0849 37.8636C11.9953 37.7961 11.6277 37.0937 11.7778 36.8477C11.8618 36.71 11.9489 36.6342 12.0234 36.6342C12.0238 36.6342 12.0244 36.6342 12.0248 36.6342C12.1053 36.6352 12.1713 36.7285 12.2035 36.7841C12.3613 37.0557 12.4193 37.4643 12.4343 37.5908Z" fill="#FFD700"/>
<path d="M12.6557 24.6662C12.4545 24.6421 12.2164 24.5963 12.0937 24.5156C12.0518 24.4882 12.0091 24.4656 11.9663 24.443C11.8729 24.3938 11.7848 24.3471 11.701 24.2396C11.6445 24.1672 11.6422 23.9771 11.6971 23.9167C11.7225 23.8886 11.8038 23.857 11.8743 23.857C11.9083 23.857 11.924 23.8647 11.9255 23.8651C12.0625 24.1503 12.4176 24.4715 12.6557 24.6662Z" fill="#FFD700"/>
<path d="M11.3801 22.9748L11.9423 23.4403L11.843 23.6863C11.7489 23.6934 11.6332 23.7324 11.5717 23.8002C11.4983 23.8807 11.4752 24.0136 11.4898 24.135C11.4698 24.1316 11.4512 24.1297 11.4349 24.1297C11.3976 24.1297 11.3536 24.1244 11.3113 24.1197C11.2612 24.1141 11.2158 24.109 11.177 24.11C11.1112 24.0173 11.0584 23.9508 11.0431 23.9317C11.0134 23.8947 10.9596 23.8894 10.9237 23.9191C10.8872 23.9492 10.8818 24.0033 10.9113 24.0401C11.0101 24.1631 11.2359 24.4752 11.3326 24.7236C11.2012 24.6945 11.0917 24.7109 11.0064 24.773C10.9321 24.8268 10.8814 24.9131 10.8574 25.0239C10.8281 25.0139 10.8 25.0045 10.7732 24.9956C10.4912 24.9017 10.3627 24.8588 10.1081 24.3887C10.0857 24.347 10.0334 24.3324 9.99323 24.3546C9.95191 24.3774 9.93717 24.4298 9.95945 24.4713C10.1743 24.8687 10.3229 24.9997 10.5127 25.0834L10.4894 25.5053C10.4349 25.4414 10.3724 25.3861 10.2996 25.3487C10.2602 25.3284 10.2187 25.318 10.177 25.318C10.0177 25.318 9.9028 25.4626 9.83408 25.584C9.81004 25.6267 9.79722 25.6749 9.79351 25.7261C9.36755 25.4551 9.09065 25.2318 8.9614 25.1204C8.95385 24.9441 8.97613 24.7423 9.02524 24.7006C9.09145 24.6441 9.40505 24.5618 9.607 24.5215L9.6994 24.5028L9.67145 24.4115C9.60473 24.1927 9.54879 23.8264 9.64154 23.7357C9.74284 23.6373 10.0417 23.666 10.2067 23.7081L10.3062 23.7331L10.312 23.6294C10.3231 23.4275 10.3835 23.0669 10.4975 22.9593C10.6266 22.8377 11.0995 22.9031 11.3801 22.9748Z" fill="#FFD700"/>
<path d="M11.4959 25.1286C11.5817 25.2902 11.6634 25.4441 11.9135 25.7556C11.5464 25.6822 11.3644 25.4868 11.1876 25.2966C11.1297 25.2344 11.074 25.1746 11.0137 25.1211C11.023 25.0231 11.0546 24.9493 11.1047 24.9129C11.1788 24.8596 11.2952 24.8855 11.383 24.9182L11.3888 24.9353C11.4317 25.0068 11.4641 25.068 11.4959 25.1286Z" fill="#FFD700"/>
<path d="M11.2188 34.3867L10.3687 35.0497L9.45797 34.2302C9.93863 33.4818 10.5095 32.4228 10.2053 31.6057C10.0265 31.1255 9.56545 30.7795 8.82067 30.5749L8.76497 30.5692C8.18592 30.5113 7.47236 30.4411 6.60124 32.9536C6.16965 31.1572 6.66237 30.0406 8.06793 29.6328C9.12904 29.3238 10.4712 29.8477 11.1237 30.8232C11.4723 31.3441 11.8998 32.4242 10.8488 33.8037C10.8094 33.8564 10.796 33.9186 10.8103 33.9834C10.8466 34.1462 11.0593 34.2956 11.2188 34.3867Z" fill="#FFD700"/>
<path d="M11.1307 37.8051L11.1829 38.0874C10.9986 37.9468 10.8067 37.8469 10.6128 37.7656C10.4913 37.6871 10.2516 37.4216 10.1769 37.2015C10.1556 37.1396 10.153 37.0893 10.1703 37.0741C10.1785 37.0668 10.1872 37.0599 10.1965 37.0534C10.2712 37.0012 10.3828 36.9734 10.4847 36.9824C10.5631 36.9898 10.625 37.0179 10.6593 37.0626C10.692 37.1049 10.7281 37.1569 10.7653 37.2132C10.7698 37.2356 10.7828 37.2543 10.8001 37.2664C10.8771 37.3861 10.9555 37.5178 11.0157 37.6183C11.0727 37.714 11.1064 37.7711 11.1307 37.8051Z" fill="#FFD700"/>
<path d="M12.0808 23.5542L12.014 23.7194C12.0491 23.7413 12.0682 23.7691 12.0781 23.7895C12.2692 24.1869 12.9771 24.6989 12.9843 24.7042L13.2125 24.8682L12.9329 24.8603C12.9061 24.8595 12.2744 24.8398 12.0016 24.6604C11.9645 24.6358 11.9263 24.6159 11.8883 24.5958C11.7879 24.5427 11.6744 24.4829 11.5682 24.3465C11.5634 24.3402 11.5585 24.3337 11.5541 24.3266C11.5153 24.3162 11.4586 24.3017 11.4357 24.3017C11.3948 24.3017 11.3466 24.2967 11.2995 24.2914C11.4155 24.4752 11.5298 24.6944 11.5456 24.8645C11.5849 24.9312 11.6158 24.9894 11.6463 25.0471C11.7419 25.2272 11.8318 25.3968 12.182 25.8124L12.3122 25.9668L12.1124 25.9544C11.5331 25.9178 11.2735 25.6389 11.0651 25.4149C10.9952 25.3399 10.929 25.2687 10.857 25.212L10.8427 25.2124C10.8425 25.2085 10.8425 25.2048 10.8425 25.2008C10.8423 25.2006 10.8419 25.2004 10.8417 25.2002C10.7986 25.185 10.7586 25.1717 10.721 25.1593C10.707 25.1548 10.6935 25.1502 10.6802 25.1457L10.648 25.726L10.6406 25.7256C10.6651 25.7677 10.6876 25.8095 10.7089 25.8491L10.7204 25.8711C10.7693 25.9616 10.8042 26.0268 10.8349 26.0781C11.2469 26.1011 11.4999 26.1688 11.8787 26.3802C12.1066 26.5154 12.3747 26.7417 12.6812 27.0576C13.452 27.7712 14.3731 28.1186 15.4911 28.1186C15.5381 28.1186 15.5759 28.1569 15.5759 28.2045C15.5759 28.252 15.5381 28.2903 15.4911 28.2903C14.6483 28.2903 13.9129 28.1003 13.266 27.7124C13.4772 27.9651 13.7017 28.2496 13.9394 28.5655C13.9495 28.5788 14.7803 29.6909 15.0299 30.1326C15.6192 29.1395 16.3238 28.3275 17.0135 27.6378L12.0808 23.5542ZM16.0495 27.6241C16.0423 27.6661 16.0064 27.6952 15.9658 27.6952C15.9611 27.6952 15.9561 27.695 15.951 27.694C15.6244 27.6364 15.294 27.4026 14.9744 27.1767C14.8406 27.0822 14.7145 26.9929 14.5907 26.9175C14.288 26.7333 13.8673 26.4361 13.7161 26.2775C13.6835 26.2434 13.6845 26.1889 13.7181 26.1556C13.7516 26.1227 13.8052 26.1236 13.8382 26.1578C13.9732 26.2997 14.3893 26.5943 14.6779 26.7701C14.8069 26.8484 14.9412 26.9436 15.0714 27.0355C15.3759 27.2508 15.6909 27.4734 15.9806 27.5246C16.0266 27.5327 16.0574 27.5773 16.0495 27.6241Z" fill="#FFD700"/>
<path d="M11.0171 26.534C10.8666 26.3982 10.8033 26.3406 10.7389 26.2459C10.7212 26.2201 10.7033 26.1913 10.684 26.1577C10.6688 26.1319 10.6527 26.1032 10.6347 26.0704C10.6162 26.0363 10.5955 25.9981 10.572 25.9544L10.5596 25.9316C10.4742 25.7734 10.368 25.5766 10.2235 25.5024C10.2076 25.4939 10.1924 25.4902 10.1775 25.4902C10.1185 25.4902 10.0451 25.5571 9.98186 25.6695C9.95993 25.7084 9.95858 25.7682 9.97099 25.836C9.97818 25.8745 9.9898 25.9155 10.005 25.9564C10.0225 26.0035 10.0443 26.0503 10.069 26.0934C10.0981 26.1444 10.1309 26.19 10.1649 26.2244C10.2475 26.3091 10.311 26.3787 10.3636 26.4362C10.5874 26.682 10.5908 26.6857 11.2334 26.731C11.1446 26.6489 11.0742 26.5856 11.0171 26.534Z" fill="#FFD700"/>
<path d="M10.2288 37.6224C10.2022 37.6134 10.1758 37.6043 10.1494 37.5953C9.97185 37.5349 9.78886 37.4725 9.61381 37.3932C9.4091 37.1713 9.105 36.7622 9.12848 36.568C9.14864 36.3993 9.29343 36.1966 9.48321 35.9986C9.45023 36.2206 9.47546 36.4134 9.55851 36.574C9.64895 36.7486 9.80691 36.884 10.0287 36.9779C9.98934 37.0332 9.96702 37.1257 10.0237 37.2774C10.0614 37.3784 10.1378 37.5053 10.2288 37.6224Z" fill="#FFD700"/>
<path d="M9.82132 25.9453C9.64918 25.8393 9.49801 25.7389 9.36797 25.648C9.35243 25.637 9.3371 25.6261 9.32237 25.6157L4.53537 30.6223L3.92722 30.0362L3.48633 30.5578L5.29438 32.3333L5.79308 31.7767L5.11797 31.0919L9.86033 26.1477V26.1475L9.88923 26.1174C9.86228 26.0631 9.83857 26.0046 9.82132 25.9453Z" fill="#FFD700"/>
</svg>
