<svg width="61" height="66" viewBox="0 0 61 66" fill="none" xmlns="http://www.w3.org/2000/svg">
<path fill-rule="evenodd" clip-rule="evenodd" d="M58.4848 58.8633C57.3703 60.0738 55.6259 60.1753 53.9587 60.2098L37.4183 60.248C34.2591 60.2551 32.3276 63.1956 30.4727 65C28.5653 63.2434 27.3447 60.4705 24.2417 60.2372C18.5533 59.8097 12.686 60.4408 6.96385 60.1833C3.83914 59.9463 1.2691 58.9454 1.01053 55.958L1 1H60L59.9963 52.3283C59.9515 54.3903 59.8898 57.1057 58.4848 58.8633Z" fill="#EFEFEF" stroke="black" stroke-width="0.024654"/>
<path fill-rule="evenodd" clip-rule="evenodd" d="M58.3922 59.4614C57.7729 60.1436 56.9853 60.5118 56.1244 60.7133C55.2941 60.9078 54.4133 60.9439 53.5547 60.9618H53.5455L36.9439 61.0007C34.5871 61.0062 32.8985 62.8641 31.4002 64.5134C31.0104 64.9421 30.6328 65.3578 30.2629 65.7227L29.9818 66L29.6904 65.7296L29.6849 65.7243C29.1385 65.2132 28.6549 64.6311 28.1696 64.0467C26.9725 62.605 25.7619 61.1479 23.6866 60.9898L23.6714 60.9886C20.5836 60.7543 17.4478 60.8355 14.3113 60.9169C11.6506 60.9861 8.98935 61.055 6.35714 60.9349H6.34326C4.71498 60.8095 3.22175 60.477 2.08608 59.7706C0.922421 59.0472 0.150251 57.9498 0.0107974 56.3134V56.2878L0 0.346175V0H0.390823H59.6094H60V0.346175L59.9963 52.593V52.5984C59.9738 53.6571 59.9467 54.8838 59.7453 56.0853C59.5398 57.3103 59.1534 58.4996 58.409 59.4438L58.3922 59.4614ZM55.9259 60.045C56.6304 59.88 57.2715 59.5848 57.7683 59.0463L57.7679 59.0461C58.4338 58.2014 58.7837 57.1137 58.9729 55.985C59.1661 54.8328 59.1926 53.6278 59.2148 52.5875L59.2186 0.692541H0.781645L0.792221 56.262C0.912067 57.6663 1.55999 58.599 2.53484 59.2052C3.53767 59.8288 4.9029 60.1264 6.41045 60.2422V60.2429C9.01601 60.3611 11.6535 60.2927 14.2899 60.2244C17.4581 60.1422 20.6259 60.06 23.7355 60.2958L23.7507 60.297C26.1772 60.4819 27.495 62.0685 28.7986 63.6381C29.1815 64.0993 29.5632 64.5591 29.9671 64.9718C30.2394 64.6893 30.513 64.3882 30.7926 64.0805C32.4017 62.3094 34.215 60.3142 36.9439 60.308L53.5365 60.2693C54.3511 60.2521 55.1828 60.2189 55.9259 60.045Z" fill="black"/>
<path fill-rule="evenodd" clip-rule="evenodd" d="M7.72087 17.1637C8.54614 17.1314 9.36501 17.1228 10.1414 17.2826C10.1541 16.7539 9.89044 15.7594 10.1799 15.6962C11.656 15.5452 12.648 15.257 13.0778 14.7053C13.7522 13.8395 15.5316 13.678 17.6516 13.6751C18.8174 12.6708 19.6299 12.9737 20.1076 14.2619C21.8601 14.0855 22.3591 14.6734 21.6045 16.0257C22.6556 17.2653 23.7005 18.9129 24.9979 21.3949C26.6266 21.8245 28.44 22.5896 30.2167 23.4031C31.2843 23.9813 32.3532 24.054 33.4197 23.7684C37.0325 22.8016 40.4653 22.4309 43.6056 22.9762C45.2711 23.2652 46.0043 22.9619 46.1441 22.4099C47.8773 15.5705 48.4706 15.6549 49.3146 13.3102C50.0607 11.2373 50.5736 10.5331 51.7802 10.0746C53.3056 9.49436 54.5913 9.34718 55.8039 9.482C54.6175 12.4951 53.9584 15.4634 54.1053 18.486C54.2274 20.9973 51.8732 24.5023 50.2885 25.2314C49.1544 25.7533 48.9715 26.1918 49.4027 26.7906C50.0909 27.7471 50.3167 29.1173 50.3207 31.0899C50.3284 34.9641 51.9767 36.2217 54.3671 37.3192C54.5135 38.0304 54.5739 38.8911 54.4746 39.6503C53.3089 40.5238 52.9441 42.3353 52.5676 44.3106C51.7769 43.793 50.9721 43.1202 50.3288 42.2209C48.7279 42.5922 47.5576 43.0831 47.334 43.8369C46.9912 43.1639 47.4228 42.3834 47.3569 41.1734C46.5931 41.0682 45.8293 41.0884 45.066 41.5572C44.83 40.8384 45.3332 40.2935 46.9172 40.0043C47.477 39.4707 48.0571 39.0801 48.6852 38.9454C49.1167 38.853 49.5157 38.5265 49.9081 38.0711C48.3102 37.9073 46.624 37.4517 44.7805 36.4764C44.4985 37.9022 43.4128 38.4189 41.5012 38.1761C40.8297 38.0909 40.7141 38.3684 41.1685 38.8588C42.6494 40.4905 43.0907 41.3297 41.9656 41.4088C39.8042 41.5606 38.1504 42.2989 37.1865 43.6606C35.5567 43.675 34.3226 43.8593 34.0683 44.5392C33.852 43.9487 35.0112 42.7417 33.4909 42.6993C32.641 42.6757 31.8424 42.9266 31.0457 43.7585C31.0739 43.0733 31.3222 42.3969 31.6738 41.7038C32.2781 40.5131 31.6822 40.4991 30.45 41.1628C30.5313 40.2829 30.9818 39.8564 31.8014 39.8841C32.3559 39.699 32.726 39.1559 33.4649 39.3291C35.0051 39.7945 36.0235 39.8854 36.2626 39.4569C36.6811 38.7069 35.7669 37.7857 35.2547 37.1946C34.5688 36.4031 34.8934 35.6417 35.5983 34.373C34.4646 34.841 33.0644 35.2972 31.6859 35.5307C28.7244 36.0323 26.153 36.1835 24.2744 35.5912C23.9501 35.9475 23.6752 36.1601 23.45 36.23L11.8745 36.7927C10.8787 37.6119 9.62916 38.2302 8.38796 38.142L7.58583 38.9224C7.34525 38.6698 7.3349 38.1544 7.53758 37.3772C6.98131 37.4666 6.44486 37.8281 5.93794 38.5868C5.81236 37.6396 6.008 36.919 6.42349 36.3539C6.22434 35.8189 5.80378 35.8329 5.16203 36.3963C5.2475 34.6363 6.45235 34.0829 7.76251 34.1933C10.5212 34.4259 12.5156 34.162 13.889 33.9096C17.6194 33.2237 16.8446 32.5617 15.6984 31.8806C13.9161 31.9728 11.5482 32.2633 9.54126 32.6735C8.63492 33.0887 7.7407 33.3179 6.96919 33.3513C6.37392 33.563 5.9212 33.7892 5.67996 34.0235L5.66763 33.1916L5.32858 33.3649L4.98974 33.5385C4.88796 32.615 5.27394 32.3091 5.27835 31.4835C5.24464 30.8226 5.61739 30.3704 6.26421 29.9318C7.06767 29.3872 11.4374 29.2839 14.0758 28.9435L16.0178 25.9213L14.0403 21.4818L11.1552 20.127C10.9021 19.5442 10.8333 18.5318 10.3958 18.3789L9.21939 19.1636L9.89243 18.2206L8.17492 18.8419L9.46569 17.873L7.68408 18.1936L9.10197 17.532L7.72087 17.1637ZM12.4986 17.588C13.4098 17.2651 13.9828 17.332 14.6812 17.387L13.5171 17.8551C14.3944 17.8992 15.113 17.9848 15.6003 18.1318C15.2707 18.2668 14.5422 18.2732 14.0132 18.344L15.918 19.0072L13.8828 18.9141L15.1998 19.9587C14.2673 19.5891 13.3442 19.1742 12.4473 18.6334C12.3484 18.3346 12.42 17.9209 12.4986 17.588ZM14.3986 15.2314C14.5545 15.2517 14.6504 15.4917 14.6118 15.7654C14.5737 16.0391 14.4151 16.2457 14.2589 16.2251C14.1029 16.2048 14.0069 15.9648 14.0454 15.6911C14.0837 15.4174 14.2421 15.2108 14.3986 15.2314ZM21.7649 25.3731C22.7182 24.9247 23.5287 24.6847 24.2449 24.7307L23.7871 25.3731C23.1533 25.4121 22.4961 25.6549 21.8286 25.9906L22.4364 25.4238L21.7649 25.3731ZM21.5995 26.5463C22.3161 26.192 23.0663 25.9039 23.8505 25.6819C23.9946 25.6943 23.9735 25.7929 23.8889 25.9535C23.0451 26.1624 22.3708 26.4939 21.6631 26.8675C21.5783 26.7729 21.5444 26.7028 21.5995 26.5463ZM21.625 27.3122C22.1546 26.9073 22.6847 26.679 23.2147 26.571C23.3333 26.6988 23.2824 26.8264 23.0621 26.9539L21.7905 27.5222C21.5825 27.551 21.5402 27.3944 21.625 27.3122ZM21.9048 28.0409L22.5662 27.8556L22.2355 28.1767L21.7266 28.2877L21.9048 28.0409ZM42.311 28.0145L43.3434 29.1572L43.3284 29.5768L42.1465 28.2747L42.311 28.0145ZM41.8321 28.4628L43.1938 30.0686L43.1489 30.4592L41.7275 28.7665L41.8321 28.4628ZM41.3983 29.0705L43.0292 30.7195V31.1246L41.3384 29.3742L41.3983 29.0705ZM41.1888 29.6635L42.8647 31.6164L42.7748 31.9491L41.0542 29.9527L41.1888 29.6635Z" fill="#2C2C2B"/>
<path fill-rule="evenodd" clip-rule="evenodd" d="M8.122 22.1592C8.60623 20.7423 9.46168 19.5025 11.5079 19.0803C12.0069 18.9774 12.2752 19.4852 12.5173 19.3762C12.6779 19.3048 12.7746 19.0535 12.9989 19.1621C13.9808 19.6381 14.5902 20.3182 15.0876 21.016C16.1546 22.5127 16.9778 24.0431 16.9587 25.7318L18.3014 27.7753C18.3715 29.4486 18.6623 30.7161 19.2126 32.1249C19.3909 33.2256 19.1234 33.5315 18.4109 33.0423C19.3208 37.1307 19.2842 40.0886 17.8637 41.3941C15.7087 39.8379 15.3335 35.9388 16.1861 30.1408C16.3989 28.6937 16.1202 27.5341 15.7082 26.6166C15.8096 27.2969 15.6285 28.0228 15.3187 28.7695C15.9459 29.9483 15.7111 31.7432 14.762 34.0487C14.734 32.8384 14.5433 31.746 14.2414 30.7346C13.7654 29.2098 13.8592 27.925 14.1379 26.5326C12.7698 24.966 12.3184 23.4491 12.9383 22.0816C12.9557 21.0403 12.4935 20.9932 11.5515 21.9404L11.5585 23.7924C12.1827 25.3062 12.4415 26.5725 12.0818 27.377C11.4709 28.7433 11.1922 29.4876 11.2708 30.7973C11.3426 31.9975 11.0153 32.8616 10.5123 32.5221C10.0321 32.1979 9.91705 31.5773 10.1336 30.7076C10.3713 28.7293 10.3264 27.5258 10.153 26.6747C9.87387 27.1978 9.79941 28.4032 9.3154 29.2882C8.84328 30.1508 8.52758 30.3444 8.28811 29.8292C8.12178 29.2104 7.74946 28.7246 7.17182 28.3712C7.16103 27.9557 6.91032 27.6726 6.41992 27.5226C7.57851 25.5607 7.51506 23.9347 8.122 22.1592Z" fill="#E21C2A"/>
<path fill-rule="evenodd" clip-rule="evenodd" d="M8.14075 29.7276C8.31964 30.1368 8.55735 30.3267 8.81048 30.1037C8.86071 30.6605 8.72015 31.3357 8.19759 31.6656C7.75103 31.9472 7.49327 31.6324 7.65696 31.0703C7.77967 30.6492 7.98103 30.3244 8.14075 29.7276Z" fill="#E21C2A"/>
<path d="M47.8887 19.5983L49.5597 18.691" stroke="white" stroke-width="2.06064"/>
<path d="M48.0264 18.6907C48.8122 18.2334 49.598 17.8645 50.3841 17.584" stroke="white" stroke-width="2.06064"/>
<path d="M48.5527 17.2081C49.3386 16.7508 50.1244 16.3821 50.9104 16.1016" stroke="white" stroke-width="2.06064"/>
<path d="M48.7812 15.8138C49.5671 15.3565 50.3529 14.9878 51.139 14.7073" stroke="white" stroke-width="2.06064"/>
<path d="M49.5371 14.3975C50.3229 13.9404 51.1088 13.5715 51.8948 13.291" stroke="white" stroke-width="2.06064"/>
<path d="M50.0176 13.3351C50.8034 12.8778 51.5892 12.5091 52.3753 12.2286" stroke="white" stroke-width="2.06064"/>
<path d="M50.2234 12.3392C51.0092 11.8821 51.6576 11.5132 52.4436 11.2327" stroke="white" stroke-width="2.06064"/>
<path d="M51.6308 14.6227C51.2481 13.962 50.741 13.1592 50.0752 12.667" stroke="white" stroke-width="1.9691"/>
<path d="M52.0661 13.9809C51.6834 13.3202 51.1763 12.6058 50.5107 12.1138" stroke="white" stroke-width="1.9691"/>
<path d="M52.2261 13.162C51.8434 12.5013 51.4048 12.0305 50.7393 11.5383" stroke="white" stroke-width="1.9691"/>
<path d="M52.5469 12.6088C52.1642 11.9479 51.8628 11.5879 51.1973 11.0957" stroke="white" stroke-width="1.9691"/>
<path d="M51.2646 14.9767C50.882 14.316 50.5806 13.9558 49.915 13.4638" stroke="white" stroke-width="1.9691"/>
<path d="M50.9443 15.5965C50.5614 14.9356 50.2602 14.5756 49.5945 14.0834" stroke="white" stroke-width="1.9691"/>
<path d="M50.6926 16.2826C50.3099 15.6217 50.0085 15.2617 49.3428 14.7695" stroke="white" stroke-width="1.9691"/>
<path d="M50.5779 17.0349C50.1952 16.3742 49.7337 15.7706 49.0681 15.2785" stroke="white" stroke-width="1.9691"/>
<path d="M50.3715 17.7433C49.8915 17.1139 49.5789 16.706 48.999 16.186" stroke="white" stroke-width="1.9691"/>
<path d="M50.0288 18.4068C49.5489 17.7774 49.2361 17.3695 48.6562 16.8496" stroke="white" stroke-width="1.9691"/>
<path d="M49.7541 18.9825C49.2741 18.3531 48.824 17.8788 48.2441 17.3589" stroke="white" stroke-width="1.9691"/>
<path fill-rule="evenodd" clip-rule="evenodd" d="M14.4169 15.2393C14.7983 15.2393 15.108 15.5011 15.108 15.8238C15.108 16.1465 14.7983 16.4085 14.4169 16.4085C14.0354 16.4085 13.7258 16.1465 13.7258 15.8238C13.7258 15.5011 14.0354 15.2393 14.4169 15.2393Z" fill="#E21C2A" stroke="#2C2C2B" stroke-width="0.383395"/>
</svg>
