<svg width="48" height="48" viewBox="0 0 48 48" fill="none" xmlns="http://www.w3.org/2000/svg">
<mask id="mask0_202_7936" style="mask-type:alpha" maskUnits="userSpaceOnUse" x="0" y="0" width="48" height="48">
<rect width="48" height="48" fill="#D9D9D9"/>
</mask>
<g mask="url(#mask0_202_7936)">
<circle cx="24" cy="19" r="6" fill="#0A4881"/>
<path d="M23.9917 42.8834C23.5972 42.8834 23.2056 42.8167 22.8166 42.6834C22.4278 42.55 22.0833 42.3389 21.7833 42.05C20.1278 40.5389 18.4778 38.9167 16.8333 37.1834C15.1889 35.4501 13.7139 33.6528 12.4084 31.7917C11.1028 29.9306 10.0417 28.0362 9.225 26.1084C8.40833 24.1806 8 22.2778 8 20.4C8 15.4 9.60833 11.4167 12.825 8.45C16.0417 5.48333 19.7667 4 24 4C28.2333 4 31.9583 5.48333 35.175 8.45C38.3917 11.4167 40 15.4 40 20.4C40 22.2778 39.5917 24.1806 38.775 26.1084C37.9583 28.0362 36.8972 29.9306 35.5916 31.7917C34.2861 33.6528 32.8111 35.4501 31.1666 37.1834C29.5222 38.9167 27.8722 40.5389 26.2167 42.05C25.9166 42.3389 25.5694 42.55 25.175 42.6834C24.7806 42.8167 24.3861 42.8834 23.9917 42.8834ZM24.0029 23.6667C25.0121 23.6667 25.875 23.3073 26.5917 22.5887C27.3083 21.8701 27.6667 21.0062 27.6667 19.9971C27.6667 18.9879 27.3073 18.125 26.5887 17.4084C25.8701 16.6917 25.0062 16.3334 23.997 16.3334C22.9879 16.3334 22.125 16.6927 21.4083 17.4113C20.6917 18.1299 20.3333 18.9938 20.3333 20.003C20.3333 21.0121 20.6927 21.875 21.4113 22.5917C22.1299 23.3083 22.9938 23.6667 24.0029 23.6667Z" fill="#0A4881"/>
<path fill-rule="evenodd" clip-rule="evenodd" d="M32.4006 21.9562C31.3189 25.3463 28.1441 27.8 24.3961 27.8C20.6481 27.8 17.2217 25.144 16.2749 21.5438C25.0394 24.7705 25.8979 19.4869 32.4032 21.9536M32.7585 19.1108H32.7481C32.7481 19.1108 32.7715 19.116 32.7585 19.1108ZM32.7948 19.1315C32.7974 19.2197 32.8 19.3079 32.8 19.3961C32.8 19.6296 32.7896 19.8578 32.7715 20.0861C29.0727 18.7554 27.0288 19.6321 24.9382 20.5296C24.5258 20.706 24.1367 20.8616 23.7684 20.9965C21.5403 21.8083 20.0333 21.8369 17.9765 21.1936C17.826 21.1365 17.6756 21.0795 17.52 21.0146C17.6756 21.0795 17.8286 21.1365 17.9765 21.1936C17.3955 21.012 16.7678 20.776 16.07 20.4907C16.0233 20.1327 16 19.767 16 19.3961C16 19.0823 16.0182 18.771 16.0519 18.4649C22.4923 20.8409 24.6711 18.6232 27.9444 18.2522C28.4839 18.19 29.052 18.1796 29.6745 18.2471C30.5667 18.343 31.5679 18.6024 32.7507 19.1056L32.7948 19.1289V19.1315ZM32.0815 15.9956C32.2216 16.3121 32.3435 16.6389 32.4447 16.9761C28.8211 15.7077 26.798 16.5741 24.7281 17.4611C23.9007 17.8165 23.1744 18.0837 22.5026 18.2678C20.9931 18.6802 19.7688 18.6698 18.3007 18.2808C17.66 18.1122 16.9753 17.8684 16.1997 17.5597C16.332 16.9657 16.5265 16.3951 16.7781 15.8582C22.0228 17.5052 24.2197 15.8971 26.9873 15.3809C27.8822 15.2149 28.8393 15.163 29.978 15.3731C30.616 15.4899 31.3086 15.6896 32.0815 15.9956ZM24.3987 11C26.7591 11 28.8912 11.9753 30.4189 13.5419C27.8173 13.0361 26.1288 13.7598 24.4091 14.4964C23.426 14.9192 22.5856 15.2175 21.8101 15.3991C20.5936 15.6844 19.5431 15.6766 18.3552 15.4094C17.9843 15.3264 17.6004 15.2149 17.1931 15.08C18.6612 12.6367 21.338 11 24.3987 11Z" fill="white"/>
</g>
</svg>
