<svg width="24" height="24" viewBox="0 0 24 24" fill="none" xmlns="http://www.w3.org/2000/svg">
<g clip-path="url(#clip0_202_7874)">
<mask id="mask0_202_7874" style="mask-type:alpha" maskUnits="userSpaceOnUse" x="0" y="0" width="24" height="24">
<rect width="24" height="24" fill="#D9D9D9"/>
</mask>
<g mask="url(#mask0_202_7874)">
<circle cx="12" cy="12" r="12" fill="#0A4881"/>
<path fill-rule="evenodd" clip-rule="evenodd" d="M18.6671 14.1302C17.7658 16.9552 15.1201 19 11.9968 19C8.8734 19 6.01806 16.7866 5.22912 13.7865C12.5328 16.4754 13.2483 12.0724 18.6693 14.128M18.9654 11.759H18.9568C18.9568 11.759 18.9762 11.7633 18.9654 11.759ZM18.9957 11.7763C18.9978 11.8498 19 11.9233 19 11.9968C19 12.1913 18.9914 12.3815 18.9762 12.5717C15.8939 11.4629 14.1907 12.1935 12.4485 12.9413C12.1048 13.0883 11.7806 13.218 11.4737 13.3304C9.61695 14.0069 8.36112 14.0307 6.64706 13.4947C6.52169 13.4471 6.39633 13.3996 6.26664 13.3455C6.39633 13.3996 6.52385 13.4471 6.64706 13.4947C6.16288 13.3434 5.6398 13.1467 5.05836 12.9089C5.01945 12.6106 5 12.3059 5 11.9968C5 11.7352 5.01513 11.4758 5.04323 11.2208C10.4102 13.2007 12.2259 11.3526 14.9537 11.0435C15.4033 10.9917 15.8766 10.983 16.3954 11.0392C17.139 11.1192 17.9733 11.3353 18.9589 11.7547L18.9957 11.7741V11.7763ZM18.4013 9.16304C18.518 9.42674 18.6196 9.69909 18.7039 9.98008C15.6843 8.92311 13.9983 9.64505 12.2734 10.3843C11.5839 10.6804 10.9787 10.903 10.4189 11.0565C9.16088 11.4002 8.14065 11.3915 6.91725 11.0673C6.38336 10.9268 5.81272 10.7236 5.16644 10.4664C5.27667 9.97144 5.43878 9.49591 5.64845 9.04848C10.019 10.421 11.8498 9.0809 14.1561 8.65076C14.9018 8.51243 15.6994 8.4692 16.6483 8.64428C17.18 8.74155 17.7571 8.90798 18.4013 9.16304ZM11.9989 5C13.9659 5 15.7426 5.81272 17.0157 7.11826C14.8478 6.69677 13.4406 7.29983 12.0076 7.91369C11.1884 8.26602 10.488 8.51459 9.84175 8.66589C8.82801 8.90366 7.9526 8.89717 6.96264 8.67454C6.65354 8.60537 6.33364 8.51243 5.99429 8.40003C7.21769 6.3639 9.44836 5 11.9989 5Z" fill="white"/>
</g>
</g>
<defs>
<clipPath id="clip0_202_7874">
<rect width="24" height="24" fill="white"/>
</clipPath>
</defs>
</svg>
