<svg width="56" height="27" viewBox="0 0 56 27" fill="none" xmlns="http://www.w3.org/2000/svg">
<rect y="0.5" width="56" height="26" rx="4" fill="white"/>
<path d="M42.3335 14C42.3335 18.6641 38.5412 22.5 33.8335 22.5C29.1694 22.5 25.3335 18.6641 25.3335 14C25.3335 9.33591 29.1258 5.5 33.7899 5.5C38.5412 5.5 42.3335 9.33591 42.3335 14Z" fill="#F9B50B"/>
<path d="M30.9564 14.0436C30.9564 13.4334 30.8693 12.8231 30.7821 12.2564H25.5513C25.5949 11.9513 25.6821 11.6898 25.7693 11.341H30.4334C30.3462 11.0359 30.2154 10.7308 30.0847 10.4257H26.118C26.2487 10.1205 26.4231 9.85898 26.5975 9.51027H29.6052C29.4308 9.20514 29.2129 8.90001 28.9513 8.59488H27.2949C27.5564 8.28975 27.818 8.02821 28.1667 7.72308C26.6846 6.32821 24.6795 5.5 22.4564 5.5C17.8359 5.63077 14 9.33591 14 14C14 18.6641 17.7923 22.5 22.5 22.5C24.7231 22.5 26.6846 21.6282 28.2103 20.277C28.5154 20.0154 28.777 19.7103 29.0821 19.3616H27.3385C27.1205 19.1 26.9026 18.7949 26.7282 18.4898H29.6923C29.8667 18.2282 30.0411 17.9231 30.1718 17.5744H26.2052C26.0744 17.3128 25.9436 17.0077 25.8564 16.659H30.5205C30.7821 15.8744 30.9564 15.0026 30.9564 14.0436Z" fill="#C8191C"/>
<path d="M25.5074 16.1793L25.6382 15.3947C25.5946 15.3947 25.5074 15.4383 25.4202 15.4383C25.1151 15.4383 25.0715 15.2639 25.1151 15.1768L25.3766 13.6075H25.8561L25.9869 12.7357H25.551L25.6382 12.2126H24.7228C24.7228 12.2126 24.1997 15.1768 24.1997 15.5255C24.1997 16.0486 24.5048 16.3101 24.9407 16.3101C25.2023 16.3101 25.4202 16.2229 25.5074 16.1793Z" fill="white"/>
<path d="M25.813 14.7411C25.813 16.0052 26.6848 16.3104 27.3822 16.3104C28.0361 16.3104 28.3412 16.1796 28.3412 16.1796L28.5156 15.3078C28.5156 15.3078 28.0361 15.5258 27.5566 15.5258C26.554 15.5258 26.7284 14.7847 26.7284 14.7847H28.5591C28.5591 14.7847 28.6899 14.2181 28.6899 13.9565C28.6899 13.3899 28.3848 12.6488 27.3822 12.6488C26.5104 12.6052 25.813 13.6078 25.813 14.7411ZM27.3822 13.4334C27.8617 13.4334 27.7745 14.0001 27.7745 14.0437H26.772C26.8156 14.0001 26.9027 13.4334 27.3822 13.4334Z" fill="white"/>
<path d="M33.0925 16.1794L33.2669 15.1769C33.2669 15.1769 32.831 15.3948 32.4823 15.3948C31.872 15.3948 31.5669 14.9153 31.5669 14.3487C31.5669 13.2589 32.09 12.6922 32.7438 12.6922C33.1797 12.6922 33.572 12.9538 33.572 12.9538L33.7028 11.9948C33.7028 11.9948 33.1797 11.7769 32.6566 11.7769C31.6105 11.7769 30.6079 12.6922 30.6079 14.3922C30.6079 15.5256 31.131 16.2666 32.2207 16.2666C32.613 16.3102 33.0925 16.1794 33.0925 16.1794Z" fill="white"/>
<path d="M20.5818 12.6052C19.9716 12.6052 19.4921 12.7796 19.4921 12.7796L19.3613 13.5642C19.3613 13.5642 19.7536 13.3898 20.3639 13.3898C20.669 13.3898 20.9306 13.4334 20.9306 13.695C20.9306 13.8693 20.887 13.9129 20.887 13.9129H20.4947C19.71 13.9129 18.8818 14.218 18.8818 15.2642C18.8818 16.0924 19.4049 16.2668 19.7536 16.2668C20.3639 16.2668 20.669 15.8745 20.7126 15.8745L20.669 16.2232H21.41L21.7588 13.7386C21.7588 12.6488 20.887 12.6052 20.5818 12.6052ZM20.7562 14.6104C20.7562 14.7411 20.669 15.4822 20.1459 15.4822C19.8844 15.4822 19.7972 15.2642 19.7972 15.1334C19.7972 14.9155 19.928 14.6104 20.6254 14.6104C20.7126 14.6104 20.7562 14.6104 20.7562 14.6104Z" fill="white"/>
<path d="M22.6303 16.2664C22.8482 16.2664 23.9816 16.31 23.9816 15.0895C23.9816 13.9562 22.8918 14.1741 22.8918 13.7382C22.8918 13.5203 23.0662 13.4331 23.3713 13.4331C23.5021 13.4331 23.9816 13.4767 23.9816 13.4767L24.1123 12.6485C24.1123 12.6485 23.8072 12.5613 23.2405 12.5613C22.5867 12.5613 21.8892 12.8228 21.8892 13.7382C21.8892 14.7844 23.0226 14.6972 23.0226 15.0895C23.0226 15.351 22.7175 15.3946 22.4995 15.3946C22.1072 15.3946 21.6713 15.2638 21.6713 15.2638L21.5405 16.0921C21.6277 16.1792 21.8892 16.2664 22.6303 16.2664Z" fill="white"/>
<path d="M40.5894 11.9077L40.415 13.1282C40.415 13.1282 40.0663 12.6923 39.5432 12.6923C38.715 12.6923 38.0176 13.6949 38.0176 14.8718C38.0176 15.6129 38.3663 16.3539 39.1509 16.3539C39.674 16.3539 40.0227 16.0052 40.0227 16.0052L39.9791 16.3103H40.8945L41.5484 11.9949L40.5894 11.9077ZM40.1535 14.2616C40.1535 14.7411 39.9355 15.3949 39.4125 15.3949C39.1073 15.3949 38.933 15.1334 38.933 14.6539C38.933 13.9128 39.2381 13.4769 39.674 13.4769C39.9791 13.5205 40.1535 13.7385 40.1535 14.2616Z" fill="white"/>
<path d="M15.657 16.2231L16.18 12.9975L16.2672 16.2231H16.8775L18.0544 12.9975L17.5749 16.2231H18.5339L19.2749 11.9077H17.7929L16.8775 14.5667L16.8339 11.9077H15.5262L14.7852 16.2231H15.657Z" fill="white"/>
<path d="M29.6056 16.2232C29.8671 14.7411 29.9107 13.5206 30.5646 13.7385C30.6517 13.1719 30.7825 12.9103 30.8697 12.6924H30.6953C30.303 12.6924 29.9543 13.2155 29.9543 13.2155L30.0415 12.736H29.1697L28.603 16.2232H29.6056Z" fill="white"/>
<path d="M35.1849 12.6052C34.5746 12.6052 34.0951 12.7796 34.0951 12.7796L33.9644 13.5642C33.9644 13.5642 34.3567 13.3898 34.9669 13.3898C35.272 13.3898 35.5336 13.4334 35.5336 13.695C35.5336 13.8693 35.49 13.9129 35.49 13.9129H35.0977C34.3131 13.9129 33.4849 14.218 33.4849 15.2642C33.4849 16.0924 34.0079 16.2668 34.3567 16.2668C34.9669 16.2668 35.272 15.8745 35.3156 15.8745L35.272 16.2232H36.1003L36.449 13.7386C36.449 12.6488 35.49 12.6052 35.1849 12.6052ZM35.4028 14.6104C35.4028 14.7411 35.3156 15.4822 34.7926 15.4822C34.531 15.4822 34.4438 15.2642 34.4438 15.1334C34.4438 14.9155 34.5746 14.6104 35.272 14.6104C35.3592 14.6104 35.3592 14.6104 35.4028 14.6104Z" fill="white"/>
<path d="M37.1461 16.2232C37.4077 14.7411 37.4512 13.5206 38.1051 13.7385C38.1923 13.1719 38.323 12.9103 38.4102 12.6924H38.2359C37.8436 12.6924 37.4948 13.2155 37.4948 13.2155L37.582 12.736H36.7102L36.1436 16.2232H37.1461Z" fill="white"/>
</svg>
