<svg width="54" height="27" viewBox="0 0 54 27" fill="none" xmlns="http://www.w3.org/2000/svg">
<rect y="0.5" width="54" height="26" rx="4" fill="white"/>
<path d="M38.8712 9.5H32.8906C33.239 11.4742 35.1551 13.3322 37.2454 13.3322H42.0067C42.0648 13.1581 42.0648 12.8677 42.0648 12.6935C42.0648 10.9516 40.6132 9.5 38.8712 9.5Z" fill="url(#paint0_linear_1058_1241)"/>
<path d="M33.4131 13.6807V18.5H36.3163V15.9452H38.8711C40.2647 15.9452 41.484 14.9581 41.8905 13.6807H33.4131Z" fill="#4FAD50"/>
<path d="M23.1934 9.5V18.4419H25.7482C25.7482 18.4419 26.3869 18.4419 26.7353 17.8032C28.4772 14.3774 28.9998 13.3322 28.9998 13.3322H29.3482V18.4419H32.2514V9.5H29.6966C29.6966 9.5 29.0578 9.55807 28.7095 10.1387C27.2579 13.1 26.445 14.6097 26.445 14.6097H26.0966V9.5H23.1934Z" fill="#4FAD50"/>
<path d="M11 18.5V9.55811H13.9032C13.9032 9.55811 14.7161 9.5581 15.1806 10.8355C16.3419 14.2032 16.4581 14.6678 16.4581 14.6678C16.4581 14.6678 16.6903 13.8549 17.7355 10.8355C18.2 9.5581 19.0129 9.55811 19.0129 9.55811H21.9161V18.5H19.0129V13.6807H18.6645L17.0387 18.5H15.7613L14.1355 13.6807H13.7871V18.5H11Z" fill="#4FAD50"/>
<defs>
<linearGradient id="paint0_linear_1058_1241" x1="32.8803" y1="11.4436" x2="42.0442" y2="11.4436" gradientUnits="userSpaceOnUse">
<stop stop-color="#27B1E6"/>
<stop offset="1" stop-color="#148ACA"/>
</linearGradient>
</defs>
</svg>
