<svg width="32" height="32" viewBox="0 0 32 32" fill="none" xmlns="http://www.w3.org/2000/svg">
<rect width="32" height="32" rx="8" fill="#2BACEF"/>
<mask id="mask0_640_205111" style="mask-type:alpha" maskUnits="userSpaceOnUse" x="6" y="6" width="20" height="20">
<rect x="6" y="6" width="20" height="20" fill="#D9D9D9"/>
</mask>
<g mask="url(#mask0_640_205111)">
<path fill-rule="evenodd" clip-rule="evenodd" d="M8.09992 15.5964C12.3949 13.7618 15.2589 12.5523 16.6919 11.968C20.7834 10.2995 21.6335 10.0097 22.1877 10.0001C22.3095 9.998 22.5821 10.0276 22.7586 10.168C22.9076 10.2866 22.9486 10.4468 22.9683 10.5592C22.9879 10.6716 23.0123 10.9277 22.9929 11.1278C22.7712 13.4118 21.8118 18.9545 21.3237 21.5127C21.1172 22.5951 20.7105 22.958 20.3169 22.9936C19.4613 23.0707 18.8116 22.4392 17.9829 21.9067C16.6862 21.0733 15.9537 20.5545 14.695 19.7413C13.2404 18.8015 14.1834 18.285 15.0124 17.4409C15.2293 17.22 18.999 13.8583 19.0719 13.5533C19.0811 13.5152 19.0895 13.373 19.0034 13.298C18.9172 13.2229 18.7901 13.2486 18.6983 13.269C18.5683 13.2979 16.4968 14.6403 12.4839 17.2961C11.8959 17.6919 11.3633 17.8848 10.8862 17.8747C10.3601 17.8635 9.34822 17.5831 8.59598 17.3433C7.67333 17.0493 6.94002 16.8938 7.00388 16.3944C7.03714 16.1343 7.40248 15.8683 8.09992 15.5964Z" fill="white"/>
</g>
</svg>
