<svg width="56" height="27" viewBox="0 0 56 27" fill="none" xmlns="http://www.w3.org/2000/svg">
<rect y="0.5" width="56" height="26" rx="4" fill="white"/>
<path d="M42.3812 8.64258H40.3336C39.7145 8.64258 39.2383 8.83305 38.9526 9.4521L35.0479 18.3569H37.8098C37.8098 18.3569 38.2859 17.1664 38.3812 16.8807C38.6669 16.8807 41.3812 16.8807 41.7621 16.8807C41.8574 17.214 42.0955 18.3092 42.0955 18.3092H44.5717L42.3812 8.64258ZM39.1431 14.8807C39.3812 14.3092 40.1907 12.1664 40.1907 12.1664C40.1907 12.214 40.4288 11.595 40.524 11.2616L40.7145 12.1188C40.7145 12.1188 41.2383 14.4521 41.3336 14.9283H39.1431V14.8807Z" fill="#3362AB"/>
<path d="M35.2374 15.1667C35.2374 17.1667 33.4279 18.5 30.6184 18.5C29.4279 18.5 28.2851 18.2619 27.666 17.9762L28.047 15.7857L28.3803 15.9286C29.2374 16.3095 29.8089 16.4524 30.8565 16.4524C31.6184 16.4524 32.4279 16.1667 32.4279 15.5C32.4279 15.0714 32.0946 14.7857 31.047 14.3095C30.047 13.8333 28.7136 13.0714 28.7136 11.6905C28.7136 9.78571 30.5708 8.5 33.1898 8.5C34.1898 8.5 35.047 8.69048 35.5708 8.92857L35.1898 11.0238L34.9993 10.8333C34.5232 10.6429 33.9041 10.4524 32.9993 10.4524C31.9993 10.5 31.5232 10.9286 31.5232 11.3095C31.5232 11.7381 32.0946 12.0714 32.9993 12.5C34.5232 13.2143 35.2374 14.0238 35.2374 15.1667Z" fill="#3362AB"/>
<path d="M12 8.73833L12.0476 8.54785H16.1429C16.7143 8.54785 17.1429 8.73833 17.2857 9.35738L18.1905 13.6431C17.2857 11.3574 15.1905 9.50023 12 8.73833Z" fill="#F9B50B"/>
<path d="M23.9525 8.64283L19.8096 18.3095H17.0001L14.6191 10.2143C16.3334 11.3095 17.762 13.0238 18.2858 14.2143L18.5715 15.2143L21.143 8.59521H23.9525V8.64283Z" fill="#3362AB"/>
<path d="M25.0475 8.59521H27.6666L25.9999 18.3095H23.3809L25.0475 8.59521Z" fill="#3362AB"/>
</svg>
