<svg width="30" height="22" viewBox="0 0 30 22" fill="none" xmlns="http://www.w3.org/2000/svg">
<path id="Icon" fill-rule="evenodd" clip-rule="evenodd" d="M19.0121 1.00807L19.1161 0.884422C19.5667 0.411287 20.2757 0.374892 20.7661 0.775237L20.8838 0.884422L29.6338 10.0719L29.6856 10.1296L29.7545 10.2187L29.8441 10.3647L29.9109 10.5126L29.9552 10.6509L29.9913 10.845L30 11L29.9965 11.0988L29.9747 11.2635L29.9378 11.4097L29.8829 11.5555L29.8175 11.6834L29.7253 11.8209L29.6338 11.9281L20.8838 21.1156C20.3957 21.6281 19.6042 21.6281 19.1161 21.1156C18.6655 20.6424 18.6308 19.898 19.0121 19.3831L19.1161 19.2594L25.7299 12.3125L1.32995 12.312C0.639593 12.312 0.0799492 11.7244 0.0799492 10.9995C0.0799492 10.2747 0.639593 9.68703 1.32995 9.68703L25.7324 9.6875L19.1161 2.74058C18.6655 2.26744 18.6308 1.52295 19.0121 1.00807Z" fill="white"/>
</svg>
