<svg width="9" height="7" viewBox="0 0 9 7" fill="none" xmlns="http://www.w3.org/2000/svg">
<g id="arrow-right">
<path id="Icon" fill-rule="evenodd" clip-rule="evenodd" d="M8.5504 1.35485L8.59898 1.39645C8.78485 1.57669 8.79915 1.8603 8.64187 2.05645L8.59898 2.10355L4.9896 5.60355L4.96694 5.62425L4.93195 5.65183L4.87459 5.68766L4.81647 5.71439L4.76215 5.73208L4.68589 5.74655L4.625 5.75L4.58621 5.74861L4.5215 5.73988L4.46405 5.72513L4.40678 5.70316L4.35651 5.677L4.3025 5.64016L4.2604 5.60355L0.651023 2.10355C0.449659 1.90829 0.449659 1.59171 0.651023 1.39645C0.836898 1.2162 1.12938 1.20234 1.33165 1.35485L1.38023 1.39645L4.10938 4.042L4.625 4.50033L5.14063 4.043L7.86977 1.39645C8.05565 1.2162 8.34813 1.20234 8.5504 1.35485Z" fill="white"/>
</g>
</svg>
