<svg width="20" height="22" viewBox="0 0 20 22" fill="none" xmlns="http://www.w3.org/2000/svg">
<g id="Frame 59">
<path id="Vector" d="M10.8082 18.5203C12.1255 16.2275 14.6524 11.8554 15.3245 10.6024C16.2385 8.94957 16.2117 7.00329 15.3245 5.27052C13.8459 2.33789 10.2435 1.16507 7.28628 2.63119C4.32897 4.09751 3.17307 7.80312 4.62474 10.6024C5.27 11.8553 7.79693 16.2275 9.14112 18.5202C9.51786 19.1599 10.4319 19.1599 10.8082 18.5202L10.8082 18.5203ZM7.39387 7.93646C7.39387 6.52351 8.54977 5.3505 10.0016 5.3505C11.4264 5.3505 12.6093 6.49676 12.6093 7.93646C12.6093 9.34941 11.4534 10.5224 10.0016 10.5224C8.54996 10.5224 7.39387 9.37598 7.39387 7.93646Z" fill="#F9423A"/>
</g>
</svg>
