<svg width="19" height="22" viewBox="0 0 19 22" fill="none" xmlns="http://www.w3.org/2000/svg">
<g id="24/ outlined / other / phone / phone">
<path id="Vector" d="M15.9996 14.733V16.69C16.0003 16.8717 15.963 17.0515 15.8901 17.218C15.8172 17.3845 15.7102 17.5339 15.5761 17.6567C15.442 17.7795 15.2836 17.873 15.1111 17.9312C14.9387 17.9894 14.756 18.0111 14.5747 17.9947C12.5633 17.7766 10.6313 17.0907 8.93379 15.992C7.35449 14.9905 6.01552 13.6541 5.01197 12.078C3.90731 10.3761 3.21986 8.43855 3.00531 6.42217C2.98897 6.24177 3.01045 6.05996 3.06838 5.88831C3.12631 5.71665 3.21942 5.55892 3.34178 5.42514C3.46413 5.29137 3.61306 5.18449 3.77907 5.1113C3.94509 5.03812 4.12455 5.00023 4.30604 5.00006H6.26695C6.58417 4.99695 6.89169 5.10906 7.13221 5.31549C7.37273 5.52193 7.52983 5.80861 7.57422 6.12209C7.65699 6.74838 7.81048 7.36332 8.03177 7.95517C8.11971 8.18866 8.13874 8.44241 8.08661 8.68637C8.03448 8.93032 7.91337 9.15425 7.73763 9.33161L6.90751 10.1601C7.838 11.7933 9.19292 13.1455 10.8293 14.0741L11.6595 13.2457C11.8372 13.0703 12.0615 12.9494 12.306 12.8974C12.5504 12.8453 12.8047 12.8643 13.0386 12.9521C13.6316 13.173 14.2478 13.3261 14.8753 13.4087C15.1929 13.4534 15.4828 13.6131 15.6901 13.8572C15.8974 14.1014 16.0076 14.4131 15.9996 14.733Z" fill="#F9423A"/>
</g>
</svg>
