<svg width="22" height="22" viewBox="0 0 22 22" fill="none" xmlns="http://www.w3.org/2000/svg">
<g id="Frame 59">
<path id="Vector" fill-rule="evenodd" clip-rule="evenodd" d="M3.05681 17.6159C2.70021 17.5153 2.37483 17.3364 2.10814 17.0942C1.84145 16.852 1.64128 16.5537 1.5245 16.2244C0.857201 14.5224 0.659483 7.41534 1.94465 6.01233C2.37237 5.55592 2.97627 5.27492 3.62525 5.23032C7.07295 4.88532 17.725 4.93132 18.9484 5.34533C19.2924 5.44921 19.6068 5.62422 19.8679 5.85724C20.129 6.09026 20.33 6.37524 20.456 6.69083C21.185 8.45035 21.2097 14.8444 20.3571 16.5349C20.1309 16.9749 19.7522 17.3314 19.282 17.5469C17.9968 18.1449 4.76212 18.1334 3.05681 17.6159ZM8.53111 14.2809L14.7098 11.2909L8.53111 8.27784V14.2809Z" fill="#F9423A"/>
</g>
</svg>
