<svg width="16" height="16" viewBox="0 0 16 16" fill="none" xmlns="http://www.w3.org/2000/svg">
<mask id="mask0_914_8643" style="mask-type:alpha" maskUnits="userSpaceOnUse" x="0" y="0" width="16" height="16">
<rect width="16" height="16" fill="#D9D9D9"/>
</mask>
<g mask="url(#mask0_914_8643)">
<path d="M8.292 10.95L5.82534 12.8167C5.70311 12.9056 5.58089 12.9472 5.45867 12.9417C5.33645 12.9361 5.22534 12.9 5.12534 12.8333C5.02534 12.7667 4.95034 12.675 4.90034 12.5583C4.85034 12.4417 4.84756 12.3111 4.892 12.1667L5.842 9.1L3.22534 7.01667C3.11422 6.92778 3.04478 6.82222 3.017 6.7C2.98922 6.57778 2.99756 6.46111 3.042 6.35C3.08645 6.23889 3.15589 6.14444 3.25034 6.06667C3.34478 5.98889 3.46422 5.95 3.60867 5.95H6.742L7.72534 2.91667C7.76978 2.77222 7.84478 2.66667 7.95034 2.6C8.05589 2.53333 8.16978 2.5 8.292 2.5C8.41422 2.5 8.52811 2.53333 8.63367 2.6C8.73922 2.66667 8.81422 2.77222 8.85867 2.91667L9.842 5.95H12.9753C13.1198 5.95 13.2392 5.98889 13.3337 6.06667C13.4281 6.14444 13.4976 6.23889 13.542 6.35C13.5864 6.46111 13.5948 6.57778 13.567 6.7C13.5392 6.82222 13.4698 6.92778 13.3587 7.01667L10.742 9.1L11.692 12.1667C11.7364 12.3111 11.7337 12.4417 11.6837 12.5583C11.6337 12.675 11.5587 12.7667 11.4587 12.8333C11.3587 12.9 11.2476 12.9361 11.1253 12.9417C11.0031 12.9472 10.8809 12.9056 10.7587 12.8167L8.292 10.95Z" fill="#D9D9D9"/>
<mask id="mask1_914_8643" style="mask-type:alpha" maskUnits="userSpaceOnUse" x="2" y="0" width="7" height="15">
<rect x="2" width="7" height="15" fill="#D9D9D9"/>
</mask>
<g mask="url(#mask1_914_8643)">
<path d="M8.292 10.95L5.82534 12.8167C5.70311 12.9056 5.58089 12.9472 5.45867 12.9417C5.33645 12.9361 5.22534 12.9 5.12534 12.8333C5.02534 12.7667 4.95034 12.675 4.90034 12.5583C4.85034 12.4417 4.84756 12.3111 4.892 12.1667L5.842 9.1L3.22534 7.01667C3.11422 6.92778 3.04478 6.82222 3.017 6.7C2.98922 6.57778 2.99756 6.46111 3.042 6.35C3.08645 6.23889 3.15589 6.14444 3.25034 6.06667C3.34478 5.98889 3.46422 5.95 3.60867 5.95H6.742L7.72534 2.91667C7.76978 2.77222 7.84478 2.66667 7.95034 2.6C8.05589 2.53333 8.16978 2.5 8.292 2.5C8.41422 2.5 8.52811 2.53333 8.63367 2.6C8.73922 2.66667 8.81422 2.77222 8.85867 2.91667L9.842 5.95H12.9753C13.1198 5.95 13.2392 5.98889 13.3337 6.06667C13.4281 6.14444 13.4976 6.23889 13.542 6.35C13.5864 6.46111 13.5948 6.57778 13.567 6.7C13.5392 6.82222 13.4698 6.92778 13.3587 7.01667L10.742 9.1L11.692 12.1667C11.7364 12.3111 11.7337 12.4417 11.6837 12.5583C11.6337 12.675 11.5587 12.7667 11.4587 12.8333C11.3587 12.9 11.2476 12.9361 11.1253 12.9417C11.0031 12.9472 10.8809 12.9056 10.7587 12.8167L8.292 10.95Z" fill="#FFB800"/>
</g>
</g>
</svg>
