<svg width="56" height="56" viewBox="0 0 56 56" fill="none" xmlns="http://www.w3.org/2000/svg">
<mask id="mask0_203_9836" style="mask-type:alpha" maskUnits="userSpaceOnUse" x="16" y="16" width="24" height="24">
<rect x="16" y="16" width="24" height="24" fill="#D9D9D9"/>
</mask>
<g mask="url(#mask0_203_9836)">
<path d="M23 34C22.7167 34 22.4792 33.9042 22.2875 33.7125C22.0958 33.5208 22 33.2833 22 33V31H35V22H37C37.2833 22 37.5208 22.0958 37.7125 22.2875C37.9042 22.4792 38 22.7167 38 23V35.575C38 36.025 37.7958 36.3375 37.3875 36.5125C36.9792 36.6875 36.6167 36.6167 36.3 36.3L34 34H23ZM22 29L19.7 31.3C19.3833 31.6167 19.0208 31.6875 18.6125 31.5125C18.2042 31.3375 18 31.025 18 30.575V19C18 18.7167 18.0958 18.4792 18.2875 18.2875C18.4792 18.0958 18.7167 18 19 18H32C32.2833 18 32.5208 18.0958 32.7125 18.2875C32.9042 18.4792 33 18.7167 33 19V28C33 28.2833 32.9042 28.5208 32.7125 28.7125C32.5208 28.9042 32.2833 29 32 29H22ZM31 27V20H20V27H31Z" fill="#EE7E19"/>
</g>
<rect x="1" y="1" width="54" height="54" rx="15" stroke="#333333" stroke-opacity="0.16" stroke-width="2"/>
</svg>
