<svg width="56" height="56" viewBox="0 0 56 56" fill="none" xmlns="http://www.w3.org/2000/svg">
<mask id="mask0_203_9848" style="mask-type:alpha" maskUnits="userSpaceOnUse" x="16" y="16" width="24" height="24">
<rect x="16" y="16" width="24" height="24" fill="#D9D9D9"/>
</mask>
<g mask="url(#mask0_203_9848)">
<path d="M22 38C21.45 38 20.9792 37.8042 20.5875 37.4125C20.1958 37.0208 20 36.55 20 36V20C20 19.45 20.1958 18.9792 20.5875 18.5875C20.9792 18.1958 21.45 18 22 18H29.175C29.4417 18 29.6958 18.05 29.9375 18.15C30.1792 18.25 30.3917 18.3917 30.575 18.575L35.425 23.425C35.6083 23.6083 35.75 23.8208 35.85 24.0625C35.95 24.3042 36 24.5583 36 24.825V28H34V25H30C29.7167 25 29.4792 24.9042 29.2875 24.7125C29.0958 24.5208 29 24.2833 29 24V20H22V36H28V38H22ZM34.3 30.525L35.375 31.6L31.5 35.45V36.5H32.55L36.425 32.65L37.475 33.7L33.475 37.7C33.375 37.8 33.2625 37.875 33.1375 37.925C33.0125 37.975 32.8833 38 32.75 38H30.5C30.3667 38 30.25 37.95 30.15 37.85C30.05 37.75 30 37.6333 30 37.5V35.25C30 35.1167 30.025 34.9875 30.075 34.8625C30.125 34.7375 30.2 34.625 30.3 34.525L34.3 30.525ZM37.475 33.7L34.3 30.525L35.75 29.075C35.9333 28.8917 36.1667 28.8 36.45 28.8C36.7333 28.8 36.9667 28.8917 37.15 29.075L38.925 30.85C39.1083 31.0333 39.2 31.2667 39.2 31.55C39.2 31.8333 39.1083 32.0667 38.925 32.25L37.475 33.7Z" fill="#EE7E19"/>
</g>
<rect x="1" y="1" width="54" height="54" rx="15" stroke="#333333" stroke-opacity="0.16" stroke-width="2"/>
</svg>
