<svg width="56" height="56" viewBox="0 0 56 56" fill="none" xmlns="http://www.w3.org/2000/svg">
<mask id="mask0_203_9842" style="mask-type:alpha" maskUnits="userSpaceOnUse" x="16" y="16" width="24" height="24">
<rect x="16" y="16" width="24" height="24" fill="#D9D9D9"/>
</mask>
<g mask="url(#mask0_203_9842)">
<path d="M28 35.35C30.0333 33.4833 31.5417 31.7875 32.525 30.2625C33.5083 28.7375 34 27.3833 34 26.2C34 24.3833 33.4208 22.8958 32.2625 21.7375C31.1042 20.5792 29.6833 20 28 20C26.3167 20 24.8958 20.5792 23.7375 21.7375C22.5792 22.8958 22 24.3833 22 26.2C22 27.3833 22.4917 28.7375 23.475 30.2625C24.4583 31.7875 25.9667 33.4833 28 35.35ZM28 37.325C27.7667 37.325 27.5333 37.2833 27.3 37.2C27.0667 37.1167 26.8583 36.9917 26.675 36.825C25.5917 35.825 24.6333 34.85 23.8 33.9C22.9667 32.95 22.2708 32.0292 21.7125 31.1375C21.1542 30.2458 20.7292 29.3875 20.4375 28.5625C20.1458 27.7375 20 26.95 20 26.2C20 23.7 20.8042 21.7083 22.4125 20.225C24.0208 18.7417 25.8833 18 28 18C30.1167 18 31.9792 18.7417 33.5875 20.225C35.1958 21.7083 36 23.7 36 26.2C36 26.95 35.8542 27.7375 35.5625 28.5625C35.2708 29.3875 34.8458 30.2458 34.2875 31.1375C33.7292 32.0292 33.0333 32.95 32.2 33.9C31.3667 34.85 30.4083 35.825 29.325 36.825C29.1417 36.9917 28.9333 37.1167 28.7 37.2C28.4667 37.2833 28.2333 37.325 28 37.325ZM28 28C28.55 28 29.0208 27.8042 29.4125 27.4125C29.8042 27.0208 30 26.55 30 26C30 25.45 29.8042 24.9792 29.4125 24.5875C29.0208 24.1958 28.55 24 28 24C27.45 24 26.9792 24.1958 26.5875 24.5875C26.1958 24.9792 26 25.45 26 26C26 26.55 26.1958 27.0208 26.5875 27.4125C26.9792 27.8042 27.45 28 28 28Z" fill="#EE7E19"/>
</g>
<rect x="1" y="1" width="54" height="54" rx="15" stroke="#333333" stroke-opacity="0.16" stroke-width="2"/>
</svg>
