<svg width="56" height="56" viewBox="0 0 56 56" fill="none" xmlns="http://www.w3.org/2000/svg">
<mask id="mask0_203_9860" style="mask-type:alpha" maskUnits="userSpaceOnUse" x="16" y="16" width="24" height="24">
<rect x="16" y="16" width="24" height="24" fill="#D9D9D9"/>
</mask>
<g mask="url(#mask0_203_9860)">
<path d="M27.885 36C27.9517 36 28.0183 35.9833 28.085 35.95C28.1517 35.9167 28.2017 35.8833 28.235 35.85L36.435 27.65C36.635 27.45 36.7808 27.225 36.8725 26.975C36.9642 26.725 37.01 26.475 37.01 26.225C37.01 25.9583 36.9642 25.7042 36.8725 25.4625C36.7808 25.2208 36.635 25.0083 36.435 24.825L32.185 20.575C32.0017 20.375 31.7892 20.2292 31.5475 20.1375C31.3058 20.0458 31.0517 20 30.785 20C30.535 20 30.285 20.0458 30.035 20.1375C29.785 20.2292 29.56 20.375 29.36 20.575L29.085 20.85L30.935 22.725C31.185 22.9583 31.3683 23.225 31.485 23.525C31.6017 23.825 31.66 24.1417 31.66 24.475C31.66 25.175 31.4225 25.7625 30.9475 26.2375C30.4725 26.7125 29.885 26.95 29.185 26.95C28.8517 26.95 28.5308 26.8917 28.2225 26.775C27.9142 26.6583 27.6433 26.4833 27.41 26.25L25.535 24.4L21.16 28.775C21.11 28.825 21.0725 28.8792 21.0475 28.9375C21.0225 28.9958 21.01 29.0583 21.01 29.125C21.01 29.2583 21.06 29.3792 21.16 29.4875C21.26 29.5958 21.3767 29.65 21.51 29.65C21.5767 29.65 21.6433 29.6333 21.71 29.6C21.7767 29.5667 21.8267 29.5333 21.86 29.5L25.26 26.1L26.66 27.5L23.285 30.9C23.235 30.95 23.1975 31.0042 23.1725 31.0625C23.1475 31.1208 23.135 31.1833 23.135 31.25C23.135 31.3833 23.185 31.5 23.285 31.6C23.385 31.7 23.5017 31.75 23.635 31.75C23.7017 31.75 23.7683 31.7333 23.835 31.7C23.9017 31.6667 23.9517 31.6333 23.985 31.6L27.385 28.225L28.785 29.625L25.41 33.025C25.36 33.0583 25.3225 33.1083 25.2975 33.175C25.2725 33.2417 25.26 33.3083 25.26 33.375C25.26 33.5083 25.31 33.625 25.41 33.725C25.51 33.825 25.6267 33.875 25.76 33.875C25.8267 33.875 25.8892 33.8625 25.9475 33.8375C26.0058 33.8125 26.06 33.775 26.11 33.725L29.51 30.35L30.91 31.75L27.51 35.15C27.46 35.2 27.4225 35.2542 27.3975 35.3125C27.3725 35.3708 27.36 35.4333 27.36 35.5C27.36 35.6333 27.4142 35.75 27.5225 35.85C27.6308 35.95 27.7517 36 27.885 36ZM27.86 38C27.2433 38 26.6975 37.7958 26.2225 37.3875C25.7475 36.9792 25.4683 36.4667 25.385 35.85C24.8183 35.7667 24.3433 35.5333 23.96 35.15C23.5767 34.7667 23.3433 34.2917 23.26 33.725C22.6933 33.6417 22.2225 33.4042 21.8475 33.0125C21.4725 32.6208 21.2433 32.15 21.16 31.6C20.5267 31.5167 20.01 31.2417 19.61 30.775C19.21 30.3083 19.01 29.7583 19.01 29.125C19.01 28.7917 19.0725 28.4708 19.1975 28.1625C19.3225 27.8542 19.5017 27.5833 19.735 27.35L25.535 21.575L28.81 24.85C28.8433 24.9 28.8933 24.9375 28.96 24.9625C29.0267 24.9875 29.0933 25 29.16 25C29.31 25 29.435 24.9542 29.535 24.8625C29.635 24.7708 29.685 24.65 29.685 24.5C29.685 24.4333 29.6725 24.3667 29.6475 24.3C29.6225 24.2333 29.585 24.1833 29.535 24.15L25.96 20.575C25.7767 20.375 25.5642 20.2292 25.3225 20.1375C25.0808 20.0458 24.8267 20 24.56 20C24.31 20 24.06 20.0458 23.81 20.1375C23.56 20.2292 23.335 20.375 23.135 20.575L19.61 24.125C19.46 24.275 19.335 24.45 19.235 24.65C19.135 24.85 19.0683 25.05 19.035 25.25C19.0017 25.45 19.0017 25.6542 19.035 25.8625C19.0683 26.0708 19.135 26.2667 19.235 26.45L17.785 27.9C17.5017 27.5167 17.2933 27.0958 17.16 26.6375C17.0267 26.1792 16.9767 25.7167 17.01 25.25C17.0433 24.7833 17.16 24.3292 17.36 23.8875C17.56 23.4458 17.835 23.05 18.185 22.7L21.71 19.175C22.11 18.7917 22.5558 18.5 23.0475 18.3C23.5392 18.1 24.0433 18 24.56 18C25.0767 18 25.5808 18.1 26.0725 18.3C26.5642 18.5 27.0017 18.7917 27.385 19.175L27.66 19.45L27.935 19.175C28.335 18.7917 28.7808 18.5 29.2725 18.3C29.7642 18.1 30.2683 18 30.785 18C31.3017 18 31.8058 18.1 32.2975 18.3C32.7892 18.5 33.2267 18.7917 33.61 19.175L37.835 23.4C38.2183 23.7833 38.51 24.225 38.71 24.725C38.91 25.225 39.01 25.7333 39.01 26.25C39.01 26.7667 38.91 27.2708 38.71 27.7625C38.51 28.2542 38.2183 28.6917 37.835 29.075L29.635 37.25C29.4017 37.4833 29.1308 37.6667 28.8225 37.8C28.5142 37.9333 28.1933 38 27.86 38Z" fill="#EE7E19"/>
</g>
<rect x="1" y="1" width="54" height="54" rx="15" stroke="#333333" stroke-opacity="0.16" stroke-width="2"/>
</svg>
