<svg width="56" height="56" viewBox="0 0 56 56" fill="none" xmlns="http://www.w3.org/2000/svg">
<mask id="mask0_203_9854" style="mask-type:alpha" maskUnits="userSpaceOnUse" x="16" y="16" width="24" height="24">
<rect x="16" y="16" width="24" height="24" fill="#D9D9D9"/>
</mask>
<g mask="url(#mask0_203_9854)">
<path d="M22 36C21.1667 36 20.4583 35.7083 19.875 35.125C19.2917 34.5417 19 33.8333 19 33H18C17.7167 33 17.4792 32.9042 17.2875 32.7125C17.0958 32.5208 17 32.2833 17 32V22C17 21.45 17.1958 20.9792 17.5875 20.5875C17.9792 20.1958 18.45 20 19 20H31C31.55 20 32.0208 20.1958 32.4125 20.5875C32.8042 20.9792 33 21.45 33 22V24H35C35.3167 24 35.6167 24.0708 35.9 24.2125C36.1833 24.3542 36.4167 24.55 36.6 24.8L38.8 27.725C38.8667 27.8083 38.9167 27.9 38.95 28C38.9833 28.1 39 28.2083 39 28.325V32C39 32.2833 38.9042 32.5208 38.7125 32.7125C38.5208 32.9042 38.2833 33 38 33H37C37 33.8333 36.7083 34.5417 36.125 35.125C35.5417 35.7083 34.8333 36 34 36C33.1667 36 32.4583 35.7083 31.875 35.125C31.2917 34.5417 31 33.8333 31 33H25C25 33.8333 24.7083 34.5417 24.125 35.125C23.5417 35.7083 22.8333 36 22 36ZM22 34C22.2833 34 22.5208 33.9042 22.7125 33.7125C22.9042 33.5208 23 33.2833 23 33C23 32.7167 22.9042 32.4792 22.7125 32.2875C22.5208 32.0958 22.2833 32 22 32C21.7167 32 21.4792 32.0958 21.2875 32.2875C21.0958 32.4792 21 32.7167 21 33C21 33.2833 21.0958 33.5208 21.2875 33.7125C21.4792 33.9042 21.7167 34 22 34ZM19 31H19.8C20.0833 30.7 20.4083 30.4583 20.775 30.275C21.1417 30.0917 21.55 30 22 30C22.45 30 22.8583 30.0917 23.225 30.275C23.5917 30.4583 23.9167 30.7 24.2 31H31V22H19V31ZM34 34C34.2833 34 34.5208 33.9042 34.7125 33.7125C34.9042 33.5208 35 33.2833 35 33C35 32.7167 34.9042 32.4792 34.7125 32.2875C34.5208 32.0958 34.2833 32 34 32C33.7167 32 33.4792 32.0958 33.2875 32.2875C33.0958 32.4792 33 32.7167 33 33C33 33.2833 33.0958 33.5208 33.2875 33.7125C33.4792 33.9042 33.7167 34 34 34ZM33 29H37.25L35 26H33V29Z" fill="#EE7E19"/>
</g>
<rect x="1" y="1" width="54" height="54" rx="15" stroke="#333333" stroke-opacity="0.16" stroke-width="2"/>
</svg>
