<svg width="56" height="56" viewBox="0 0 56 56" fill="none" xmlns="http://www.w3.org/2000/svg">
<mask id="mask0_203_9830" style="mask-type:alpha" maskUnits="userSpaceOnUse" x="16" y="16" width="24" height="24">
<rect x="16" y="16" width="24" height="24" fill="#D9D9D9"/>
</mask>
<g mask="url(#mask0_203_9830)">
<path d="M18 28C18 26.6167 18.2625 25.3167 18.7875 24.1C19.3125 22.8833 20.025 21.825 20.925 20.925C21.825 20.025 22.8833 19.3125 24.1 18.7875C25.3167 18.2625 26.6167 18 28 18C30.1167 18 32.0042 18.5833 33.6625 19.75C35.3208 20.9167 36.525 22.425 37.275 24.275C37.3917 24.5583 37.3958 24.8417 37.2875 25.125C37.1792 25.4083 36.9833 25.6 36.7 25.7C36.4333 25.7833 36.1792 25.7583 35.9375 25.625C35.6958 25.4917 35.525 25.2917 35.425 25.025C35.025 24.025 34.45 23.1417 33.7 22.375C32.95 21.6083 32.05 21.0167 31 20.6V21C31 21.55 30.8042 22.0208 30.4125 22.4125C30.0208 22.8042 29.55 23 29 23H27V25C27 25.2833 26.9042 25.5208 26.7125 25.7125C26.5208 25.9042 26.2833 26 26 26H24V28H25C25.2833 28 25.5208 28.0958 25.7125 28.2875C25.9042 28.4792 26 28.7167 26 29V31H25L20.2 26.2C20.15 26.5 20.1042 26.8 20.0625 27.1C20.0208 27.4 20 27.7 20 28C20 30.0333 20.6708 31.8083 22.0125 33.325C23.3542 34.8417 25.0417 35.7167 27.075 35.95C27.3417 35.9833 27.5625 36.0958 27.7375 36.2875C27.9125 36.4792 28 36.7167 28 37C28 37.2833 27.9042 37.5208 27.7125 37.7125C27.5208 37.9042 27.2917 37.9833 27.025 37.95C24.475 37.7 22.3333 36.6333 20.6 34.75C18.8667 32.8667 18 30.6167 18 28ZM36.4 36.8L33.9 34.3C33.55 34.5 33.175 34.6667 32.775 34.8C32.375 34.9333 31.95 35 31.5 35C30.25 35 29.1875 34.5625 28.3125 33.6875C27.4375 32.8125 27 31.75 27 30.5C27 29.25 27.4375 28.1875 28.3125 27.3125C29.1875 26.4375 30.25 26 31.5 26C32.75 26 33.8125 26.4375 34.6875 27.3125C35.5625 28.1875 36 29.25 36 30.5C36 30.95 35.9333 31.375 35.8 31.775C35.6667 32.175 35.5 32.55 35.3 32.9L37.8 35.4C37.9833 35.5833 38.075 35.8167 38.075 36.1C38.075 36.3833 37.9833 36.6167 37.8 36.8C37.6167 36.9833 37.3833 37.075 37.1 37.075C36.8167 37.075 36.5833 36.9833 36.4 36.8ZM31.5 33C32.2 33 32.7917 32.7583 33.275 32.275C33.7583 31.7917 34 31.2 34 30.5C34 29.8 33.7583 29.2083 33.275 28.725C32.7917 28.2417 32.2 28 31.5 28C30.8 28 30.2083 28.2417 29.725 28.725C29.2417 29.2083 29 29.8 29 30.5C29 31.2 29.2417 31.7917 29.725 32.275C30.2083 32.7583 30.8 33 31.5 33Z" fill="#EE7E19"/>
</g>
<rect x="1" y="1" width="54" height="54" rx="15" stroke="#333333" stroke-opacity="0.16" stroke-width="2"/>
</svg>
