<svg width="67" height="14" viewBox="0 0 67 14" fill="none" xmlns="http://www.w3.org/2000/svg">
<path d="M0.0439453 2.09609L3.05188 6.45441H0.0439453V13.6702H3.31256V0.28698H0.0439453V2.09609Z" fill="#808080"/>
<path d="M13.9604 6.57857C15.2638 6.10571 15.9055 5.13951 15.9055 3.67988C15.9055 2.5492 15.5044 1.70632 14.7223 1.13069C13.9403 0.575625 12.7973 0.287813 11.3334 0.287813H5.59827V10.1557L8.20513 13.6916H11.1128C11.7946 13.6916 12.4363 13.6299 12.9978 13.5272C13.5793 13.4038 14.1408 13.2188 14.6822 12.9515C15.2237 12.6843 15.6448 12.2937 15.9656 11.7797C16.2865 11.2658 16.4268 10.6491 16.4268 9.90896C16.4268 8.18209 15.6047 7.07198 13.9604 6.57857ZM8.88694 3.06315H11.0126C11.4537 3.06315 11.8147 3.16593 12.0753 3.39208C12.3361 3.61821 12.4564 3.92658 12.4564 4.29663C12.4564 4.68723 12.3361 4.97504 12.0753 5.20118C11.8147 5.42732 11.4738 5.53011 11.0126 5.53011L8.88694 5.50955V3.06315ZM11.2331 10.9163H8.86691V8.12044H11.2131C12.3762 8.12044 12.9577 8.59324 12.9577 9.51835C12.9577 10.4435 12.3762 10.9163 11.2331 10.9163ZM27.1953 9.4978L26.5536 8.55214C27.8771 7.81203 28.6792 6.55802 28.6792 4.79002C28.6792 3.94714 28.5388 3.22761 28.238 2.61087C27.9372 1.99413 27.5161 1.5213 26.9947 1.21292C26.4733 0.883995 25.8918 0.657857 25.2902 0.513951C24.6886 0.370044 24.0269 0.287813 23.3251 0.287813H18.011V2.09692L21.0189 6.45522H18.011V13.6916H21.2796V6.82528L24.4681 11.4508C25.1298 12.2731 26.0924 13.6711 28.8596 13.6711V10.3407C27.9171 10.3407 27.5161 9.99121 27.1953 9.4978ZM24.9293 6.04407C24.6285 6.31132 24.2274 6.45522 23.706 6.45522H21.2796V3.35096H23.706C24.2074 3.35096 24.6285 3.49486 24.9293 3.76212C25.2301 4.02937 25.3704 4.41998 25.3704 4.91337C25.3704 5.40676 25.2301 5.77681 24.9293 6.04407ZM63.7318 0.287813V6.45522H58.8791V0.287813H55.6102V2.07636L58.6182 6.43467H55.6102V13.6711H58.8791V6.82528L60.8041 9.62115H63.7318V13.6916H67V0.287813H63.7318ZM38.9262 8.36714C38.9262 9.99121 38.1241 10.793 36.4998 10.793C34.8755 10.793 34.0734 9.99121 34.0734 8.36714V0.287813H30.8048V8.57269C30.8048 9.5389 30.9652 10.3818 31.3061 11.1013C31.647 11.8209 32.0882 12.3759 32.6697 12.7871C33.2512 13.1982 33.8729 13.486 34.5346 13.6711C35.1963 13.8561 35.7378 13.9589 36.4998 13.9589C37.2618 13.9589 37.9636 13.8561 38.6454 13.6711C39.3072 13.486 39.7483 13.1777 40.3299 12.7871C40.9114 12.3759 41.3526 11.8209 41.6935 11.1013C42.0344 10.3818 42.1948 9.5389 42.1948 8.57269V0.287813H38.9262V8.36714ZM52.1811 6.59912C51.6798 6.29077 50.8777 6.02352 50.2962 5.77681C49.7147 5.53011 49.1732 5.32453 48.6719 5.18062C48.1706 5.03671 47.7495 4.85169 47.4086 4.64612C47.0677 4.44053 46.9072 4.19384 46.9072 3.92658C46.9072 3.37152 47.7093 2.91924 48.8323 2.89868C50.4566 2.87813 51.8202 3.28929 52.9432 4.15272V1.06902C51.6798 0.349486 50.236 0 48.5315 0C47.1078 0 45.9246 0.328929 45.0022 1.00734C44.0798 1.68576 43.6186 2.65198 43.6186 3.92658C43.6186 4.81058 43.8592 5.55066 44.3204 6.18797C44.7816 6.80473 45.3431 7.27753 46.0249 7.58594C46.6867 7.89429 47.5891 8.16154 48.2508 8.38769C48.9125 8.61379 49.474 8.83995 49.9553 9.1072C50.4165 9.3539 50.6572 9.66225 50.6572 10.0118C50.6572 10.3407 50.5168 10.6902 50.216 10.8341C49.9152 10.978 49.4139 11.0397 48.7321 11.0397C46.9875 11.0397 45.1827 10.5463 43.7589 9.5389V12.7665C45.2028 13.5888 46.8671 14 48.7722 14C52.2614 14 53.9859 12.6432 53.9859 9.90896C53.9859 9.1689 53.8255 8.51105 53.4846 7.95593C53.1036 7.33923 52.6825 6.90747 52.1811 6.59912Z" fill="#808080"/>
</svg>
