<?xml version="1.0" encoding="utf-8"?><svg viewBox="0 0 448 512" xmlns="http://www.w3.org/2000/svg" xmlns:xlink="http://www.w3.org/1999/xlink"><style>:root>svg{display:none}:root>svg:target{display:block}</style><svg viewBox="0 0 24 24" id="add-to-cart" xmlns="http://www.w3.org/2000/svg"><g mask="url(#a)"><path d="M11 9V6H8V4h3V1h2v3h3v2h-3v3h-2zM7 22c-.55 0-1.02-.196-1.412-.587A1.926 1.926 0 015 20c0-.55.196-1.02.588-1.413A1.926 1.926 0 017 18c.55 0 1.02.196 1.412.587C8.804 18.98 9 19.45 9 20s-.196 1.02-.588 1.413A1.926 1.926 0 017 22zm10 0c-.55 0-1.02-.196-1.412-.587A1.926 1.926 0 0115 20c0-.55.196-1.02.588-1.413A1.926 1.926 0 0117 18c.55 0 1.02.196 1.413.587.391.392.587.863.587 1.413s-.196 1.02-.587 1.413A1.926 1.926 0 0117 22zM7 17c-.75 0-1.325-.33-1.725-.988-.4-.658-.408-1.312-.025-1.962L6.6 11.6 3 4H1V2h3.275l4.25 9h7.025l3.875-7 1.75.95-3.875 7a2.034 2.034 0 01-.725.775A1.93 1.93 0 0115.55 13H8.1L7 15h12v2H7z"/></g></svg><svg viewBox="0 0 14 10" id="arrow" xmlns="http://www.w3.org/2000/svg"><path d="M9.188 10l-.93-.966 3.226-3.352H0V4.318h11.484L8.258.966 9.188 0 14 5l-4.813 5z"/></svg><svg viewBox="0 0 24 24" id="arrow-left" xmlns="http://www.w3.org/2000/svg"><g mask="url(#a)"><path d="M7.825 11H20v2H7.825l5.6 5.6L12 20l-8-8 8-8 1.425 1.4-5.6 5.6z"/></g></svg><svg viewBox="0 0 24 24" id="cart" xmlns="http://www.w3.org/2000/svg"><g mask="url(#a)"><path d="M17 22c.55 0 1.02-.196 1.413-.587.391-.392.587-.863.587-1.413s-.196-1.02-.587-1.413A1.926 1.926 0 0017 18c-.55 0-1.02.196-1.412.587A1.926 1.926 0 0015 20c0 .55.196 1.02.588 1.413.391.391.862.587 1.412.587zM7 22c.55 0 1.02-.196 1.412-.587C8.804 21.02 9 20.55 9 20s-.196-1.02-.588-1.413A1.926 1.926 0 007 18c-.55 0-1.02.196-1.412.587A1.926 1.926 0 005 20c0 .55.196 1.02.588 1.413.391.391.862.587 1.412.587zM18.8 4H4.05c-.383 0-.675.17-.875.513-.2.341-.208.687-.025 1.037l3.55 6.4c.183.333.43.592.737.775A1.95 1.95 0 008.45 13h7.45l1.1 2H6a.967.967 0 00-.713.287A.968.968 0 005 16c0 .283.096.52.287.712.192.192.43.288.713.288h11c.75 0 1.317-.33 1.7-.988.383-.658.4-1.312.05-1.962L17.4 11.6 21 4h1c.283 0 .52-.096.712-.288A.967.967 0 0023 3a.967.967 0 00-.288-.712A.968.968 0 0022 2h-1.625c-.183 0-.358.05-.525.15a.932.932 0 00-.375.425L18.8 4z"/></g></svg><svg fill="none" viewBox="0 0 24 24" id="catalog" xmlns="http://www.w3.org/2000/svg"><mask id="ea" style="mask-type:alpha" maskUnits="userSpaceOnUse" x="0" y="0" width="24" height="24"><path fill="#D9D9D9" d="M0 0h24v24H0z"/></mask><g mask="url(#ea)"><path d="M5 11c-.55 0-1.02-.196-1.413-.588A1.926 1.926 0 013 9V5c0-.55.196-1.02.587-1.413A1.926 1.926 0 015 3h4c.55 0 1.02.196 1.412.587C10.804 3.98 11 4.45 11 5v4c0 .55-.196 1.02-.588 1.412A1.926 1.926 0 019 11H5zm0 10c-.55 0-1.02-.196-1.413-.587A1.926 1.926 0 013 19v-4c0-.55.196-1.02.587-1.412A1.926 1.926 0 015 13h4c.55 0 1.02.196 1.412.588.392.391.588.862.588 1.412v4c0 .55-.196 1.02-.588 1.413A1.926 1.926 0 019 21H5zm10-10c-.55 0-1.02-.196-1.412-.588A1.926 1.926 0 0113 9V5c0-.55.196-1.02.588-1.413A1.926 1.926 0 0115 3h4c.55 0 1.02.196 1.413.587.39.393.587.863.587 1.413v4c0 .55-.196 1.02-.587 1.412A1.926 1.926 0 0119 11h-4zm0 10c-.55 0-1.02-.196-1.412-.587A1.926 1.926 0 0113 19v-4c0-.55.196-1.02.588-1.412A1.926 1.926 0 0115 13h4c.55 0 1.02.196 1.413.588.391.391.587.862.587 1.412v4c0 .55-.196 1.02-.587 1.413A1.926 1.926 0 0119 21h-4z" fill="#fff"/></g></svg><svg viewBox="0 0 448 512" id="check" xmlns="http://www.w3.org/2000/svg"><!--! Font Awesome Pro 6.4.2 by @fontawesome - https://fontawesome.com License - https://fontawesome.com/license (Commercial License) Copyright 2023 Fonticons, Inc.--><path d="M438.6 105.4c12.5 12.5 12.5 32.8 0 45.3l-256 256c-12.5 12.5-32.8 12.5-45.3 0l-128-128c-12.5-12.5-12.5-32.8 0-45.3s32.8-12.5 45.3 0L160 338.7l233.4-233.3c12.5-12.5 32.8-12.5 45.3 0z"/></svg><svg viewBox="0 0 14 14" id="close" xmlns="http://www.w3.org/2000/svg"><path d="M1.4 14L0 12.6 5.6 7 0 1.4 1.4 0 7 5.6 12.6 0 14 1.4 8.4 7l5.6 5.6-1.4 1.4L7 8.4 1.4 14z"/></svg><svg viewBox="0 0 24 24" id="compare" xmlns="http://www.w3.org/2000/svg"><g mask="url(#a)"><path d="M6 20c-.55 0-1.02-.196-1.412-.587A1.926 1.926 0 014 18v-7c0-.55.196-1.02.588-1.412A1.926 1.926 0 016 9c.55 0 1.02.196 1.412.588C7.804 9.979 8 10.45 8 11v7c0 .55-.196 1.02-.588 1.413A1.926 1.926 0 016 20zm6 0c-.55 0-1.02-.196-1.412-.587A1.926 1.926 0 0110 18V6c0-.55.196-1.02.588-1.412A1.926 1.926 0 0112 4c.55 0 1.02.196 1.412.588.392.391.588.862.588 1.412v12c0 .55-.196 1.02-.588 1.413A1.926 1.926 0 0112 20zm6 0c-.55 0-1.02-.196-1.413-.587A1.926 1.926 0 0116 18v-3c0-.55.196-1.02.587-1.412A1.926 1.926 0 0118 13c.55 0 1.02.196 1.413.588.391.391.587.862.587 1.412v3c0 .55-.196 1.02-.587 1.413A1.926 1.926 0 0118 20z"/></g></svg><svg viewBox="0 0 16 16" id="dropdown" xmlns="http://www.w3.org/2000/svg"><g mask="url(#a)"><path d="M8 11.375L3.874 7.247l.978-.977L8 9.42l3.15-3.15.977.977L8 11.375z"/></g></svg><svg viewBox="0 0 24 24" id="favorite" xmlns="http://www.w3.org/2000/svg"><g mask="url(#a)"><path d="M12 20.325c.233 0 .47-.042.713-.125.241-.083.454-.217.637-.4l1.725-1.575a68.37 68.37 0 004.788-4.813C21.288 11.821 22 10.067 22 8.15c0-1.567-.525-2.875-1.575-3.925-1.05-1.05-2.358-1.575-3.925-1.575-.883 0-1.717.187-2.5.562a5.956 5.956 0 00-2 1.538 5.956 5.956 0 00-2-1.538 5.717 5.717 0 00-2.5-.562c-1.567 0-2.875.525-3.925 1.575C2.525 5.275 2 6.583 2 8.15c0 1.917.708 3.675 2.125 5.275A59.858 59.858 0 008.95 18.25l1.7 1.55c.183.183.396.317.637.4.242.083.48.125.713.125z"/></g></svg><svg viewBox="0 0 20 18" id="favorite-border" xmlns="http://www.w3.org/2000/svg"><path d="M9.343 16.274l-.016-.015-.017-.015-1.724-1.514a66.101 66.101 0 01-4.717-4.56C1.592 8.798 1 7.346 1 5.79c0-1.245.422-2.24 1.268-3.054C3.117 1.919 4.17 1.5 5.5 1.5c.743 0 1.433.15 2.082.45a4.934 4.934 0 011.667 1.23l.751.854.75-.854a4.935 4.935 0 011.668-1.23A4.907 4.907 0 0114.5 1.5c1.33 0 2.383.42 3.232 1.236C18.578 3.55 19 4.545 19 5.79c0 1.558-.59 3.015-1.86 4.396a57.763 57.763 0 01-4.744 4.562l-.005.004-1.7 1.491-.018.015-.016.016a.664.664 0 01-.26.157c-.149.05-.28.069-.397.069-.117 0-.248-.02-.398-.07a.664.664 0 01-.259-.156z"/></svg><svg viewBox="0 0 24 24" id="frame" xmlns="http://www.w3.org/2000/svg"><g mask="url(#a)"><path d="M6.417 14.487v-1.083h11.166v1.083H6.417zm0-2.404V11h11.166v1.083H6.417zm5.041 8.5v-2.51l-1.395 1.396-.774-.774L12 15.984l2.712 2.711-.774.774-1.396-1.411v2.525h-1.084zM12 9.503L9.29 6.792l.774-.774 1.395 1.395v-2.51h1.084v2.51l1.396-1.395.774.774L12 9.503z"/></g></svg><svg fill="none" viewBox="0 0 48 48" id="location" xmlns="http://www.w3.org/2000/svg"><mask id="ma" style="mask-type:alpha" maskUnits="userSpaceOnUse" x="0" y="0" width="48" height="48"><path fill="#D9D9D9" d="M0 0h48v48H0z"/></mask><g mask="url(#ma)"><circle cx="24" cy="19" r="6" fill="#0A4881"/><path d="M23.992 42.883c-.395 0-.786-.066-1.175-.2a2.77 2.77 0 01-1.034-.633 96.673 96.673 0 01-4.95-4.867 47.33 47.33 0 01-4.425-5.391c-1.305-1.861-2.366-3.756-3.183-5.684C8.408 24.181 8 22.278 8 20.4c0-5 1.608-8.983 4.825-11.95C16.042 5.483 19.767 4 24 4c4.233 0 7.958 1.483 11.175 4.45C38.392 11.417 40 15.4 40 20.4c0 1.878-.408 3.78-1.225 5.708-.817 1.928-1.878 3.823-3.183 5.684a47.32 47.32 0 01-4.425 5.391 96.631 96.631 0 01-4.95 4.867c-.3.289-.648.5-1.042.633-.394.134-.789.2-1.183.2zm.01-19.216c1.01 0 1.873-.36 2.59-1.078.716-.719 1.075-1.583 1.075-2.592 0-1.01-.36-1.872-1.078-2.589-.719-.716-1.583-1.075-2.592-1.075-1.01 0-1.872.36-2.589 1.078-.716.719-1.075 1.583-1.075 2.592 0 1.01.36 1.872 1.078 2.589.719.716 1.583 1.075 2.592 1.075z" fill="#0A4881"/><path fill-rule="evenodd" clip-rule="evenodd" d="M32.4 21.956a8.403 8.403 0 01-8.004 5.844c-3.748 0-7.174-2.656-8.121-6.256 8.764 3.226 9.623-2.057 16.128.41m.355-2.843h-.01s.024.005.01 0zm.037.02c.002.089.005.177.005.265 0 .234-.01.462-.028.69-3.7-1.33-5.743-.454-7.834.444-.412.176-.801.332-1.17.466-2.228.812-3.735.84-5.791.198a12.293 12.293 0 01-.457-.18c.156.066.309.123.457.18a24.131 24.131 0 01-1.907-.703 8.464 8.464 0 01-.018-2.026c6.44 2.376 8.62.158 11.892-.213a7.693 7.693 0 011.73-.005c.893.096 1.894.355 3.077.859l.044.023v.002zm-.714-3.135c.14.316.262.643.364.98-3.624-1.268-5.647-.402-7.717.485-.827.356-1.554.623-2.225.807-1.51.412-2.734.402-4.202.013-.641-.169-1.326-.413-2.101-.721a8.222 8.222 0 01.578-1.702c5.245 1.647 7.442.04 10.21-.477a7.956 7.956 0 012.99-.008c.638.117 1.33.317 2.103.623zM24.4 11c2.36 0 4.492.975 6.02 2.542-2.602-.506-4.29.218-6.01.954-.983.423-1.823.721-2.599.903-1.216.285-2.267.278-3.455.01-.37-.083-.755-.194-1.162-.329A8.396 8.396 0 0124.4 11z" fill="#fff"/></g></svg><svg viewBox="0 0 48 48" id="location-logo" xmlns="http://www.w3.org/2000/svg"><mask id="na" style="mask-type:alpha" maskUnits="userSpaceOnUse" x="0" y="0" width="48" height="48"><path fill="#D9D9D9" d="M0 0h48v48H0z"/></mask><g mask="url(#na)"><circle cx="24" cy="19" r="6"/><path d="M23.992 42.883c-.395 0-.786-.066-1.175-.2a2.77 2.77 0 01-1.034-.633 96.673 96.673 0 01-4.95-4.867 47.33 47.33 0 01-4.425-5.391c-1.305-1.861-2.366-3.756-3.183-5.684C8.408 24.181 8 22.278 8 20.4c0-5 1.608-8.983 4.825-11.95C16.042 5.483 19.767 4 24 4c4.233 0 7.958 1.483 11.175 4.45C38.392 11.417 40 15.4 40 20.4c0 1.878-.408 3.78-1.225 5.708-.817 1.928-1.878 3.823-3.183 5.684a47.32 47.32 0 01-4.425 5.391 96.631 96.631 0 01-4.95 4.867c-.3.289-.648.5-1.042.633-.394.134-.789.2-1.183.2zm.01-19.216c1.01 0 1.873-.36 2.59-1.078.716-.719 1.075-1.583 1.075-2.592 0-1.01-.36-1.872-1.078-2.589-.719-.716-1.583-1.075-2.592-1.075-1.01 0-1.872.36-2.589 1.078-.716.719-1.075 1.583-1.075 2.592 0 1.01.36 1.872 1.078 2.589.719.716 1.583 1.075 2.592 1.075z"/><path fill-rule="evenodd" clip-rule="evenodd" d="M32.4 21.956a8.403 8.403 0 01-8.004 5.844c-3.748 0-7.174-2.656-8.121-6.256 8.764 3.226 9.623-2.057 16.128.41m.355-2.843h-.01s.024.005.01 0zm.037.02c.002.089.005.177.005.265 0 .234-.01.462-.028.69-3.7-1.33-5.743-.454-7.834.444-.412.176-.801.332-1.17.466-2.228.812-3.735.84-5.791.198a12.293 12.293 0 01-.457-.18c.156.066.309.123.457.18a24.131 24.131 0 01-1.907-.703 8.464 8.464 0 01-.018-2.026c6.44 2.376 8.62.158 11.892-.213a7.693 7.693 0 011.73-.005c.893.096 1.894.355 3.077.859l.044.023v.002zm-.714-3.135c.14.316.262.643.364.98-3.624-1.268-5.647-.402-7.717.485-.827.356-1.554.623-2.225.807-1.51.412-2.734.402-4.202.013-.641-.169-1.326-.413-2.101-.721a8.222 8.222 0 01.578-1.702c5.245 1.647 7.442.04 10.21-.477a7.956 7.956 0 012.99-.008c.638.117 1.33.317 2.103.623zM24.4 11c2.36 0 4.492.975 6.02 2.542-2.602-.506-4.29.218-6.01.954-.983.423-1.823.721-2.599.903-1.216.285-2.267.278-3.455.01-.37-.083-.755-.194-1.162-.329A8.396 8.396 0 0124.4 11z" fill="#fff"/></g></svg><svg viewBox="0 0 24 24" id="logo-icon" xmlns="http://www.w3.org/2000/svg"><g clip-path="url(#oa)"><g mask="url(#oa)"><path fill-rule="evenodd" clip-rule="evenodd" d="M18.667 14.13a7.003 7.003 0 01-6.67 4.87c-3.124 0-5.979-2.213-6.768-5.213 7.304 2.688 8.02-1.715 13.44.341m.296-2.369h-.008s.02.004.008 0zm.03.017a7.185 7.185 0 01-.02.795c-3.081-1.108-4.784-.377-6.527.37-.343.147-.667.277-.974.39-1.857.676-3.113.7-4.827.164-.125-.048-.25-.095-.38-.15.13.055.257.102.38.15a20.067 20.067 0 01-1.589-.586 7.053 7.053 0 01-.015-1.688c5.367 1.98 7.183.132 9.91-.178.45-.051.924-.06 1.442-.004.744.08 1.578.296 2.564.716l.037.02v.001zm-.594-2.613c.117.264.219.536.303.817-3.02-1.057-4.706-.335-6.43.404-.69.296-1.295.519-1.855.672-1.258.344-2.278.336-3.502.011a15.417 15.417 0 01-1.75-.6c.11-.496.272-.971.481-1.419 4.371 1.373 6.202.033 8.508-.397a6.63 6.63 0 012.492-.007 9.318 9.318 0 011.753.519zM12 5c1.967 0 3.744.813 5.017 2.118-2.168-.421-3.575.182-5.008.796-.82.352-1.52.6-2.166.752a6.089 6.089 0 01-2.88.009c-.308-.07-.628-.163-.968-.275A6.996 6.996 0 0112 5z"/></g></g><defs><clipPath id="oa"/></defs></svg><svg viewBox="0 0 16 16" id="near-me" xmlns="http://www.w3.org/2000/svg"><g mask="url(#a)"><path d="M6.933 9.066L3.117 7.65a.717.717 0 01-.292-.234.556.556 0 01-.108-.333.55.55 0 01.1-.325.682.682 0 01.283-.225L12.317 2.9a.507.507 0 01.358-.034.66.66 0 01.292.167.66.66 0 01.166.292.507.507 0 01-.033.358L9.467 12.9a.682.682 0 01-.225.283.55.55 0 01-.325.1.556.556 0 01-.334-.108.717.717 0 01-.233-.292L6.933 9.066z"/></g></svg><svg viewBox="0 0 11 13" id="play" xmlns="http://www.w3.org/2000/svg"><path d="M1.525 12.222c-.333.217-.67.23-1.012.038C.17 12.068 0 11.772 0 11.372V1.022c0-.4.17-.695.512-.887.342-.192.68-.18 1.013.037l8.15 5.175c.3.2.45.484.45.85 0 .367-.15.65-.45.85l-8.15 5.175z"/></svg><svg viewBox="0 0 24 24" id="search" xmlns="http://www.w3.org/2000/svg"><g mask="url(#a)"><path d="M9.5 16c-1.817 0-3.354-.63-4.612-1.887C3.629 12.854 3 11.317 3 9.5c0-1.817.63-3.354 1.888-4.612C6.146 3.629 7.683 3 9.5 3c1.817 0 3.354.63 4.613 1.888C15.37 6.146 16 7.683 16 9.5a6.096 6.096 0 01-1.3 3.8l5.6 5.6a.948.948 0 01.275.7.948.948 0 01-.275.7.948.948 0 01-.7.275.948.948 0 01-.7-.275l-5.6-5.6A6.096 6.096 0 019.5 16zm0-2c1.25 0 2.313-.438 3.188-1.313C13.562 11.813 14 10.75 14 9.5c0-1.25-.438-2.313-1.313-3.188C11.813 5.438 10.75 5 9.5 5c-1.25 0-2.313.438-3.188 1.313S5 8.25 5 9.5c0 1.25.438 2.313 1.313 3.188C7.188 13.562 8.25 14 9.5 14z"/></g></svg><svg viewBox="0 0 20 20" id="shipping" xmlns="http://www.w3.org/2000/svg"><g mask="url(#a)"><path d="M5 16a2.411 2.411 0 01-1.77-.73 2.41 2.41 0 01-.73-1.77H1V5c0-.412.147-.766.44-1.06.294-.293.647-.44 1.06-.44H14v3h2.5L19 10v3.5h-1.5c0 .694-.243 1.285-.73 1.77A2.411 2.411 0 0115 16a2.411 2.411 0 01-1.77-.73 2.411 2.411 0 01-.73-1.77h-5a2.41 2.41 0 01-.73 1.77A2.411 2.411 0 015 16zm0-1.5c.283 0 .52-.096.713-.287A.968.968 0 006 13.5a.968.968 0 00-.287-.713A.967.967 0 005 12.5a.967.967 0 00-.713.287A.968.968 0 004 13.5c0 .283.096.52.287.713.192.191.43.287.713.287zm10 0c.283 0 .52-.096.713-.287A.968.968 0 0016 13.5a.968.968 0 00-.287-.713A.968.968 0 0015 12.5a.968.968 0 00-.713.287.968.968 0 00-.287.713c0 .283.096.52.287.713.192.191.43.287.713.287zm-1-4l3.5-.02L15.73 8H14v2.5z"/></g></svg><svg viewBox="0 0 20 20" id="telegram" xmlns="http://www.w3.org/2000/svg"><g mask="url(#a)"><path fill-rule="evenodd" clip-rule="evenodd" d="M2.1 9.596c4.295-1.834 7.159-3.044 8.592-3.628C14.783 4.3 15.633 4.01 16.188 4c.122-.002.394.028.57.168.15.119.19.279.21.391.02.113.044.369.025.569-.222 2.284-1.181 7.826-1.67 10.385-.206 1.082-.613 1.445-1.006 1.48-.856.078-1.505-.554-2.334-1.086-1.297-.834-2.03-1.352-3.288-2.166-1.455-.94-.512-1.456.317-2.3.217-.221 3.987-3.583 4.06-3.888.01-.038.018-.18-.069-.255-.086-.075-.213-.05-.305-.029-.13.029-2.201 1.371-6.214 4.027-.588.396-1.12.589-1.598.579-.526-.011-1.538-.292-2.29-.532-.923-.294-1.656-.45-1.592-.949.033-.26.398-.526 1.096-.798z"/></g></svg><svg viewBox="0 0 18 18" id="whatsapp" xmlns="http://www.w3.org/2000/svg"><path d="M.116 8.92c0 1.571.41 3.106 1.19 4.458L.042 18l4.73-1.24a8.916 8.916 0 004.264 1.086h.003c4.918 0 8.92-4.002 8.923-8.92a8.866 8.866 0 00-2.611-6.31A8.867 8.867 0 009.038 0C4.12 0 .118 4.001.116 8.919m2.817 4.226l-.177-.28A7.395 7.395 0 011.622 8.92c.002-4.088 3.328-7.413 7.419-7.413 1.981 0 3.843.773 5.243 2.174a7.368 7.368 0 012.17 5.245c-.002 4.087-3.328 7.413-7.416 7.413h-.003a7.407 7.407 0 01-3.774-1.033l-.271-.16-2.807.735.75-2.736zm6.105 4.7z" fill="url(#ua)"/><path fill-rule="evenodd" clip-rule="evenodd" d="M6.808 5.19c-.167-.371-.343-.379-.502-.385-.13-.006-.279-.005-.427-.005a.819.819 0 00-.595.278c-.204.224-.78.763-.78 1.86s.799 2.157.91 2.305c.112.149 1.543 2.472 3.808 3.365 1.884.743 2.267.595 2.676.558.408-.037 1.319-.539 1.504-1.06.186-.52.186-.966.13-1.06-.055-.092-.204-.148-.427-.26-.223-.111-1.319-.65-1.523-.725-.205-.074-.353-.111-.502.112-.149.223-.576.725-.706.874-.13.149-.26.167-.483.056-.223-.112-.94-.347-1.793-1.107-.662-.59-1.11-1.32-1.24-1.544-.13-.223-.014-.343.098-.455.1-.1.223-.26.335-.39.11-.13.148-.223.222-.372.075-.149.037-.279-.018-.39-.056-.112-.49-1.214-.688-1.655"/><defs><linearGradient id="ua" x1="9.001" y1="18.001" x2="9.001" y2=".001" gradientUnits="userSpaceOnUse"><stop offset="1" stop-color="#fff"/></linearGradient></defs></svg></svg>