<?xml version="1.0" encoding="utf-8"?><svg viewBox="0 0 24 24" xmlns="http://www.w3.org/2000/svg" xmlns:xlink="http://www.w3.org/1999/xlink"><style>:root>svg{display:none}:root>svg:target{display:block}</style><svg viewBox="0 0 24 24" id="add-to-cart" xmlns="http://www.w3.org/2000/svg"><g mask="url(#a)"><path d="M11 9V6H8V4h3V1h2v3h3v2h-3v3h-2zM7 22c-.55 0-1.02-.196-1.412-.587A1.926 1.926 0 015 20c0-.55.196-1.02.588-1.413A1.926 1.926 0 017 18c.55 0 1.02.196 1.412.587C8.804 18.98 9 19.45 9 20s-.196 1.02-.588 1.413A1.926 1.926 0 017 22zm10 0c-.55 0-1.02-.196-1.412-.587A1.926 1.926 0 0115 20c0-.55.196-1.02.588-1.413A1.926 1.926 0 0117 18c.55 0 1.02.196 1.413.587.391.392.587.863.587 1.413s-.196 1.02-.587 1.413A1.926 1.926 0 0117 22zM7 17c-.75 0-1.325-.33-1.725-.988-.4-.658-.408-1.312-.025-1.962L6.6 11.6 3 4H1V2h3.275l4.25 9h7.025l3.875-7 1.75.95-3.875 7a2.034 2.034 0 01-.725.775A1.93 1.93 0 0115.55 13H8.1L7 15h12v2H7z"/></g></svg><svg viewBox="0 0 24 24" id="arrow-left" xmlns="http://www.w3.org/2000/svg"><g mask="url(#a)"><path d="M7.825 11H20v2H7.825l5.6 5.6L12 20l-8-8 8-8 1.425 1.4-5.6 5.6z"/></g></svg><svg viewBox="0 0 24 24" id="cart" xmlns="http://www.w3.org/2000/svg"><g mask="url(#a)"><path d="M17 22c.55 0 1.02-.196 1.413-.587.391-.392.587-.863.587-1.413s-.196-1.02-.587-1.413A1.926 1.926 0 0017 18c-.55 0-1.02.196-1.412.587A1.926 1.926 0 0015 20c0 .55.196 1.02.588 1.413.391.391.862.587 1.412.587zM7 22c.55 0 1.02-.196 1.412-.587C8.804 21.02 9 20.55 9 20s-.196-1.02-.588-1.413A1.926 1.926 0 007 18c-.55 0-1.02.196-1.412.587A1.926 1.926 0 005 20c0 .55.196 1.02.588 1.413.391.391.862.587 1.412.587zM18.8 4H4.05c-.383 0-.675.17-.875.513-.2.341-.208.687-.025 1.037l3.55 6.4c.183.333.43.592.737.775A1.95 1.95 0 008.45 13h7.45l1.1 2H6a.967.967 0 00-.713.287A.968.968 0 005 16c0 .283.096.52.287.712.192.192.43.288.713.288h11c.75 0 1.317-.33 1.7-.988.383-.658.4-1.312.05-1.962L17.4 11.6 21 4h1c.283 0 .52-.096.712-.288A.967.967 0 0023 3a.967.967 0 00-.288-.712A.968.968 0 0022 2h-1.625c-.183 0-.358.05-.525.15a.932.932 0 00-.375.425L18.8 4z"/></g></svg><svg fill="none" viewBox="0 0 24 24" id="catalog" xmlns="http://www.w3.org/2000/svg"><mask id="da" style="mask-type:alpha" maskUnits="userSpaceOnUse" x="0" y="0" width="24" height="24"><path fill="#D9D9D9" d="M0 0h24v24H0z"/></mask><g mask="url(#da)"><path d="M5 11c-.55 0-1.02-.196-1.413-.588A1.926 1.926 0 013 9V5c0-.55.196-1.02.587-1.413A1.926 1.926 0 015 3h4c.55 0 1.02.196 1.412.587C10.804 3.98 11 4.45 11 5v4c0 .55-.196 1.02-.588 1.412A1.926 1.926 0 019 11H5zm0 10c-.55 0-1.02-.196-1.413-.587A1.926 1.926 0 013 19v-4c0-.55.196-1.02.587-1.412A1.926 1.926 0 015 13h4c.55 0 1.02.196 1.412.588.392.391.588.862.588 1.412v4c0 .55-.196 1.02-.588 1.413A1.926 1.926 0 019 21H5zm10-10c-.55 0-1.02-.196-1.412-.588A1.926 1.926 0 0113 9V5c0-.55.196-1.02.588-1.413A1.926 1.926 0 0115 3h4c.55 0 1.02.196 1.413.587.39.393.587.863.587 1.413v4c0 .55-.196 1.02-.587 1.412A1.926 1.926 0 0119 11h-4zm0 10c-.55 0-1.02-.196-1.412-.587A1.926 1.926 0 0113 19v-4c0-.55.196-1.02.588-1.412A1.926 1.926 0 0115 13h4c.55 0 1.02.196 1.413.588.391.391.587.862.587 1.412v4c0 .55-.196 1.02-.587 1.413A1.926 1.926 0 0119 21h-4z" fill="#fff"/></g></svg><svg viewBox="0 0 14 14" id="close" xmlns="http://www.w3.org/2000/svg"><path d="M1.4 14L0 12.6 5.6 7 0 1.4 1.4 0 7 5.6 12.6 0 14 1.4 8.4 7l5.6 5.6-1.4 1.4L7 8.4 1.4 14z"/></svg><svg viewBox="0 0 24 24" id="compare" xmlns="http://www.w3.org/2000/svg"><g mask="url(#a)"><path d="M6 20c-.55 0-1.02-.196-1.412-.587A1.926 1.926 0 014 18v-7c0-.55.196-1.02.588-1.412A1.926 1.926 0 016 9c.55 0 1.02.196 1.412.588C7.804 9.979 8 10.45 8 11v7c0 .55-.196 1.02-.588 1.413A1.926 1.926 0 016 20zm6 0c-.55 0-1.02-.196-1.412-.587A1.926 1.926 0 0110 18V6c0-.55.196-1.02.588-1.412A1.926 1.926 0 0112 4c.55 0 1.02.196 1.412.588.392.391.588.862.588 1.412v12c0 .55-.196 1.02-.588 1.413A1.926 1.926 0 0112 20zm6 0c-.55 0-1.02-.196-1.413-.587A1.926 1.926 0 0116 18v-3c0-.55.196-1.02.587-1.412A1.926 1.926 0 0118 13c.55 0 1.02.196 1.413.588.391.391.587.862.587 1.412v3c0 .55-.196 1.02-.587 1.413A1.926 1.926 0 0118 20z"/></g></svg><svg viewBox="0 0 16 16" id="dropdown" xmlns="http://www.w3.org/2000/svg"><g mask="url(#a)"><path d="M8 11.375L3.874 7.247l.978-.977L8 9.42l3.15-3.15.977.977L8 11.375z"/></g></svg><svg viewBox="0 0 24 24" id="favorite" xmlns="http://www.w3.org/2000/svg"><g mask="url(#a)"><path d="M12 20.325c.233 0 .47-.042.713-.125.241-.083.454-.217.637-.4l1.725-1.575a68.37 68.37 0 004.788-4.813C21.288 11.821 22 10.067 22 8.15c0-1.567-.525-2.875-1.575-3.925-1.05-1.05-2.358-1.575-3.925-1.575-.883 0-1.717.187-2.5.562a5.956 5.956 0 00-2 1.538 5.956 5.956 0 00-2-1.538 5.717 5.717 0 00-2.5-.562c-1.567 0-2.875.525-3.925 1.575C2.525 5.275 2 6.583 2 8.15c0 1.917.708 3.675 2.125 5.275A59.858 59.858 0 008.95 18.25l1.7 1.55c.183.183.396.317.637.4.242.083.48.125.713.125z"/></g></svg><svg viewBox="0 0 16 16" id="near-me" xmlns="http://www.w3.org/2000/svg"><g mask="url(#a)"><path d="M6.933 9.066L3.117 7.65a.717.717 0 01-.292-.234.556.556 0 01-.108-.333.55.55 0 01.1-.325.682.682 0 01.283-.225L12.317 2.9a.507.507 0 01.358-.034.66.66 0 01.292.167.66.66 0 01.166.292.507.507 0 01-.033.358L9.467 12.9a.682.682 0 01-.225.283.55.55 0 01-.325.1.556.556 0 01-.334-.108.717.717 0 01-.233-.292L6.933 9.066z"/></g></svg><svg viewBox="0 0 24 24" id="search" xmlns="http://www.w3.org/2000/svg"><g mask="url(#a)"><path d="M9.5 16c-1.817 0-3.354-.63-4.612-1.887C3.629 12.854 3 11.317 3 9.5c0-1.817.63-3.354 1.888-4.612C6.146 3.629 7.683 3 9.5 3c1.817 0 3.354.63 4.613 1.888C15.37 6.146 16 7.683 16 9.5a6.096 6.096 0 01-1.3 3.8l5.6 5.6a.948.948 0 01.275.7.948.948 0 01-.275.7.948.948 0 01-.7.275.948.948 0 01-.7-.275l-5.6-5.6A6.096 6.096 0 019.5 16zm0-2c1.25 0 2.313-.438 3.188-1.313C13.562 11.813 14 10.75 14 9.5c0-1.25-.438-2.313-1.313-3.188C11.813 5.438 10.75 5 9.5 5c-1.25 0-2.313.438-3.188 1.313S5 8.25 5 9.5c0 1.25.438 2.313 1.313 3.188C7.188 13.562 8.25 14 9.5 14z"/></g></svg></svg>