<svg width="212" height="56" viewBox="0 0 212 56" fill="none" xmlns="http://www.w3.org/2000/svg">
<path fill-rule="evenodd" clip-rule="evenodd" d="M90.1203 24.771H91.1016C92.8243 24.771 94.2363 26.1883 94.2363 27.9175C94.2363 29.6466 92.8243 31.064 91.1016 31.064H88.6306C88.5247 31.064 88.4258 31.064 88.327 31.0498H84.7405V32.9561H95.7331V22.9922H80.342C78.6193 22.9922 77.2073 21.5749 77.2073 19.8457C77.2073 18.1166 78.6193 16.6992 80.342 16.6992H99.0301C102.122 17.1244 103.958 18.8181 104.29 22.0568V39.2633H82.0294C78.4358 38.8027 76.5084 36.8113 76.1836 33.7569V30.2915C76.6637 26.9466 78.6546 25.1537 82.0294 24.7568H90.1203V24.771Z" fill="#0A4881"/>
<path fill-rule="evenodd" clip-rule="evenodd" d="M114.564 46.2437V46.8461C114.564 49.128 112.7 50.9989 110.426 50.9989C108.153 50.9989 106.289 49.128 106.289 46.8461V16.6992H129.474C132.306 17.1244 134.071 18.726 134.268 22.0568V33.7569C134.021 36.8822 132.51 38.7956 129.474 39.2633H114.564V46.2437ZM123.692 22.9993C124.808 22.9993 125.711 23.9135 125.711 25.0261V30.9293C125.711 32.042 124.801 32.9561 123.692 32.9561H116.583C115.467 32.9561 114.564 32.042 114.564 30.9293V25.0261C114.564 23.9135 115.474 22.9993 116.583 22.9993H123.692Z" fill="#0A4881"/>
<path fill-rule="evenodd" clip-rule="evenodd" d="M61.6771 22.9993C60.6463 22.9993 59.7991 23.8497 59.7991 24.8844V31.0852C59.7991 32.1199 60.6463 32.9703 61.6771 32.9703H72.1896C73.9122 32.9774 75.3243 34.3947 75.3243 36.131C75.3243 37.8672 73.9122 39.2775 72.1896 39.2775H69.7185C69.6338 39.2775 69.5491 39.2775 69.4644 39.2633H56.6291C53.2261 38.7885 51.6376 36.783 51.2422 33.7569V22.0568C51.574 18.5985 53.4591 16.9118 56.6291 16.6992H72.1896C73.9122 16.6992 75.3243 18.1166 75.3243 19.8457C75.3243 21.5749 73.9122 22.9922 72.1896 22.9922H61.6771V22.9993Z" fill="#0A4881"/>
<path fill-rule="evenodd" clip-rule="evenodd" d="M180.116 24.771H181.098C182.82 24.771 184.232 26.1883 184.232 27.9175C184.232 29.6466 182.82 31.064 181.098 31.064H178.627C178.521 31.064 178.422 31.064 178.323 31.0498H174.737V32.9561H185.729V22.9922H170.338C168.615 22.9922 167.203 21.5749 167.203 19.8457C167.203 18.1166 168.615 16.6992 170.338 16.6992H189.026C192.119 17.1244 193.954 18.8181 194.286 22.0568V39.2633H172.025C168.432 38.8027 166.504 36.8113 166.18 33.7569V30.2915C166.66 26.9466 168.651 25.1537 172.025 24.7568H180.116V24.771Z" fill="#0A4881"/>
<path fill-rule="evenodd" clip-rule="evenodd" d="M136.23 16.698C145.74 16.698 143.573 15.7838 150.266 22.5091C157.128 15.876 154.996 16.698 164.52 16.698V39.255H156.246V26.18H156.211L150.266 31.7927L144.505 26.2013V39.255H136.23V16.698Z" fill="#0A4881"/>
<path fill-rule="evenodd" clip-rule="evenodd" d="M178.402 14.3754L181.721 7.74219H191.089L183.514 14.3754H178.402Z" fill="#0A4881"/>
<path fill-rule="evenodd" clip-rule="evenodd" d="M44.6411 34.9343C41.6971 44.1966 33.0555 50.9006 22.8536 50.9006C12.6517 50.9006 3.32532 43.6438 0.748373 33.8075C24.6045 42.6234 26.9414 28.1877 44.6482 34.9272M45.6154 27.1601H45.5872C45.5872 27.1601 45.6507 27.1743 45.6154 27.1601ZM45.7143 27.2168C45.7213 27.4578 45.7284 27.6987 45.7284 27.9397C45.7284 28.5775 45.7002 29.2011 45.6507 29.8248C35.583 26.1893 30.0196 28.5846 24.3292 31.0366C23.2066 31.5185 22.1476 31.9437 21.1451 32.3122C15.0804 34.5303 10.9785 34.6083 5.37981 32.8508C4.97033 32.6949 4.56084 32.539 4.13723 32.3618C4.56084 32.539 4.97739 32.6949 5.37981 32.8508C3.79835 32.3547 2.0898 31.7098 0.190623 30.9303C0.0635411 29.9523 0 28.9531 0 27.9397C0 27.0822 0.0494208 26.2318 0.141202 25.3956C17.6715 31.887 23.602 25.8278 32.5119 24.8144C33.9804 24.6444 35.5265 24.616 37.221 24.8003C39.6496 25.0625 42.3748 25.7712 45.5943 27.146L45.7143 27.2098V27.2168ZM43.7728 18.649C44.154 19.5136 44.4858 20.4065 44.7612 21.3278C34.8982 17.8624 29.3913 20.2293 23.7573 22.653C21.5051 23.6239 19.5283 24.3538 17.6997 24.857C13.5907 25.9838 10.2584 25.9554 6.26233 24.8924C4.51848 24.4318 2.65461 23.7656 0.543629 22.9223C0.903696 21.2994 1.4332 19.7404 2.11804 18.2734C16.3936 22.7735 22.3735 18.3797 29.9067 16.9695C32.3424 16.5159 34.9476 16.3742 38.047 16.9482C39.7838 17.2671 41.6688 17.8128 43.7728 18.649ZM22.8607 5C29.2854 5 35.0888 7.6646 39.2472 11.945C32.1659 10.5631 27.5698 12.5403 22.8889 14.5529C20.2131 15.708 17.9256 16.523 15.8147 17.0191C12.5035 17.7986 9.64413 17.7773 6.41059 17.0474C5.40099 16.8206 4.35609 16.5159 3.24766 16.1474C7.24368 9.47171 14.5297 5 22.8607 5Z" fill="#0A4881"/>
<path d="M190.035 43.949H191.525V45.4939H192.633C193.198 45.4939 193.608 45.6144 193.876 45.8483C194.144 46.0892 194.278 46.4719 194.278 47.0034C194.278 47.5349 194.151 47.9317 193.89 48.1656C193.629 48.3924 193.212 48.5058 192.633 48.5058H190.035V43.9419V43.949ZM191.525 46.5357V47.464H192.287C192.485 47.464 192.626 47.4286 192.711 47.3577C192.796 47.2869 192.838 47.1664 192.838 47.0034C192.838 46.8333 192.796 46.7128 192.718 46.642C192.64 46.5711 192.499 46.5357 192.295 46.5357H191.532H191.525ZM185.072 43.949H189.033V48.5129H187.543V45.0475H186.47V46.5144C186.47 47.2656 186.322 47.7971 186.025 48.1089C185.729 48.4136 185.312 48.5696 184.776 48.5696C184.535 48.5696 184.317 48.5554 184.133 48.5341V47.4569C184.232 47.4711 184.331 47.4711 184.437 47.4711C184.684 47.4711 184.853 47.3861 184.938 47.2231C185.023 47.0601 185.065 46.812 185.065 46.4931V43.9561L185.072 43.949ZM182.319 46.9892H183.78C183.78 47.6199 183.575 48.0593 183.166 48.2932C182.982 48.3924 182.763 48.4633 182.502 48.5058C182.241 48.5483 181.93 48.5625 181.563 48.5625C180.97 48.5625 180.511 48.4845 180.193 48.3357C179.876 48.1869 179.65 47.9459 179.523 47.6128C179.396 47.2798 179.332 46.8191 179.332 46.2309C179.332 45.6427 179.389 45.1538 179.509 44.8207C179.629 44.4876 179.848 44.2537 180.165 44.1049C180.483 43.9632 180.949 43.8923 181.556 43.8923C182.163 43.8923 182.587 43.9561 182.898 44.0908C183.215 44.2254 183.434 44.4522 183.568 44.7852C183.702 45.1183 183.766 45.6002 183.766 46.2239V46.479H180.815C180.815 46.6845 180.822 46.8546 180.843 46.9821C180.864 47.1168 180.899 47.216 180.956 47.2939C181.005 47.3719 181.083 47.4286 181.175 47.464C181.267 47.4995 181.394 47.5136 181.549 47.5136C181.817 47.5136 182.008 47.4782 182.128 47.4144C182.248 47.3506 182.304 47.2018 182.304 46.9821L182.319 46.9892ZM180.829 45.664H182.29C182.29 45.3522 182.234 45.1538 182.128 45.0687C182.015 44.9837 181.824 44.9412 181.542 44.9412C181.358 44.9412 181.217 44.9624 181.118 44.9978C181.027 45.0333 180.956 45.1042 180.907 45.2034C180.864 45.3026 180.836 45.4585 180.829 45.664ZM176.593 45.2105C176.374 45.2105 176.205 45.2388 176.092 45.2955C175.979 45.3522 175.901 45.4514 175.859 45.6002C175.816 45.749 175.795 45.9546 175.795 46.2309C175.795 46.5853 175.809 46.8404 175.844 46.9963C175.88 47.1522 175.943 47.2656 176.049 47.3223C176.155 47.379 176.332 47.4144 176.572 47.4144C176.755 47.4144 176.889 47.4002 176.988 47.3648C177.087 47.3365 177.158 47.2727 177.2 47.1876C177.249 47.1026 177.278 46.9892 177.292 46.8546C177.306 46.7128 177.306 46.5073 177.306 46.2309C177.306 45.9404 177.292 45.7207 177.256 45.579C177.221 45.4443 177.165 45.3451 177.066 45.2884C176.967 45.2317 176.812 45.2034 176.593 45.2034V45.2105ZM175.633 44.8774C175.689 44.6364 175.823 44.438 176.035 44.2892C176.247 44.1404 176.494 44.0624 176.776 44.0624C177.292 44.0624 177.687 44.1262 177.977 44.2467C178.266 44.3671 178.471 44.5868 178.598 44.8986C178.725 45.2105 178.789 45.6569 178.789 46.238C178.789 46.7057 178.753 47.0955 178.69 47.3861C178.626 47.6837 178.506 47.9176 178.351 48.0877C178.188 48.2577 177.97 48.3782 177.68 48.4562C177.398 48.527 177.023 48.5696 176.565 48.5696C175.943 48.5696 175.47 48.4916 175.145 48.3357C174.821 48.1798 174.602 47.9247 174.475 47.5703C174.355 47.216 174.291 46.7057 174.291 46.0538V45.2175C174.291 44.5726 174.362 44.0411 174.51 43.6301C174.658 43.2191 174.891 42.9144 175.223 42.7159C175.548 42.5175 175.979 42.4183 176.508 42.4183C176.798 42.4183 177.009 42.4183 177.129 42.4041C177.249 42.397 177.334 42.3687 177.391 42.3191C177.447 42.2766 177.468 42.1915 177.468 42.0781H178.541C178.541 42.4112 178.478 42.6876 178.337 42.886C178.203 43.0915 177.998 43.2333 177.729 43.3254C177.461 43.4104 177.122 43.46 176.706 43.46C176.43 43.46 176.212 43.4955 176.049 43.5663C175.887 43.6372 175.767 43.7648 175.689 43.9561C175.611 44.1474 175.569 44.4167 175.569 44.7711V44.8845H175.626L175.633 44.8774ZM172.279 46.9892H173.741C173.741 47.6199 173.536 48.0593 173.126 48.2932C172.943 48.3924 172.724 48.4633 172.463 48.5058C172.201 48.5483 171.891 48.5625 171.524 48.5625C170.931 48.5625 170.472 48.4845 170.154 48.3357C169.836 48.1869 169.61 47.9459 169.483 47.6128C169.356 47.2798 169.293 46.8191 169.293 46.2309C169.293 45.6427 169.349 45.1538 169.469 44.8207C169.589 44.4876 169.808 44.2537 170.126 44.1049C170.443 43.9632 170.909 43.8923 171.517 43.8923C172.124 43.8923 172.547 43.9561 172.858 44.0908C173.176 44.2254 173.395 44.4522 173.529 44.7852C173.663 45.1183 173.726 45.6002 173.726 46.2239V46.479H170.775C170.775 46.6845 170.782 46.8546 170.804 46.9821C170.825 47.1168 170.86 47.216 170.916 47.2939C170.966 47.3719 171.044 47.4286 171.135 47.464C171.227 47.4995 171.354 47.5136 171.51 47.5136C171.778 47.5136 171.968 47.4782 172.088 47.4144C172.208 47.3506 172.265 47.2018 172.265 46.9821L172.279 46.9892ZM170.789 45.664H172.251C172.251 45.3522 172.194 45.1538 172.088 45.0687C171.983 44.9837 171.785 44.9412 171.502 44.9412C171.319 44.9412 171.178 44.9624 171.079 44.9978C170.987 45.0333 170.909 45.1042 170.867 45.2034C170.825 45.3026 170.796 45.4585 170.789 45.664ZM165.071 48.5129H166.25L167.182 45.1254H167.224V48.5129H168.558V43.949H166.384L165.692 46.7483H165.621L164.929 43.949H162.755V48.5129H164.089V45.1254H164.132L165.064 48.5129H165.071ZM155.554 43.949V48.5129H154.064V43.949H155.554ZM149.164 43.949H150.654V45.4939H151.762C152.327 45.4939 152.737 45.6144 153.005 45.8483C153.273 46.0892 153.407 46.4719 153.407 47.0034C153.407 47.5349 153.28 47.9317 153.019 48.1656C152.758 48.3924 152.341 48.5058 151.762 48.5058H149.164V43.9419V43.949ZM150.654 46.5357V47.464H151.416C151.614 47.464 151.755 47.4286 151.84 47.3577C151.925 47.2869 151.967 47.1664 151.967 47.0034C151.967 46.8333 151.925 46.7128 151.847 46.642C151.769 46.5711 151.628 46.5357 151.423 46.5357H150.661H150.654ZM146.99 46.6845H148.479C148.479 47.1026 148.437 47.4286 148.345 47.6695C148.261 47.9105 148.126 48.0947 147.943 48.2223C147.773 48.3499 147.562 48.4349 147.3 48.4845C147.039 48.5341 146.7 48.5625 146.277 48.5625C145.853 48.5625 145.472 48.527 145.189 48.4491C144.907 48.3711 144.688 48.2436 144.533 48.0735C144.377 47.8963 144.265 47.6625 144.201 47.3719C144.137 47.0813 144.109 46.7057 144.109 46.2309C144.109 45.8057 144.137 45.4585 144.194 45.175C144.25 44.8986 144.356 44.6577 144.505 44.4663C144.653 44.275 144.872 44.1333 145.161 44.0341C145.444 43.9348 145.818 43.8923 146.277 43.8923C146.778 43.8923 147.18 43.9348 147.484 44.0128C147.795 44.0908 148.035 44.2608 148.211 44.516C148.388 44.7711 148.472 45.1538 148.472 45.6569H146.983C146.983 45.4018 146.94 45.2459 146.863 45.1679C146.771 45.0829 146.573 45.0404 146.277 45.0404C146.086 45.0404 145.945 45.0687 145.853 45.1254C145.761 45.1821 145.691 45.2955 145.648 45.4585C145.606 45.6215 145.585 45.8837 145.585 46.2309C145.585 46.5994 145.599 46.8617 145.641 47.0247C145.677 47.1876 145.74 47.2869 145.832 47.3436C145.924 47.3932 146.072 47.4215 146.27 47.4215C146.488 47.4215 146.651 47.4002 146.75 47.3577C146.849 47.3152 146.912 47.2443 146.94 47.1522C146.969 47.0601 146.983 46.9042 146.983 46.6916L146.99 46.6845ZM141.878 47.0388C141.878 46.8617 141.815 46.7483 141.681 46.6987C141.553 46.6491 141.349 46.6207 141.066 46.6207C140.854 46.6207 140.692 46.6561 140.579 46.7128C140.466 46.7766 140.41 46.9042 140.41 47.0955C140.41 47.3081 140.473 47.4499 140.6 47.5065C140.727 47.5632 140.883 47.5916 141.066 47.5916C141.285 47.5916 141.455 47.5774 141.568 47.5491C141.681 47.5207 141.758 47.4711 141.808 47.3932C141.857 47.3152 141.878 47.1947 141.878 47.0388ZM141.928 47.8325H141.878C141.793 48.3215 141.356 48.5625 140.572 48.5625C140.198 48.5625 139.894 48.527 139.661 48.442C139.428 48.364 139.245 48.2223 139.118 48.0168C138.991 47.8113 138.927 47.5207 138.927 47.1451C138.927 46.6207 139.061 46.2522 139.329 46.0325C139.598 45.8199 140.014 45.7065 140.572 45.7065C140.897 45.7065 141.165 45.7349 141.377 45.7916C141.596 45.8483 141.737 45.99 141.808 46.2168H141.878V45.4939C141.878 45.2388 141.843 45.0616 141.765 44.9553C141.688 44.849 141.504 44.7994 141.207 44.7994C141.003 44.7994 140.847 44.8349 140.749 44.9057C140.65 44.9766 140.6 45.1042 140.6 45.2955H139.111C139.111 44.8561 139.202 44.5372 139.393 44.3317C139.584 44.1262 139.81 43.9986 140.085 43.9561C140.36 43.9065 140.734 43.8852 141.2 43.8852C141.758 43.8852 142.182 43.9278 142.485 44.0057C142.782 44.0837 143.008 44.2537 143.149 44.5018C143.29 44.7498 143.368 45.1325 143.368 45.6498V48.4987H141.878L141.928 47.8184V47.8325ZM135.185 47.8254V50.483H133.696V43.949H135.185L135.15 44.6719H135.22C135.305 44.3813 135.453 44.1829 135.665 44.0695C135.877 43.9561 136.167 43.8994 136.52 43.8994C137.091 43.8994 137.515 44.0341 137.805 44.2963C138.094 44.5585 138.242 44.9837 138.242 45.5719V46.6136C138.242 47.0813 138.186 47.4569 138.073 47.7404C137.96 48.0239 137.776 48.2294 137.522 48.364C137.268 48.4987 136.936 48.5625 136.52 48.5625C136.209 48.5625 135.948 48.5129 135.736 48.4136C135.524 48.3073 135.369 48.116 135.256 47.8254H135.185ZM135.185 46.238C135.185 46.5286 135.199 46.7554 135.228 46.9113C135.256 47.0743 135.326 47.1947 135.432 47.2869C135.538 47.3719 135.701 47.4215 135.927 47.4215C136.152 47.4215 136.315 47.3932 136.428 47.3365C136.541 47.2798 136.625 47.1664 136.675 47.0034C136.724 46.8333 136.753 46.5782 136.753 46.2451C136.753 45.912 136.731 45.6569 136.689 45.4939C136.647 45.3309 136.569 45.2175 136.456 45.1538C136.343 45.09 136.167 45.0545 135.927 45.0545C135.715 45.0545 135.552 45.0829 135.446 45.1538C135.341 45.2175 135.27 45.3309 135.235 45.4939C135.199 45.6569 135.178 45.905 135.178 46.2451L135.185 46.238ZM133.222 43.9561V45.0475H132.029V48.5129H130.54V45.0475H129.346V43.9561H133.222ZM127.384 47.0459C127.384 46.8687 127.32 46.7554 127.186 46.7057C127.059 46.6561 126.854 46.6278 126.572 46.6278C126.36 46.6278 126.198 46.6632 126.085 46.7199C125.972 46.7837 125.915 46.9113 125.915 47.1026C125.915 47.3152 125.979 47.4569 126.106 47.5136C126.233 47.5703 126.388 47.5987 126.572 47.5987C126.791 47.5987 126.96 47.5845 127.073 47.5562C127.186 47.5278 127.264 47.4782 127.313 47.4002C127.363 47.3223 127.384 47.2018 127.384 47.0459ZM127.433 47.8396H127.384C127.299 48.3286 126.861 48.5696 126.078 48.5696C125.703 48.5696 125.4 48.5341 125.167 48.4491C124.934 48.3711 124.75 48.2294 124.623 48.0239C124.496 47.8184 124.433 47.5278 124.433 47.1522C124.433 46.6278 124.567 46.2593 124.835 46.0396C125.103 45.827 125.52 45.7136 126.078 45.7136C126.402 45.7136 126.671 45.742 126.882 45.7986C127.101 45.8553 127.243 45.9971 127.313 46.2239H127.384V45.501C127.384 45.2459 127.348 45.0687 127.271 44.9624C127.193 44.8561 127.01 44.8065 126.713 44.8065C126.508 44.8065 126.353 44.8419 126.254 44.9128C126.155 44.9837 126.106 45.1112 126.106 45.3026H124.616C124.616 44.8632 124.708 44.5443 124.899 44.3388C125.089 44.1333 125.315 44.0057 125.59 43.9632C125.866 43.9136 126.24 43.8923 126.706 43.8923C127.264 43.8923 127.687 43.9348 127.991 44.0128C128.287 44.0908 128.513 44.2608 128.655 44.5089C128.796 44.7569 128.873 45.1396 128.873 45.6569V48.5058H127.384L127.433 47.8254V47.8396ZM120.105 48.5199H121.284L122.216 45.1325H122.258V48.5199H123.592V43.9561H121.418L120.726 46.7554H120.655L119.964 43.9561H117.789V48.5199H119.123V45.1325H119.166L120.098 48.5199H120.105Z" fill="#0A4881"/>
<path fill-rule="evenodd" clip-rule="evenodd" d="M159.114 44.9844C159.799 44.9844 160.356 45.5442 160.356 46.2316C160.356 46.919 159.799 47.4789 159.114 47.4789C158.429 47.4789 157.871 46.919 157.871 46.2316C157.871 45.5442 158.429 44.9844 159.114 44.9844Z" fill="#0A4881"/>
<path fill-rule="evenodd" clip-rule="evenodd" d="M201.221 13.3916C203.664 13.3916 205.641 15.3759 205.641 17.8279C205.641 20.2799 203.664 22.2642 201.221 22.2642C198.778 22.2642 196.801 20.2799 196.801 17.8279C196.801 15.3759 198.778 13.3916 201.221 13.3916ZM200.388 17.5161H201.447C201.624 17.5161 201.758 17.4948 201.835 17.4452C201.913 17.3956 201.962 17.3247 201.984 17.2184C202.005 17.1121 202.012 16.9492 202.012 16.7153C202.012 16.4814 201.977 16.3255 201.899 16.2476C201.821 16.1696 201.673 16.1271 201.447 16.1271H200.388V17.5161ZM201.447 18.7067H200.388V20.0673C200.367 20.4287 200.07 20.7193 199.703 20.7193C199.336 20.7193 199.04 20.4287 199.018 20.0673V14.9294H201.652C202.075 14.9294 202.414 14.979 202.661 15.0641C202.908 15.1491 203.099 15.2979 203.226 15.5247C203.353 15.7444 203.417 16.0704 203.417 16.4814C203.417 16.8358 203.403 17.1051 203.374 17.2822C203.346 17.4594 203.261 17.6224 203.12 17.757C202.979 17.8917 202.76 17.9909 202.45 18.0689V18.1255C202.739 18.1326 202.965 18.2177 203.127 18.3736C203.29 18.5295 203.374 18.7492 203.374 19.0397V20.0744C203.353 20.4358 203.057 20.7264 202.697 20.7264C202.337 20.7264 202.033 20.4358 202.019 20.0744V19.3515C202.019 18.9193 201.835 18.7067 201.461 18.7067H201.447ZM201.221 12.0664C204.391 12.0664 206.954 14.646 206.954 17.8208C206.954 20.9957 204.384 23.5752 201.221 23.5752C198.058 23.5752 195.488 20.9957 195.488 17.8208C195.488 14.646 198.058 12.0664 201.221 12.0664Z" fill="#0A4881"/>
</svg>
