<svg width="32" height="32" viewBox="0 0 32 32" fill="none" xmlns="http://www.w3.org/2000/svg">
<rect width="32" height="32" rx="8" fill="url(#paint0_linear_640_205118)"/>
<path d="M7.11596 15.9193C7.11542 17.4912 7.52615 19.0259 8.3069 20.3784L7.04102 25.0001L11.771 23.7599C13.0742 24.4706 14.5414 24.8451 16.0346 24.8457H16.0384C20.9556 24.8457 24.9587 20.8439 24.9608 15.9262C24.9616 13.5427 24.0342 11.3017 22.3498 9.61585C20.6651 7.92999 18.4251 7.00103 16.0384 7C11.1202 7 7.11786 11.0011 7.11581 15.919M9.93255 20.1454L9.75594 19.865C9.01354 18.6845 8.62168 17.3203 8.62219 15.9197C8.62384 11.8322 11.9505 8.50651 16.041 8.50651C18.022 8.50728 19.8837 9.27952 21.2841 10.6806C22.6843 12.0819 23.4548 13.9446 23.4542 15.9255C23.4524 20.0132 20.1257 23.3392 16.0382 23.3392H16.0353C14.7044 23.3384 13.3991 22.9812 12.2609 22.3057L11.9899 22.1451L9.18299 22.881L9.93255 20.1454ZM16.0384 24.8457H16.0385H16.0384C16.0383 24.8457 16.0382 24.8457 16.0384 24.8457Z" fill="url(#paint1_linear_640_205118)"/>
<path fill-rule="evenodd" clip-rule="evenodd" d="M13.8076 12.19C13.6406 11.8187 13.4648 11.8113 13.306 11.8048C13.176 11.7992 13.0272 11.7996 12.8787 11.7996C12.73 11.7996 12.4885 11.8554 12.2842 12.0785C12.0798 12.3016 11.5039 12.8409 11.5039 13.9377C11.5039 15.0346 12.3029 16.0945 12.4142 16.2434C12.5257 16.392 13.9565 18.7149 16.2223 19.6085C18.1056 20.3511 18.4889 20.2034 18.8976 20.1662C19.3064 20.1291 20.2166 19.6271 20.4024 19.1064C20.5882 18.5859 20.5882 18.1397 20.5325 18.0466C20.4768 17.9537 20.3281 17.8979 20.1051 17.7865C19.8821 17.675 18.7861 17.1356 18.5818 17.0612C18.3774 16.9868 18.2288 16.9497 18.0801 17.1729C17.9315 17.3958 17.5044 17.8979 17.3744 18.0466C17.2443 18.1956 17.1142 18.2141 16.8913 18.1026C16.6683 17.9908 15.9503 17.7556 15.0985 16.9962C14.4357 16.4053 13.9883 15.6756 13.8582 15.4523C13.7282 15.2294 13.8443 15.1086 13.9561 14.9975C14.0563 14.8976 14.1791 14.7372 14.2906 14.6071C14.4018 14.4769 14.439 14.384 14.5133 14.2353C14.5876 14.0865 14.5504 13.9563 14.4948 13.8448C14.439 13.7332 14.0057 12.6308 13.8075 12.1899" fill="white"/>
<defs>
<linearGradient id="paint0_linear_640_205118" x1="16" y1="0" x2="16" y2="32" gradientUnits="userSpaceOnUse">
<stop stop-color="#98FF87"/>
<stop offset="1" stop-color="#43D11D"/>
</linearGradient>
<linearGradient id="paint1_linear_640_205118" x1="16.001" y1="25.0006" x2="16.001" y2="7.00054" gradientUnits="userSpaceOnUse">
<stop stop-color="#F9F9F9"/>
<stop offset="1" stop-color="white"/>
</linearGradient>
</defs>
</svg>
